<svg width="32" height="32" viewBox="0 0 32 32" fill="none" xmlns="http://www.w3.org/2000/svg">
<path d="M26.3562 0.220215H3.86021C3.50821 0.220215 3.22021 0.508215 3.22021 0.860215V21.5642C3.22021 21.6602 3.25221 21.7242 3.31621 21.7882L13.5562 31.6762C13.6202 31.7402 13.6842 31.7722 13.7802 31.7722H26.3562C26.7082 31.7722 26.9962 31.4842 26.9962 31.1322V0.860215C26.9962 0.508215 26.7082 0.220215 26.3562 0.220215ZM13.1722 29.0842L6.00421 22.1402H13.0442C13.1402 22.1402 13.2042 22.2042 13.2042 22.3002V29.0842H13.1722ZM25.3962 30.1722H14.7722V21.2122C14.7722 20.8602 14.4842 20.5722 14.1322 20.5722H4.82022V1.82021H25.3962V30.1722Z" fill="white"/>
<path d="M9.3 12.4762H14.324V17.5002C14.324 17.9482 14.676 18.3002 15.124 18.3002C15.572 18.3002 15.924 17.9482 15.924 17.5002V12.4762H20.948C21.396 12.4762 21.748 12.1242 21.748 11.6762C21.748 11.2282 21.364 10.8762 20.916 10.8762H15.892V5.85225C15.892 5.40425 15.54 5.05225 15.092 5.05225C14.644 5.05225 14.292 5.40425 14.292 5.85225V10.8762H9.3C8.852 10.8762 8.5 11.2282 8.5 11.6762C8.5 12.1242 8.852 12.4762 9.3 12.4762Z" fill="white"/>
</svg>
