<svg width="20" height="37" viewBox="0 0 20 37" fill="none" xmlns="http://www.w3.org/2000/svg">
<path d="M16.371 1.97459C16.5267 1.81122 16.6874 1.69345 16.6371 1.76308C16.9361 1.41203 16.9727 1.43468 16.9644 1.34211C17.1484 1.10873 17.4052 0.92046 17.1882 1.17816L17.759 0.545778L17.3914 0.897707C17.4195 0.82779 17.5663 0.687272 17.7144 0.543824L17.7696 0.49002L17.7833 0.476642L17.79 0.469904L17.8198 0.442952L17.8491 0.419224L17.8777 0.395787L17.8917 0.384167C17.8959 0.380457 17.9096 0.372156 17.9181 0.36659C17.9568 0.341885 17.9964 0.319426 18.0345 0.299798C18.0734 0.279389 18.1017 0.27353 18.1338 0.261129C18.1646 0.251461 18.1931 0.238767 18.2208 0.23408C18.2756 0.222557 18.3219 0.212695 18.3557 0.202148C18.3557 0.202148 18.3316 0.204003 18.2893 0.207226C18.2468 0.210546 18.1867 0.216698 18.1173 0.240622C18.0819 0.25195 18.0472 0.260152 17.9998 0.28642C17.9773 0.29804 17.9545 0.310735 17.9317 0.324308L17.8975 0.3454C17.8865 0.352529 17.8729 0.361317 17.8703 0.364247C17.8495 0.381433 17.828 0.399205 17.8062 0.41727L17.8021 0.420688L17.7734 0.446761L17.7659 0.454378L17.7509 0.469611L17.7205 0.500273C17.5588 0.664031 17.397 0.827888 17.397 0.827888L17.4156 0.781407C17.2824 0.944579 16.988 1.2264 16.8818 1.32092C16.8908 1.29817 16.8695 1.29709 16.9831 1.18099C16.1937 1.96404 16.8445 1.46603 16.2061 2.13229C16.2456 2.0905 16.297 2.0405 16.371 1.97459Z" fill="white"/>
<path d="M15.6007 2.5399L15.3789 2.86673L14.9052 3.31329C14.9182 3.33662 14.5977 3.6864 14.8406 3.47548C14.8821 3.42822 14.9644 3.33516 15.0369 3.26593C15.0248 3.35645 14.4446 3.89733 14.6195 3.80173C14.973 3.42744 15.0374 3.38027 15.2296 3.12443C15.5668 2.79447 15.8187 2.5606 15.9888 2.41911C16.0818 2.31413 16.0718 2.27615 16.1927 2.14559C16.1654 2.17401 16.1403 2.19998 16.1089 2.2326L16.0364 2.18729C15.9439 2.30466 15.8389 2.39792 15.7236 2.51558L16.1934 1.9082C15.9645 2.02665 15.4678 2.58824 15.2335 2.7768C15.5453 2.56412 15.0492 3.01028 15.6007 2.5399Z" fill="white"/>
<path d="M16.1926 2.1457C16.196 2.14219 16.2018 2.13643 16.2057 2.13232C16.2018 2.13633 16.1961 2.14219 16.1926 2.1457Z" fill="white"/>
<path d="M12.5267 29.088C12.411 28.9746 12.3634 28.9548 12.34 28.9452L13.6303 30.2333C13.6054 30.1774 13.2533 29.7869 13.5106 30.0259C13.417 29.8981 13.0653 29.5756 12.9956 29.5477L13.1126 29.6175C12.7852 29.3507 12.6418 29.0884 12.8533 29.2643L12.8279 29.2395L11.8889 28.5332C12.1842 28.8421 12.1616 28.7257 12.5267 29.088Z" fill="white"/>
<path d="M17.5213 2.33545C17.3596 2.5079 17.3446 2.53407 17.3693 2.52079C17.425 2.45663 17.4768 2.39472 17.5213 2.33545Z" fill="white"/>
<path d="M11.6691 28.3683L11.375 28.147C11.4881 28.2404 11.5918 28.318 11.6691 28.3683Z" fill="white"/>
<path d="M14.0083 29.6C14.0108 29.5985 14.0153 29.5997 14.0111 29.5902L13.8767 29.4932C13.8785 29.4949 13.879 29.4954 13.8796 29.4961C13.9268 29.5342 13.9693 29.5684 14.0083 29.6Z" fill="white"/>
<path d="M5.68242 22.6553C5.6539 22.6285 5.62939 22.6053 5.59521 22.5732C5.62637 22.6037 5.65517 22.6307 5.68242 22.6553Z" fill="white"/>
<path d="M17.709 32.8843L17.1008 32.3461C17.1937 32.4059 16.9122 32.1344 17.0523 32.2358C17.0061 32.1948 16.7946 31.9966 16.842 32.0609L16.9601 32.1768C16.6095 31.9228 16.774 32.1245 16.2361 31.6602C16.5186 31.9999 16.6813 32.1101 16.868 32.2529C16.9264 32.3063 16.9753 32.351 17.0246 32.3962L17.5687 32.8053L17.709 32.8843Z" fill="white"/>
<path d="M9.8082 10.5972L9.80566 10.6072C9.81006 10.6001 9.80986 10.5978 9.8082 10.5972Z" fill="white"/>
<path d="M9.79618 10.6475L9.80575 10.6069C9.7826 10.6455 9.67206 10.7709 9.79618 10.6475Z" fill="white"/>
<path d="M11.7952 28.4314C11.7784 28.4326 11.7343 28.4104 11.6692 28.3682L11.8888 28.5331C11.8626 28.5047 11.8281 28.4671 11.7952 28.4314Z" fill="white"/>
<path d="M12.3381 28.7637L12.8278 29.2396L13.031 29.3925C12.8366 29.2174 12.614 29.0076 12.3381 28.7637Z" fill="white"/>
<path d="M6.41689 23.4462C5.40925 22.4534 6.71951 23.6351 6.27354 23.1618C5.98919 22.8908 5.8642 22.8198 5.68257 22.6551C6.49892 23.4255 5.4861 22.6365 6.30059 23.4223C6.13791 23.3572 5.67036 22.8985 5.41208 22.6138C5.15174 22.2595 5.71509 22.8478 5.8308 22.8713C5.50201 22.558 5.55006 22.6231 5.38757 22.5131C4.89444 21.9981 4.28676 21.5278 4.05094 21.1616C3.67567 20.807 3.67714 20.8536 3.44258 20.6685C3.3504 20.6771 3.95886 21.2376 4.05445 21.4124C4.03073 21.3802 3.98454 21.317 4.00748 21.3258L4.31235 21.6519C4.03043 21.3349 4.40424 21.6431 4.56829 21.7993C4.68576 21.9148 4.91944 22.1438 4.87364 22.126L4.68644 21.9606C4.89746 22.2033 5.22381 22.4245 5.4362 22.6914C5.43747 22.7152 5.34148 22.6298 5.32068 22.6231C5.62359 22.8572 5.8805 23.1182 6.30225 23.4913L6.0219 23.3109C6.39512 23.5734 7.09927 24.3091 7.56897 24.8371C7.52209 24.7734 7.42835 24.6678 7.49778 24.7179C7.80274 24.999 7.98984 25.2546 7.82784 25.1452C8.15545 25.39 8.88372 26.2707 9.32764 26.6071L11.3752 28.1472C11.3016 28.0863 11.2246 28.0196 11.1483 27.9477C11.0291 27.7408 10.9358 27.6582 11.263 27.9026C10.9593 27.6453 11.0312 27.7877 10.6079 27.368C10.7953 27.5114 10.8874 27.5028 10.4888 27.0938C9.43574 26.1283 8.64224 25.584 7.63595 24.7051C7.63498 24.6366 6.88532 23.9058 6.53359 23.5383C6.70711 23.6394 6.98443 23.896 7.26879 24.1657C7.09615 23.9906 6.799 23.6892 6.5785 23.4656L6.41689 23.4462Z" fill="white"/>
<path d="M8.87387 25.6762C8.85161 25.6479 8.8272 25.6201 8.802 25.5918C8.81352 25.6089 8.83471 25.6343 8.87387 25.6762Z" fill="white"/>
<path d="M7.35219 24.251C7.35698 24.2531 7.35668 24.251 7.35932 24.2508C7.32934 24.2226 7.29946 24.1943 7.2688 24.1655C7.29819 24.1957 7.33139 24.2297 7.35219 24.251Z" fill="white"/>
<path d="M11.635 28.1191C11.7044 28.1693 11.7515 28.2109 11.8211 28.2611C11.7815 28.2267 11.7321 28.1837 11.6846 28.1422C11.6375 28.1043 11.6127 28.0887 11.635 28.1191Z" fill="white"/>
<path d="M11.7773 28.38L11.7314 28.3618C11.7561 28.3888 11.7733 28.4077 11.7951 28.4314C11.8096 28.4311 11.8083 28.4173 11.7773 28.38Z" fill="white"/>
<path d="M2.89985 19.3185L2.79663 19.23C2.85503 19.287 2.88285 19.309 2.89985 19.3185Z" fill="white"/>
<path d="M5.35982 22.2744C5.71097 22.619 5.45181 22.2656 5.94416 22.7575L5.80286 22.6099C6.17744 22.9415 6.78815 23.572 7.20941 23.9897C7.14203 23.9625 7.43937 24.2685 7.3592 24.2506C7.65332 24.53 7.94422 24.8072 8.12409 24.9228C8.29117 25.1109 8.58949 25.3524 8.80198 25.5918C8.72552 25.4775 9.1874 25.8495 8.61468 25.3228C8.66156 25.3646 8.63812 25.3325 8.6846 25.3737C8.35679 24.9933 8.17018 24.8959 7.86454 24.5914C7.70078 24.3905 8.19284 24.8597 8.0282 24.6801C7.62989 24.3165 6.85533 23.4624 6.81051 23.5577C6.5284 23.2855 6.50555 23.2317 6.43573 23.1363C5.92258 22.7723 4.84042 21.4769 4.74902 21.5762C4.91288 21.7326 5.17175 21.9954 5.42701 22.2099L5.35982 22.2744Z" fill="white"/>
<path d="M11.0458 27.5397C11.0247 27.5181 10.9966 27.4892 10.979 27.4712C10.9988 27.4915 11.0233 27.5167 11.0458 27.5397Z" fill="white"/>
<path d="M15.1591 32.2057L14.9512 32.1225C14.108 31.3091 13.8262 30.9921 13.0994 30.2704C13.0526 30.2065 13.1459 30.2889 13.1931 30.3308C12.6767 29.8287 11.9281 29.0539 11.5287 28.7119C11.3672 28.5494 10.9617 28.1043 11.141 28.2469C11.0567 28.1736 10.9611 28.0888 10.8726 27.9962C10.8709 27.9497 11.0819 28.1926 11.1055 28.1795C11.0351 28.1061 11.0114 28.0738 10.9878 28.0643C11.1281 28.166 10.9384 27.8628 11.5009 28.4282C11.6669 28.6989 11.1038 28.0431 11.1749 28.2298C11.3615 28.4173 11.3622 28.3732 11.3852 28.3822C11.6223 28.6219 11.6015 28.6301 11.5755 28.6306C11.6848 28.704 11.9598 29.0288 12.1131 29.1278C12.5811 29.5869 12.0445 29.146 12.348 29.448L12.581 29.564L13.0734 30.0785C13.8228 30.7867 13.0703 29.8731 13.9364 30.673C13.7964 30.5941 14.0792 30.9795 14.4548 31.3794C14.2207 31.1496 13.7536 30.759 13.4716 30.4421C13.848 30.9101 12.885 29.8665 13.0517 30.1382C13.2852 30.322 13.6363 30.6665 13.8942 30.9511L13.7999 30.8677C14.0822 31.1624 14.3618 31.3196 14.7366 31.7411C14.9364 31.9371 14.8828 31.9165 14.8342 31.8954C15.0105 32.054 15.1715 32.1922 15.1591 32.2057ZM14.7159 31.7869L14.457 31.5164C14.5101 31.589 14.6091 31.6873 14.7159 31.7869Z" fill="white"/>
<path d="M11.9065 6.24951C11.9342 6.2248 11.9664 6.19629 11.9915 6.17383C11.9713 6.18877 11.9396 6.21797 11.9065 6.24951Z" fill="white"/>
<path d="M12.2586 30.4477L12.1072 30.2925C12.1651 30.3543 12.2139 30.4037 12.2586 30.4477Z" fill="white"/>
<path d="M8.62464 27.2L8.38696 26.9897C8.47621 27.0773 8.55092 27.1411 8.62464 27.2Z" fill="white"/>
<path d="M10.0746 8.07324L10.0666 8.08027C10.0552 8.09394 10.0464 8.10439 10.0344 8.11875L10.0746 8.07324Z" fill="white"/>
<path d="M1.86044 20.1621C1.83124 20.1231 1.79746 20.0803 1.74854 20.0244C1.74902 20.0365 1.7915 20.0873 1.86044 20.1621Z" fill="white"/>
<path d="M8.66826 27.2389C8.66299 27.2327 8.65996 27.2291 8.65576 27.2242C8.6459 27.2167 8.63506 27.2084 8.62451 27.2002L8.66826 27.2389Z" fill="white"/>
<path d="M13.6035 32.1338C13.6384 32.1646 13.6701 32.1928 13.7075 32.2261C13.6601 32.1809 13.6295 32.1547 13.6035 32.1338Z" fill="white"/>
<path d="M13.5532 31.752C13.59 31.7858 13.6256 31.8178 13.6544 31.8415L13.5532 31.752Z" fill="white"/>
<path d="M19.053 34.4641L18.8381 34.2661C18.9406 34.3666 19.0043 34.4239 19.053 34.4641Z" fill="white"/>
<path d="M14.0613 32.3366C14.0759 32.3459 14.0907 32.3552 14.1012 32.3606C14.0709 32.3339 14.0539 32.3238 14.0613 32.3366Z" fill="white"/>
<path d="M13.3924 5.1123C13.3878 5.11709 13.3829 5.12226 13.3801 5.125L13.3818 5.13711L13.3924 5.1123Z" fill="white"/>
<path d="M13.8091 4.52499C13.8667 4.46425 13.9267 4.40097 13.9856 4.33887C13.918 4.40585 13.8541 4.47323 13.8091 4.52499Z" fill="white"/>
<path d="M1.77002 16.4168C1.8331 16.3706 1.97147 16.2525 1.92128 16.322C2.01366 16.2052 1.97704 16.1825 1.77002 16.4168Z" fill="white"/>
<path d="M12.7527 6.48485C12.7777 6.44413 12.8125 6.39716 12.8477 6.3501C12.7797 6.43505 12.7198 6.50907 12.7527 6.48485Z" fill="white"/>
<path d="M12.8477 6.35019C12.881 6.308 12.9165 6.26289 12.9464 6.2251C12.9107 6.26816 12.8774 6.31044 12.8477 6.35019Z" fill="white"/>
<path d="M1.12815 18.1362C1.11907 18.1473 1.11644 18.165 1.11702 18.1894C1.1304 18.1813 1.12757 18.1627 1.12815 18.1362Z" fill="white"/>
<path d="M14.1415 4.20209C14.1602 4.15561 14.9183 3.33692 14.2481 3.99293C14.2301 3.92389 14.6533 3.54735 14.8195 3.35977C14.6809 3.47802 14.8555 3.26807 14.8011 3.29151C14.7186 3.38447 14.6269 3.50116 14.4787 3.64305C14.3922 3.68982 14.5987 3.45644 14.7778 3.2921C14.5434 3.48085 15.0119 2.98919 14.6948 3.2711C14.0701 3.92662 13.6334 4.39476 13.2466 4.90849C13.6011 4.53313 13.9963 4.11196 14.3131 3.83015L14.2249 3.99351C13.8536 4.29877 13.6695 4.53225 13.3332 4.86142L14.1005 4.13403C14.4819 3.8152 14.2548 4.0566 13.9857 4.33939C14.054 4.27182 14.1176 4.21264 14.1415 4.20209Z" fill="white"/>
<path d="M13.9675 5.03506L13.9811 5.02363C13.9908 5.01133 14.0035 4.99687 14.0088 4.98828L13.9675 5.03506Z" fill="white"/>
<path d="M18.331 35.2624L18.2524 35.2124C18.3125 35.2597 18.3335 35.2717 18.331 35.2624Z" fill="white"/>
<path d="M13.3397 5.29883L13.3402 5.29834C13.3356 5.30381 13.3343 5.30498 13.3397 5.29883Z" fill="white"/>
<path d="M17.8687 34.7686C17.8719 34.7699 17.8752 34.771 17.8804 34.7739C17.8734 34.7693 17.8725 34.7704 17.8687 34.7686Z" fill="white"/>
<path d="M16.6316 35.1514C16.6329 35.1562 16.6321 35.1586 16.6373 35.1673C16.6734 35.1993 16.6586 35.1811 16.6316 35.1514Z" fill="white"/>
<path d="M17.864 34.7707C17.8651 34.7695 17.8652 34.7673 17.8686 34.7684C17.8662 34.7683 17.8622 34.7669 17.864 34.7707Z" fill="white"/>
<path d="M9.95874 27.1416C9.95874 27.1416 9.97681 27.1726 10.0092 27.2175C10.0277 27.2289 10.0166 27.2099 9.95874 27.1416Z" fill="white"/>
<path d="M11.4363 28.7305C11.4446 28.7417 11.4496 28.7483 11.4601 28.7627L11.4363 28.7305Z" fill="white"/>
<path d="M1.23812 16.6104C1.16176 16.6856 1.10581 16.7435 1.05933 16.7932C1.11567 16.7388 1.17543 16.6788 1.23812 16.6104Z" fill="white"/>
<path d="M17.8804 34.7739C17.9004 34.7859 17.9272 34.8046 17.9699 34.8371C17.9231 34.8011 17.8971 34.7834 17.8804 34.7739Z" fill="white"/>
<path d="M7.4314 24.9937C7.44917 25.0085 7.46587 25.0226 7.48266 25.0366L7.45649 25.0067L7.4314 24.9937Z" fill="white"/>
<path d="M6.65873 24.1656C6.69027 24.1885 6.70726 24.1966 6.7264 24.2081C6.42525 23.9382 5.91757 23.3966 5.81543 23.3745C5.91327 23.4704 6.39225 23.9962 6.28327 23.934C6.49234 24.1231 6.75853 24.4453 6.87229 24.546C6.56733 24.1974 6.87073 24.477 7.1048 24.6842C7.29375 24.8965 7.03488 24.6785 7.2003 24.8588L7.66902 25.3186L7.26992 24.909L7.43124 24.9933C7.41493 24.9797 7.4038 24.9704 7.38632 24.9558C6.68422 24.2894 7.38446 24.8413 6.65873 24.1656Z" fill="white"/>
<path d="M6.72656 24.2085C6.77177 24.2489 6.8123 24.2836 6.8456 24.3087C6.78037 24.2447 6.75146 24.2236 6.72656 24.2085Z" fill="white"/>
<path d="M3.99442 21.3494C3.95751 21.3161 3.91748 21.2799 3.86719 21.2344C3.89121 21.2562 3.94677 21.3063 3.99442 21.3494Z" fill="white"/>
<path d="M13.3679 29.7422C13.3686 29.7655 13.744 30.1876 13.7663 30.1509C13.651 30.0295 13.535 29.9072 13.4184 29.7844L13.3679 29.7422Z" fill="white"/>
<path d="M4.93339 13.668C4.88818 13.7114 4.84326 13.7557 4.79912 13.8007C4.79131 13.8119 4.78369 13.8227 4.77783 13.8312C4.80928 13.8084 4.89179 13.715 4.93339 13.668Z" fill="white"/>
<path d="M6.14624 23.8247C6.22377 23.8933 6.26108 23.9212 6.28334 23.9341C6.23364 23.8891 6.18608 23.8492 6.14624 23.8247Z" fill="white"/>
<path d="M5.02856 13.7135C5.0936 13.6654 5.18978 13.5949 5.21293 13.5943C5.32894 13.4789 5.39465 13.3821 5.50695 13.2588C5.37825 13.396 5.22142 13.5469 5.02856 13.7135Z" fill="white"/>
<path d="M5.51592 13.2485C5.51279 13.2521 5.50967 13.2555 5.50684 13.2587L5.51592 13.2485Z" fill="white"/>
<path d="M13.1431 29.4924C13.1068 29.4602 13.0694 29.4269 13.031 29.3927L13.0941 29.44C13.0054 29.3453 12.9171 29.251 12.8288 29.1568C12.7939 29.1257 12.7562 29.0916 12.7111 29.0486C12.73 29.0653 12.7468 29.0759 12.7586 29.0812C12.73 29.0504 12.702 29.0201 12.6741 28.9899C12.4252 28.802 11.8593 28.281 11.6846 28.1421C11.464 27.9478 11.2027 27.7013 11.0459 27.5397C11.1928 27.688 11.3949 27.8778 11.3531 27.802C11.071 27.4848 10.9762 27.2884 10.4154 26.8149L10.7192 27.1175L9.97174 26.5012C9.76003 26.235 10.3448 26.8087 10.4631 26.8798C9.90036 26.3817 9.54569 25.8542 9.24298 25.6652C9.2421 25.5969 9.24015 25.4825 8.8888 25.1378C9.10129 25.4273 8.65542 24.954 8.82015 25.2009C8.68061 25.0999 8.44401 24.8004 8.39879 24.8057L8.44537 24.8243C7.90449 24.1766 7.62629 24.0657 7.34457 23.839C6.61923 23.1412 6.31436 22.7926 5.72837 22.2178C5.72817 22.1725 5.63228 21.9523 5.39704 21.7219C5.25828 21.6442 4.71896 21.1332 4.62619 21.1188C5.02607 21.5513 4.99961 21.4265 5.25789 21.6665C5.42429 21.9149 5.23611 21.7257 5.49489 22.0336C5.28221 21.789 4.44037 21.022 4.22847 20.733L4.32221 20.8161C3.94587 20.393 3.96628 20.2198 3.24181 19.6124L2.90004 19.3187C2.91928 19.3301 2.92562 19.3273 2.93724 19.332C2.67916 19.0698 2.59684 18.9631 2.5028 18.8546C2.47917 18.8273 2.45544 18.8005 2.42683 18.77C2.39607 18.7373 2.3614 18.7018 2.31941 18.6605C2.23524 18.5777 2.12285 18.473 1.94669 18.3144C2.00108 18.3634 1.97735 18.331 2.03164 18.3801C1.9625 18.3015 1.88985 18.2255 1.81388 18.1502C1.95245 18.0104 2.07685 17.8709 2.19852 17.7327C2.26043 17.6623 2.32029 17.5942 2.37752 17.5293C2.43025 17.4704 2.48044 17.4143 2.52751 17.3618C2.71118 17.2433 2.52379 17.4297 2.45397 17.5468C3.04241 16.9836 3.60781 16.3062 3.92556 15.9089L4.31586 15.5568C4.10924 15.7904 3.87458 16.0939 3.96149 16.0464C4.15904 15.8358 4.10416 15.8598 4.39906 15.5774C4.37074 15.6475 4.26899 15.7882 4.15962 15.9502C4.79161 15.3881 4.219 15.7427 4.7009 15.3889C4.88897 15.2017 4.96738 15.0622 4.9627 15.0165L5.33552 14.7096C5.34119 14.6397 5.75883 14.2183 6.02893 13.9386C6.04876 13.8912 5.77338 14.1257 5.6815 14.2423C5.67681 14.1965 5.95745 13.8922 6.14602 13.7045C6.28233 13.7029 7.36791 12.4631 7.22495 12.7648C8.04804 11.8979 9.22833 10.7039 9.75788 10.1181C9.96041 9.9528 10.3362 9.5789 10.1431 9.83523C10.8236 9.1553 11.1054 8.7353 11.7989 8.07861C11.8631 8.03115 11.4943 8.38445 11.5407 8.38289C11.955 7.91466 12.3722 7.60852 13.0389 6.90584C12.9249 7.02224 12.9052 7.06969 12.8962 7.09274C12.8731 7.09362 13.1536 6.78905 13.3199 6.60107C13.4252 6.50733 13.1954 6.74169 13.2598 6.69443C14.6152 5.40447 15.5313 4.30523 16.8499 2.99272C16.4735 3.3675 16.3759 3.55411 16.3903 3.57637L16.7591 3.20921C16.8786 3.04506 17.1551 2.76881 17.3694 2.52107C17.4062 2.50105 17.5276 2.39764 17.4235 2.52293C17.8096 2.18203 18.0731 1.87775 18.3544 1.55024C18.4249 1.4686 18.4966 1.3854 18.5709 1.29937L18.5985 1.26735L18.6151 1.24166C18.6263 1.22497 18.6395 1.20944 18.6451 1.18942C18.6631 1.15339 18.6721 1.11286 18.6756 1.07205C18.6786 1.03103 18.6746 0.988556 18.6618 0.948226C18.6542 0.929282 18.6496 0.904186 18.64 0.894519C18.6361 0.887879 18.633 0.880848 18.6302 0.873328L18.6282 0.86747L18.6199 0.857607L18.6033 0.837784L18.5698 0.797552L18.5656 0.792475L18.565 0.791791C18.5884 0.817571 18.5712 0.798822 18.5763 0.804486L18.5754 0.8039L18.5736 0.80263L18.5668 0.797552L18.5532 0.787104L18.5268 0.764547C18.5163 0.759664 18.5059 0.754391 18.4957 0.748727C18.4736 0.733494 18.4577 0.733202 18.4416 0.724706C18.4378 0.719531 18.4168 0.71748 18.3971 0.715429C18.3778 0.713086 18.3584 0.71084 18.3389 0.708496C18.3389 0.708496 18.3628 0.708789 18.4047 0.709277C18.4136 0.709765 18.4302 0.708691 18.4358 0.710546C18.4419 0.712402 18.4484 0.713965 18.4556 0.715234C18.4629 0.716503 18.4709 0.717285 18.4799 0.717871C18.4901 0.721972 18.501 0.726268 18.5123 0.73076C18.537 0.736912 18.5591 0.752438 18.5837 0.76855L18.5932 0.774409L18.5982 0.777339L18.6007 0.778804L18.6012 0.779194L18.6015 0.77939C18.61 0.788666 18.5904 0.766891 18.5925 0.769234L18.5939 0.770601L18.6162 0.793647C18.631 0.809173 18.6464 0.824894 18.6618 0.841006C18.6887 0.87909 18.7269 0.949398 18.7356 1.024C18.7413 1.09851 18.7278 1.17614 18.6953 1.24342C18.6746 1.27545 18.6591 1.30367 18.632 1.3359C18.6055 1.36724 18.5804 1.39693 18.5572 1.42437C18.4644 1.53393 18.4026 1.60707 18.4026 1.60707L18.7009 1.37134L18.2676 1.88664C18.5742 1.62416 18.7684 1.33716 18.8283 1.30035C18.8218 1.32428 18.8031 1.35064 18.7817 1.37906C18.7711 1.39322 18.7599 1.40786 18.7488 1.42261C18.738 1.43472 18.7272 1.44683 18.7168 1.45845C18.6754 1.50522 18.642 1.54623 18.6489 1.55766C18.7206 1.49096 18.7718 1.44858 18.8202 1.38355C18.845 1.35572 18.8591 1.32545 18.8721 1.29732C18.8851 1.2693 18.8981 1.2441 18.9024 1.21657C18.908 1.19001 18.9133 1.16413 18.9189 1.13786C18.9195 1.1113 18.9202 1.08415 18.9208 1.05505C18.9234 1.02635 18.916 0.995977 18.9115 0.962678C18.9086 0.928891 18.8972 0.893933 18.8835 0.854873C18.9311 0.953109 18.949 1.08601 18.91 1.22067C18.8909 1.28707 18.8603 1.35591 18.8125 1.41499C18.8014 1.42954 18.7888 1.44741 18.7783 1.45942L18.7469 1.49487C18.7257 1.5186 18.7044 1.54252 18.6828 1.56674C18.509 1.76018 18.3154 1.9674 18.1193 2.17383C17.7252 2.58474 17.3277 2.99926 17.0493 3.28957C16.9652 3.38439 17.1093 3.19642 17.118 3.17357C16.8884 3.40783 16.7277 3.52559 16.4477 3.82948C16.2954 4.03982 16.6074 3.7125 16.7544 3.57159C16.7599 3.6167 16.6859 3.68759 16.5295 3.85165C16.461 3.85272 15.6377 4.71956 15.39 4.88498C14.5443 5.75191 15.6142 4.83527 14.7636 5.6566L14.4753 5.86772C14.0199 6.38283 13.4187 7.03698 12.8613 7.57796L12.9757 7.46098C13.0363 7.36743 12.8988 7.48461 12.8339 7.53255C12.4024 7.93106 12.0764 8.35076 11.7863 8.56364C11.3539 9.07796 10.5951 9.89744 10.0751 10.4598C9.87829 10.555 10.738 9.71073 10.9314 9.45371L10.439 9.94655C10.7429 9.6414 10.8438 9.50176 10.9974 9.29025C10.5562 9.71258 10.4587 9.899 10.0624 10.3212C10.0804 10.2756 10.0172 10.3217 9.828 10.5102L9.80818 10.5976C9.80193 10.5983 9.77849 10.6166 9.71804 10.6728L9.01047 11.4216C9.17941 11.2816 9.21632 11.3035 9.40478 11.1158C9.31797 11.1633 9.47363 10.9998 9.66238 10.812C9.51952 10.9991 9.86462 10.6471 9.87877 10.6693C9.50048 11.0458 9.04123 11.5141 8.80306 11.7707L8.69155 11.8201C8.32399 12.1719 7.96152 12.5691 7.70851 12.804L7.76886 12.7105C7.32777 13.1326 6.92292 13.5776 6.50937 13.9304C6.15998 14.3509 5.70493 14.8651 5.42751 15.2168C5.29939 15.4252 4.24761 16.2959 3.87019 16.7864C3.8366 16.8113 4.13804 16.4581 4.27095 16.2949C3.97604 16.5774 3.79646 16.8567 3.66376 16.905C4.32582 16.2713 3.59521 16.9061 3.87507 16.6023C3.57255 16.9063 3.26037 17.2338 3.12668 17.3977C3.61718 16.9064 3.01068 17.6304 3.48926 17.115C3.32286 17.3152 3.11995 17.5423 2.90209 17.7733C2.83247 17.8465 2.76148 17.9213 2.69068 17.9957C2.63902 18.0482 2.5858 18.0992 2.52946 18.1503C2.53932 18.1613 2.5485 18.1718 2.55768 18.182C2.52116 18.182 2.5319 18.2098 2.6109 18.3038C2.61275 18.3057 2.71831 18.3584 2.71646 18.3564C2.76518 18.41 2.70718 18.3676 2.65582 18.3331C2.60553 18.2995 2.56178 18.2738 2.67535 18.3968C2.71665 18.4268 2.73628 18.4387 2.81938 18.5167C2.8893 18.5815 2.96283 18.6525 3.03802 18.7266C3.18684 18.8766 3.34581 19.037 3.49707 19.1893C3.799 19.4945 4.07457 19.7636 4.21372 19.8191C4.51966 20.1912 3.53525 19.2075 4.00563 19.7589C3.67821 19.4919 3.30285 19.0473 3.16311 18.9911C3.46631 19.2704 3.2342 19.1328 3.42168 19.3211L3.77235 19.6202L3.70204 19.5468C4.28657 20.0526 5.13153 20.9353 5.83441 21.6248C6.46621 22.1724 6.93297 22.5177 7.63576 23.2297C7.40228 23.0455 8.19949 23.8409 7.709 23.4408C8.01454 23.7899 8.36354 24.0872 8.38815 24.0755C8.10643 23.7812 8.29275 23.9683 8.05907 23.7167C8.2449 23.8584 8.62134 24.2368 8.76196 24.4063C8.69174 24.3329 8.71479 24.3644 8.69204 24.3555C9.02102 24.7142 8.87884 24.4983 9.13654 24.7376C9.18439 24.8473 9.67693 25.2945 9.88786 25.5374L10.261 25.8224C10.0512 25.6705 10.5656 26.1482 10.5908 26.2268C10.8473 26.4423 11.081 26.6042 11.4326 26.9714C11.269 26.8381 11.7385 27.3211 11.7154 27.3567C12.3025 28.0002 12.8146 28.2955 13.3552 28.9205C13.3302 28.9093 13.1933 28.811 13.3563 28.9887C13.4987 29.1146 13.7301 29.353 13.8768 29.4934L13.8715 29.4897C13.8745 29.4921 13.8766 29.4937 13.8798 29.4963C13.9516 29.5651 13.9996 29.6056 14.0084 29.6001C14.2829 29.8171 14.439 29.9143 14.947 30.3734C14.9451 30.3043 14.5239 29.9091 14.3362 29.7432L14.1503 29.6236C14.0551 29.4267 13.7053 29.1963 13.6112 29.068C13.9609 29.2985 14.7817 30.1485 15.3194 30.6131C15.0609 30.2606 14.4035 29.5885 13.8178 29.0142L14.053 29.2899L13.7489 28.987L14.0068 29.3166C13.7256 29.0228 13.4679 28.7835 13.2102 28.5217C13.5151 28.8251 13.587 28.9901 13.4224 28.8106C13.1164 28.4386 13.0475 28.479 12.7904 28.2179C12.9316 28.3653 13.1186 28.5534 12.9785 28.4518C12.508 27.9004 12.3437 27.7888 11.9223 27.2809C11.9238 27.3947 11.3362 26.706 11.2205 26.6825L11.4314 26.9028L10.9401 26.4794C10.5639 26.0117 11.3604 26.8064 10.7507 26.1319C10.1638 25.5337 10.1202 25.608 9.64998 25.1465C9.83679 25.2667 10.2347 25.6076 10.6096 25.9845L10.3981 25.7408C10.5378 25.8419 11.0537 26.3659 11.3112 26.6274C10.8442 26.2368 11.5002 26.8398 11.6653 27.0648C11.7333 27.0684 11.453 26.7982 11.8038 27.0974C11.4988 26.7935 11.4515 26.7516 11.0764 26.3521C11.8991 27.2041 11.9409 26.9933 12.6449 27.7511C12.2934 27.4288 12.7159 27.9151 12.7408 27.9712C12.9032 28.1259 13.2324 28.4399 13.3727 28.564L13.2995 28.3978C13.7453 28.8035 13.7948 29.05 14.3342 29.4934C14.4258 29.5294 13.9114 29.0517 14.0053 29.1347C14.7069 29.7779 14.874 30.095 15.4361 30.7271C15.4838 30.7469 15.5063 30.7105 15.7397 30.8947C15.6463 30.857 15.7865 31.0258 15.531 30.8113C15.7189 31.0227 15.9758 31.2387 16.1628 31.4039C15.7636 30.9719 16.373 31.5338 16.4662 31.5935C16.6768 31.8136 16.3728 31.5558 16.2323 31.4315C16.3976 31.6118 16.5618 31.8583 16.7018 31.9145C16.6792 31.9508 16.1414 31.5089 15.8133 31.1961L16.0246 31.4168C15.8608 31.2831 15.8372 31.251 15.6274 31.0321C15.8145 31.2648 15.7686 31.2692 15.6988 31.2412C15.6756 31.2095 15.7211 31.2496 15.699 31.2191C15.5339 31.039 15.3933 30.9146 15.4178 30.9703C15.223 30.8544 15.6325 31.2344 15.7298 31.371C15.8208 31.4567 15.9118 31.5426 16.001 31.6266L17.0247 32.3966C17.4226 32.765 17.5645 32.9677 17.8332 33.2746L17.9461 33.3197C18.276 33.6566 18.5799 33.982 18.3232 33.8112C18.3225 33.7879 18.2759 33.7465 18.2051 33.6725C18.1908 33.6675 18.1709 33.6542 18.1472 33.6357C18.1382 33.6307 18.1324 33.629 18.1248 33.6252C18.4932 33.9707 18.7234 34.1864 18.7447 34.2063C18.0892 33.6493 18.6529 34.2375 18.4912 34.1962C18.4912 34.1962 18.6492 34.3444 18.8072 34.4926C18.8466 34.5297 18.8862 34.5667 18.9232 34.6014C18.9417 34.6187 18.9596 34.6355 18.9766 34.6515C19.0013 34.6794 19.0247 34.7057 19.0462 34.7301C19.0529 34.7377 19.0593 34.745 19.0654 34.752C19.0673 34.7537 19.0735 34.7626 19.079 34.7709C19.0845 34.779 19.0896 34.7868 19.0947 34.7944C19.1146 34.8253 19.1309 34.8534 19.1436 34.8766C19.1693 34.9236 19.1808 34.9507 19.1794 34.9493C19.1544 34.8852 19.121 34.825 19.0927 34.7774C19.0866 34.7673 19.0759 34.7499 19.0737 34.7471C19.0703 34.7424 19.0672 34.7379 19.064 34.7335C19.0578 34.7247 19.0523 34.7166 19.0471 34.7093C19.0372 34.6943 19.0291 34.6822 19.0228 34.6725L19.0206 34.669L19.0204 34.6685L19.0203 34.6683L18.9923 34.6374L18.9916 34.6366L18.9905 34.635L18.9864 34.6294C18.984 34.6259 18.982 34.6229 18.9802 34.6205C18.9742 34.6105 18.9756 34.6085 18.9829 34.6124C18.9865 34.6143 18.9915 34.6178 18.9977 34.6225L19.0027 34.6262L19.003 34.6264L19.0322 34.6586L19.0328 34.6592L19.034 34.6603L19.0365 34.6627C19.0398 34.666 19.0434 34.6695 19.0472 34.6733C19.0629 34.6894 19.0805 34.7071 19.1027 34.7322C19.1434 34.7886 19.1854 34.8576 19.2179 34.9271C19.2398 34.9861 19.2606 35.0472 19.2741 35.1045C19.2837 35.1627 19.2899 35.2171 19.2939 35.2616C19.2898 35.274 19.2823 35.3037 19.2756 35.3473C19.2678 35.3908 19.2628 35.4482 19.2405 35.5133C19.2305 35.546 19.2192 35.5812 19.2064 35.6179C19.19 35.6531 19.1712 35.6902 19.1507 35.7281C19.1316 35.7672 19.106 35.8035 19.0767 35.8394C19.0622 35.8573 19.0474 35.8754 19.0325 35.8939L19.0093 35.9209L19.0064 35.9243L18.9719 35.9554L18.9683 35.9584L18.9611 35.9646C18.9416 35.9815 18.9217 35.9987 18.9017 36.0159C18.8607 36.0462 18.7996 36.0835 18.7453 36.1113L18.7029 36.1321L18.6671 36.1449L18.5944 36.1681C18.5461 36.1847 18.4967 36.1923 18.4472 36.1971C18.3489 36.212 18.2522 36.2004 18.1644 36.1868C18.0774 36.1647 17.9972 36.1416 17.9342 36.1039L17.9767 36.1142C17.9184 36.0818 17.852 36.0498 17.7948 35.9977C17.7656 35.9735 17.7338 35.946 17.7065 35.9203C17.6914 35.9046 17.676 35.8885 17.6602 35.872C17.5961 35.807 17.5266 35.7365 17.4555 35.6647C17.312 35.5222 17.1598 35.3761 17.0312 35.2567C17.0312 35.2793 16.6578 35.0166 16.4717 34.897C16.8846 35.3352 16.6185 35.0962 16.6316 35.1513C16.5895 35.1054 16.5108 35.0258 16.4972 35.021C16.4267 34.9697 16.5671 35.1165 16.5679 35.1396C16.8018 35.3579 17.0364 35.5821 17.2413 35.7691C17.3438 35.8626 17.4388 35.9467 17.5228 36.016C17.5486 36.0369 17.5733 36.057 17.5968 36.0761C17.6405 36.1109 17.6838 36.142 17.725 36.1689C17.8095 36.2203 17.8934 36.2512 17.9614 36.2722C17.8663 36.2207 17.7764 36.1749 17.7034 36.1131C17.6672 36.085 17.625 36.0506 17.5969 36.0264L17.5471 35.9847C17.4799 35.9295 17.4097 35.873 17.3391 35.7882C17.4031 35.8362 17.4687 35.8908 17.5371 35.9515C17.554 35.9667 17.5713 35.9822 17.5888 35.998L17.6202 36.0265C17.64 36.043 17.6599 36.0597 17.68 36.0765C17.7594 36.1455 17.8558 36.1972 17.9582 36.2432C18.1668 36.3251 18.414 36.3464 18.6572 36.2733C18.6876 36.2642 18.7179 36.2544 18.7482 36.2437C18.785 36.2274 18.8223 36.2088 18.8588 36.1885C18.8954 36.168 18.9312 36.1458 18.9658 36.1222L18.9776 36.114L18.9821 36.1103L18.9912 36.103L19.0094 36.0884L19.0462 36.0585L19.0508 36.0548L19.0532 36.0528L19.0965 36.0136L19.0986 36.0113L19.1158 35.9923L19.1494 35.9532C19.1941 35.9002 19.2376 35.8456 19.2697 35.781C19.2697 35.781 19.2828 35.7612 19.3025 35.7316C19.3225 35.7018 19.3469 35.6609 19.3647 35.6164C19.384 35.5726 19.4016 35.5273 19.4139 35.4929C19.4254 35.4584 19.4296 35.4345 19.4296 35.4345C19.4296 35.4345 19.4314 35.416 19.4344 35.3836C19.436 35.3511 19.442 35.3047 19.4385 35.2495C19.4342 35.1943 19.4277 35.1292 19.4149 35.0615C19.3961 34.9929 19.3775 34.9265 19.3453 34.8514C19.3249 34.809 19.3021 34.7671 19.2777 34.7273C19.2655 34.7074 19.2529 34.6881 19.2402 34.6692L19.2208 34.6417C19.2129 34.6305 19.2142 34.6335 19.2104 34.6287C19.1896 34.6053 19.1701 34.5833 19.1535 34.5645C19.1392 34.5488 19.1251 34.5332 19.1111 34.5178L19.1077 34.5147L19.1014 34.5087C19.0971 34.5049 19.0932 34.5012 19.0894 34.4978C19.082 34.4909 19.0753 34.4848 19.0701 34.4798C19.0593 34.4698 19.0532 34.4643 19.0532 34.4643C19.0747 34.4821 19.0926 34.4958 19.1081 34.5068L19.1138 34.5108L19.1166 34.5129L19.1567 34.557L19.157 34.5573L19.1576 34.5578L19.1589 34.5589L19.1687 34.5669C19.175 34.5718 19.181 34.5764 19.1867 34.5807C19.1983 34.589 19.2088 34.5963 19.2197 34.6041C19.2251 34.6079 19.2307 34.6119 19.2365 34.6161C19.2445 34.6235 19.2617 34.6457 19.2748 34.6627C19.3032 34.7001 19.3349 34.7463 19.3684 34.8072C19.3763 34.8223 19.3846 34.8384 19.3933 34.8551C19.3988 34.869 19.4045 34.8835 19.4107 34.8987C19.4224 34.9295 19.4344 34.964 19.4461 35.0026C19.4859 35.1543 19.5286 35.3911 19.4097 35.7007C19.4297 35.6651 19.4768 35.5689 19.4954 35.4269C19.5037 35.3555 19.5129 35.2739 19.5016 35.1848C19.4972 35.1403 19.4922 35.0938 19.483 35.0468C19.4713 35.0002 19.4571 34.9521 19.4409 34.9038C19.4218 34.8229 19.318 34.6469 19.2643 34.5816L19.2182 34.5285L19.1624 34.4663L19.1495 34.454L19.1238 34.4295C19.0553 34.3638 18.9879 34.2972 18.9295 34.2342L18.7677 34.1475C18.8365 34.1743 18.3206 33.6504 18.7186 33.9912C18.7186 33.9912 18.8765 34.1338 19.0344 34.2764C19.074 34.312 19.1135 34.3476 19.1504 34.3811C19.1597 34.3894 19.1688 34.3977 19.1777 34.4057L19.1909 34.4176L19.1973 34.4234L19.2005 34.4264L19.2013 34.4271L19.2499 34.4808L19.2514 34.4824C19.2667 34.4993 19.2813 34.5153 19.2947 34.5301C19.3013 34.5375 19.3077 34.5445 19.3138 34.5514L19.316 34.5538L19.3223 34.5623L19.3345 34.5792C19.3423 34.5905 19.3499 34.6016 19.3572 34.6123C19.3863 34.6557 19.4097 34.6955 19.4278 34.7285C19.4643 34.7957 19.4797 34.8339 19.4781 34.8311C19.4801 34.8342 19.465 34.7902 19.4339 34.7238C19.4186 34.691 19.3993 34.6529 19.3766 34.6135C19.3649 34.5941 19.3527 34.574 19.3404 34.5536L19.3289 34.5352L19.3232 34.5256C19.308 34.4998 19.2928 34.4741 19.2815 34.4548L19.2813 34.4545L19.2305 34.3983L19.2302 34.398L19.2295 34.3971L19.2283 34.3954L19.226 34.3923L19.2218 34.3863C19.2191 34.3827 19.2167 34.3795 19.2148 34.3769C19.211 34.3715 19.2087 34.3686 19.2087 34.3686C19.2087 34.3686 19.2167 34.3764 19.2309 34.3901L19.2335 34.3927C19.2511 34.412 19.2689 34.4317 19.2873 34.4521L19.2928 34.4585C19.2966 34.463 19.3007 34.468 19.3052 34.4731C19.314 34.4836 19.3238 34.4954 19.3348 34.5083L19.3431 34.5182L19.3474 34.5232C19.3482 34.5241 19.3502 34.5267 19.3557 34.5344C19.3733 34.5588 19.3908 34.585 19.4082 34.6125C19.4428 34.6675 19.4761 34.7285 19.5052 34.7924C19.5278 34.8477 19.5427 34.897 19.559 34.9529C19.5661 34.9802 19.5733 35.0079 19.5807 35.0356C19.5853 35.0635 19.5892 35.0919 19.5926 35.1205C19.6285 35.3491 19.577 35.58 19.5169 35.7414C19.4823 35.8207 19.4474 35.885 19.4224 35.9288C19.3982 35.9734 19.3793 35.9951 19.3793 35.9951C19.3793 35.9951 19.3829 35.9893 19.3895 35.9795C19.3961 35.9697 19.4045 35.9551 19.4135 35.9366C19.4319 35.9001 19.4554 35.8505 19.4761 35.8004C19.4984 35.7509 19.5125 35.6992 19.5218 35.6599C19.5309 35.6207 19.5368 35.5946 19.5368 35.5946C19.5251 35.6385 19.5121 35.681 19.4983 35.7216C19.4834 35.7618 19.4639 35.7994 19.4459 35.8361C19.4274 35.8728 19.4081 35.9077 19.3886 35.941C19.3682 35.9735 19.3448 36.0026 19.3227 36.0315C19.3002 36.0601 19.2776 36.0873 19.2551 36.1131L19.2382 36.132L19.2297 36.1414L19.2277 36.1436L19.2266 36.1448L19.1703 36.1957L19.1684 36.1973L19.1535 36.2097C19.1336 36.2261 19.115 36.2413 19.0976 36.2557C18.9983 36.3294 18.8482 36.4095 18.7717 36.4302C18.6881 36.4557 18.6149 36.4773 18.5501 36.4832C18.4197 36.4975 18.3282 36.4938 18.2567 36.4798C18.1854 36.4669 18.1337 36.4569 18.0843 36.4362C18.0347 36.4173 17.9854 36.3971 17.9204 36.3692C17.8584 36.3357 17.7753 36.2964 17.6748 36.2219C17.6501 36.2025 17.624 36.1812 17.5962 36.1577C17.5826 36.1457 17.5685 36.1334 17.5538 36.1206L17.5319 36.1007L17.5217 36.0905C17.4966 36.0661 17.4681 36.0383 17.4355 36.0064C17.3694 35.9435 17.2853 35.866 17.177 35.7688C16.8743 35.5571 16.593 35.2855 16.1004 34.7708C16.475 35.125 16.17 34.7761 16.3335 34.8868C15.9808 34.4961 15.8178 34.4082 15.6072 34.2331C15.5365 34.1144 15.4889 34.0275 15.8173 34.363C15.9093 34.3541 15.3719 33.9349 15.3934 33.8527C14.292 32.7543 14.3446 33.1388 13.1236 31.7882L13.1927 31.8155C12.3502 31.025 11.9041 30.529 11.1316 29.7894L10.5895 29.1409C10.7308 29.2658 11.1285 29.584 10.9871 29.3913C11.2228 29.7347 11.549 30.0231 11.8321 30.3639C11.8779 30.3819 11.7609 30.2447 11.7142 30.1808C11.9021 30.3695 11.9724 30.4881 12.2304 30.7275C12.2294 30.7044 11.9716 30.4198 12.1825 30.6177L12.4877 30.9891C12.9561 31.426 12.7899 31.1327 13.3063 31.6796C13.178 31.6102 12.9334 31.4511 12.7204 31.2524C12.9569 31.5018 12.3787 30.9463 12.5827 31.1857C12.9764 31.4919 13.1107 31.6956 13.6034 32.1335C13.5427 32.0849 13.5197 32.079 13.4025 31.9672L14.0592 32.6609C13.9178 32.4682 14.6451 33.1905 14.6203 33.0896C13.9165 32.3543 14.105 32.5888 13.3066 31.7472C13.5473 31.9708 13.8853 32.2314 14.0612 32.336C14.0669 32.3446 14.0775 32.3577 14.102 32.3835C14.265 32.4711 14.1473 32.3333 14.2156 32.27C13.7944 31.9425 13.5828 31.6537 13.1144 31.2392C12.9954 31.1922 13.3245 31.5413 13.5533 31.7514L13.1405 31.3863L13.2336 31.4463L12.2586 30.4471C12.4475 30.6323 12.532 30.6749 12.6453 30.7568C12.5193 30.628 12.4027 30.4923 12.279 30.3477C12.2729 30.4103 12.2308 30.4168 12.1071 30.292C11.4802 29.6486 11.158 29.2646 10.9629 28.991C10.9377 28.9675 10.9093 28.9408 10.8865 28.9195C10.9577 29.0612 10.3721 28.5318 10.1393 28.371C10.1855 28.3445 9.83386 28.0219 9.66941 27.8202C9.53017 27.7646 9.60243 27.9523 9.79118 28.2093C10.2589 28.6006 10.0704 28.4113 10.3276 28.5601L11.0526 29.2128L10.8652 29.0923C11.1944 29.4508 11.5687 29.7371 11.5002 29.7552C11.2895 29.6025 11.007 29.2849 10.7979 29.1337L11.0094 29.377C10.5654 29.0183 10.8447 29.1302 10.3291 28.6741C10.4709 28.8897 10.2825 28.6327 10.0497 28.4493C10.191 28.6421 10.9156 29.2943 10.7068 29.211C10.4269 28.9857 9.93033 28.2874 9.53368 28.0156L9.55712 28.0248C9.07209 27.5235 8.86292 27.386 8.65581 27.2239C8.46627 26.9939 8.14793 26.7326 7.91826 26.5075L7.94209 26.4948L7.61359 26.1815C7.79962 26.3011 7.98876 26.5584 8.26921 26.8293L8.26882 26.7612C8.54634 27.1191 8.81947 27.2699 9.09504 27.4872C8.70708 27.1579 8.09052 26.4662 7.94013 26.4481L7.75245 26.1921L7.634 26.0982C7.49436 25.9072 7.70343 26.0357 8.03163 26.3486C8.0787 26.4127 8.10233 26.4449 8.07841 26.4351C8.24236 26.5688 8.40524 26.679 8.75746 27.0469L8.54742 26.8728C8.99319 27.3234 9.41386 27.7179 9.60067 27.8381C8.9677 27.1769 8.33435 26.5374 7.72511 25.9314C7.46927 25.8287 7.21372 25.659 7.05123 25.6389C6.63036 25.2443 6.06702 24.7006 5.73901 24.3204L5.78559 24.3389C5.62007 24.1588 5.457 24.0033 5.31619 23.8787C5.15233 23.6775 5.47878 23.966 5.36169 23.8286L4.75382 23.2686C4.82208 23.2723 5.31365 23.7636 5.54928 23.9947C5.5025 23.9534 5.40827 23.8699 5.43249 23.9028C5.69067 24.1875 6.25118 24.6383 6.32335 24.8037C6.46367 24.9278 6.02024 24.5694 6.46562 25.0196C6.74793 25.3369 6.88737 25.3927 6.93268 25.4101C6.95582 25.3966 6.48711 24.9145 6.67411 25.0576C6.43848 24.8265 6.32198 24.7571 6.04114 24.4411C6.27462 24.6702 6.62577 24.9472 6.72059 25.0988C7.21196 25.522 7.23198 25.3707 7.02105 25.1504C7.04556 25.2286 6.15383 24.3493 6.71844 24.9839C6.41455 24.7491 5.9221 24.2572 5.5482 23.9264L5.57115 23.9355L5.12509 23.5066C5.19627 23.5586 5.33669 23.6827 5.35915 23.669L4.70431 23.1119C5.07821 23.4202 4.51565 22.8777 4.37494 22.708C4.28208 22.671 4.02506 22.4547 4.23608 22.6979C4.47113 22.9734 4.39984 22.8313 4.6341 23.0614L4.26137 22.7767L4.23745 22.7442L4.00348 22.5824C3.5583 22.1322 4.28286 22.6943 3.67391 22.1558L3.6995 22.2796C3.04251 21.6081 2.24481 20.6998 1.75275 20.2532C1.91016 20.3547 2.01211 20.367 1.86075 20.1623C2.05469 20.3731 2.46306 20.7781 2.75796 21.0636C2.80512 21.1281 2.33728 20.759 2.03252 20.4332C2.10488 20.6663 2.87426 21.1777 2.82983 21.2963C3.60478 22.1282 3.50762 21.8171 4.14175 22.5469C4.18755 22.5199 4.35336 22.723 4.42133 22.7268C4.27885 22.4655 3.50771 21.8172 3.08596 21.3538C3.13196 21.3945 3.22453 21.4763 3.24845 21.4863C2.94281 21.1593 2.80405 21.0367 2.56949 20.8292L2.59303 20.8614C2.17138 20.5107 2.38132 20.5952 2.17001 20.352C2.07656 20.2693 1.77111 19.9429 1.79523 20.0204L1.4183 19.5743L1.3975 19.6348C1.16305 19.4049 1.13902 19.3274 0.903883 19.1416L0.857793 19.1682L1.42162 19.7573C1.11754 19.4771 1.30532 19.7107 0.976632 19.3973C1.17584 19.5568 1.11744 19.4883 1.00905 19.3712C0.954856 19.3127 0.888161 19.2421 0.834942 19.1819C0.808381 19.1517 0.785043 19.1242 0.768442 19.102C0.759849 19.0907 0.75399 19.0817 0.748229 19.0725C0.739636 19.0605 0.734265 19.0513 0.732898 19.0458C0.677335 18.9958 0.621774 18.9459 0.569531 18.8935L0.460456 18.7784L0.405479 18.72C0.38712 18.7005 0.375402 18.678 0.359973 18.6569C0.359973 18.6569 0.38009 18.684 0.400304 18.7111C0.425107 18.7359 0.450006 18.7606 0.450006 18.7606C0.434968 18.7398 0.420713 18.7202 0.407042 18.7014C0.396398 18.6815 0.386242 18.6626 0.376477 18.6444C0.35724 18.6081 0.335756 18.5771 0.324819 18.5429C0.311051 18.5099 0.298162 18.4793 0.285565 18.4493C0.274531 18.4187 0.267402 18.3875 0.257734 18.3565C0.235666 18.295 0.229709 18.2274 0.220921 18.1469C0.22219 18.1066 0.224534 18.0627 0.228928 18.0141C0.235763 17.9659 0.250509 17.9143 0.264082 17.8562C0.249825 17.9062 0.235959 17.9545 0.222484 18.0018C0.214769 18.0504 0.208031 18.0982 0.20227 18.1454C0.201586 18.1926 0.203636 18.2394 0.205491 18.2858C0.209397 18.3319 0.220335 18.3767 0.227757 18.4222C0.24963 18.511 0.278827 18.5998 0.328531 18.6817C0.348159 18.7251 0.381944 18.7638 0.414462 18.8046C0.44737 18.845 0.481255 18.8866 0.516214 18.9295C0.57578 18.9872 0.638471 19.0478 0.705166 19.1124C0.747839 19.1515 0.789144 19.1877 0.836602 19.2284C0.80428 19.2006 0.767955 19.1695 0.726844 19.1342C0.712782 19.1228 0.668255 19.0808 0.632027 19.0471C0.593748 19.0113 0.55332 18.9734 0.510452 18.9333C0.425204 18.8354 0.32316 18.7331 0.260957 18.6137C0.20227 18.4917 0.157643 18.3603 0.145925 18.233C0.116239 17.9766 0.199438 17.7665 0.23713 17.6766C0.290057 17.5436 0.399619 17.4435 0.487894 17.3423C0.57451 17.248 0.683781 17.1279 0.722939 17.0985C0.832013 17.0006 0.941478 16.907 1.05973 16.7929C0.843926 17.0232 0.910524 17.0117 0.91609 17.0512C0.918824 17.0709 0.906324 17.1033 0.835626 17.185C0.787191 17.2387 0.721962 17.3111 0.633491 17.4093C0.580956 17.4661 0.521585 17.5302 0.454402 17.6028C0.425302 17.6411 0.402061 17.685 0.373059 17.7297C0.352552 17.7786 0.327554 17.8294 0.309977 17.8862C0.307927 17.85 0.366906 17.7053 0.409384 17.6604C0.323843 17.7347 0.222678 17.9538 0.248067 18.2104C0.256367 18.3382 0.305387 18.4665 0.365637 18.5809C0.430379 18.6928 0.529884 18.7839 0.607711 18.8678C0.674308 18.9268 0.734461 18.9799 0.785336 19.025C0.761217 18.9768 0.818927 19.0185 0.826934 19.0137C0.831914 19.0122 0.837676 19.0123 0.816682 18.9856C0.794417 18.9578 0.750475 18.9083 0.672356 18.8243C0.646088 18.7913 0.609372 18.7452 0.565722 18.6905C0.597361 18.7366 0.584959 18.7349 0.541016 18.6964C0.530177 18.6866 0.516604 18.675 0.502738 18.6605C0.490825 18.645 0.477447 18.6273 0.462604 18.6078C0.448543 18.5878 0.43077 18.567 0.41661 18.5418C0.404014 18.5155 0.390538 18.4876 0.376379 18.458C0.326479 18.3378 0.288298 18.1748 0.317007 18.005C0.344935 17.8354 0.419247 17.6695 0.553223 17.5494C0.553223 17.5494 0.550879 17.5809 0.548535 17.6125C0.545313 17.6428 0.547852 17.6734 0.549024 17.6739C0.545704 17.6723 0.5874 17.629 0.649213 17.564C0.709951 17.5002 0.790902 17.4153 0.871854 17.3303C0.992549 17.213 1.11324 17.0957 1.11324 17.0957L1.07145 17.143C1.28735 17.0008 1.5722 16.6278 1.92178 16.3217C2.13798 16.0646 3.06224 15.1729 2.61168 15.5036C2.94174 15.2452 3.15442 14.9413 3.46778 14.6126L3.04417 14.9894C3.47637 14.4753 3.36651 14.6379 3.68007 14.1941C3.73397 14.1715 3.83123 14.1 3.77088 14.1933C4.40961 13.5607 5.33357 12.669 5.65962 12.2492C6.11018 11.8037 6.24786 11.8008 6.85017 11.1456C6.97448 11.0052 6.69354 11.1953 7.12622 10.7955C7.15845 10.7718 6.76785 11.2388 7.2269 10.7706C7.51301 10.3964 8.02665 10.0196 8.41793 9.55185C8.6605 9.34103 9.04797 8.94154 9.0009 9.05833C8.63384 9.40958 8.1328 9.92507 8.07206 10.0193C8.10057 9.9487 7.7962 10.2544 8.04472 9.97351C7.47542 10.4901 7.71388 10.3475 7.20884 10.8165C7.18921 10.8641 7.49778 10.6047 7.58977 10.4878C7.63957 10.5331 6.65233 11.4712 7.14234 11.0953C7.66701 10.5789 7.72218 10.3251 8.22342 9.92419C8.07157 10.1339 7.76427 10.3922 7.58459 10.6719L7.97441 10.3204L8.20906 10.017L8.20008 10.04C8.89827 9.42891 8.75658 9.38536 9.31846 8.77583C8.94612 9.08216 9.31436 8.61481 9.03889 8.84985C9.42451 8.45202 9.71853 8.17079 9.76872 8.21571C9.07482 8.98734 9.77751 8.3077 9.14757 9.03255C9.27579 8.93842 9.05598 9.26349 9.46493 8.86508C9.8859 8.37625 9.28926 8.96146 9.72722 8.49216C9.75828 8.4696 9.7904 8.44607 9.78152 8.46892C9.96539 8.23553 10.0338 8.23436 10.259 7.9545L10.2086 8.02393C10.5488 7.74152 10.5164 7.65061 10.8159 7.4141C10.6734 7.48597 10.9669 7.20513 11.111 7.01696C10.826 7.27534 10.6282 7.37163 10.0952 7.91036C10.0584 8.00303 10.113 7.9794 9.90631 8.21308L10.2513 7.86124C10.1807 7.94092 10.1307 8.00547 10.0673 8.07998L9.71824 8.40007C10.1226 7.95587 9.89811 8.1206 10.0494 7.91124C10.4498 7.53519 10.362 7.58323 10.6152 7.34819C10.6318 7.41371 11.4339 6.66962 11.9073 6.24895C11.8373 6.31789 11.747 6.40675 11.6982 6.4547C11.3994 6.80526 11.9559 6.26545 11.9791 6.26467L12.1953 6.00756C12.1535 6.05492 12.1016 6.1261 12.2083 6.03099C12.521 5.70309 12.4618 5.68102 12.7739 5.3535C12.8206 5.35204 12.5844 5.6567 12.7951 5.4697C12.8834 5.42088 13.1541 5.25478 13.5591 4.80988C13.5806 4.77121 13.6859 4.65618 13.8099 4.52475C13.7934 4.54369 13.7719 4.56693 13.7655 4.5765L14.0724 4.3189C13.8705 4.59789 13.5679 4.78703 13.3649 5.06748L13.381 5.12461C13.193 5.31288 12.9534 5.58415 12.8548 5.72056C13.1478 5.44002 13.1987 5.37 13.5117 5.0417C13.5798 5.01993 13.3711 5.26298 13.341 5.29803L13.368 5.22929C12.9552 5.58141 12.8313 5.83618 12.3484 6.30549C12.2751 6.37589 12.3163 6.32931 12.3254 6.30637C11.9754 6.72724 11.5487 7.0568 11.2208 7.47816L11.3236 7.33677C11.0862 7.6094 10.6218 8.14257 10.1579 8.67535L10.168 8.69361C10.2319 8.64683 10.0443 8.83344 9.93815 8.92797L9.93844 8.92729C9.70506 9.19377 9.48075 9.44981 9.29747 9.65927C9.36904 9.60517 9.45683 9.53222 9.55116 9.442C9.61248 9.34708 10.0842 8.90287 9.98345 8.92768C10.218 8.73902 10.526 8.36521 10.6958 8.22421C10.3883 8.48288 10.857 7.99121 10.8857 7.92061C11.0049 7.84943 11.3034 7.49926 11.2987 7.56859C11.3629 7.52113 11.1382 7.68625 11.0371 7.82599C10.7706 8.15263 11.6065 7.30952 11.2657 7.70754C11.7128 7.21509 12.3419 6.60576 12.7967 6.09144L12.5123 6.34953C12.7324 6.1388 13.2351 5.62174 13.2888 5.59919C13.1325 5.76304 12.945 5.94975 12.7466 6.16097C12.7731 6.20735 13.2385 5.66861 13.2838 5.66832L13.8184 5.01329L13.5559 5.27177C13.6978 5.08555 14.2692 4.56761 14.678 4.16901C14.4962 4.45043 14.0702 4.77932 13.6654 5.22411C13.3758 5.55163 13.9041 5.08174 13.624 5.38563C13.7114 5.32157 13.9006 5.12969 13.9819 5.02315L14.1061 4.91701C13.891 5.22284 13.2969 5.79673 12.9471 6.22444C12.9764 6.18548 13.001 6.15061 13.0065 6.1346C12.6896 6.41632 12.3863 6.72109 12.1065 7.02487C12.2752 6.88475 12.3265 6.81405 12.4095 6.7205C12.4317 6.72069 12.161 7.00105 12.0693 7.11764C12.3539 6.85936 12.1466 7.09372 12.3259 6.92947C12.1599 7.11705 12.0135 7.25708 11.7933 7.46781C11.6645 7.56243 11.8621 7.3518 11.8169 7.35219C11.6085 7.58753 11.4534 7.63528 11.1547 7.98594C11.596 7.56341 11.0896 8.14853 10.9559 8.31239L11.03 8.24159C10.9192 8.40486 10.8041 8.52214 10.6855 8.59274C10.8514 8.40515 11.03 8.24159 10.9529 8.26512C10.8372 8.38308 10.722 8.50065 10.5978 8.64088L10.6986 8.50134L10.124 9.08724C10.0557 9.20275 9.93541 9.38946 9.88991 9.50469C9.72927 9.62255 9.55331 9.83426 9.42949 9.97448L9.48105 9.9032C9.20489 10.139 8.65229 10.7254 8.62515 10.7943C8.4236 10.9586 9.78493 9.36866 8.51158 10.6808C8.0204 11.1724 8.27214 11.0535 8.01474 11.357C8.01474 11.357 8.02372 11.3344 7.9915 11.3579C7.77159 11.5681 7.7754 11.615 7.6092 11.8026C7.74825 11.6837 7.93564 11.4973 7.98623 11.4275C7.94931 11.5201 7.53586 11.873 7.393 12.0597C7.56389 11.8029 6.9609 12.459 7.10484 12.271C6.6495 12.6711 6.22619 13.1624 6.03323 13.4187C5.68901 13.655 5.53141 13.9349 5.03535 14.3809C5.10936 14.3101 5.2327 14.1707 5.33972 14.0752C5.57398 13.7725 4.8336 14.5454 5.21571 14.1008C5.13261 14.1945 5.22762 14.1252 5.31287 14.0292C5.46755 13.8668 5.60181 13.7025 5.54635 13.7268L5.13222 14.0805L5.25799 13.9382L4.63352 14.4789C4.62453 14.5016 4.68781 14.4555 4.72004 14.4318C4.02594 15.0891 3.27667 15.885 2.67906 16.4714C2.67173 16.5752 2.31775 16.9499 1.91319 17.3659C1.81193 17.4697 1.70774 17.5765 1.60491 17.682C1.55355 17.7349 1.50257 17.7874 1.45228 17.8391C1.43285 17.8594 1.41362 17.8796 1.39467 17.8995L1.36196 17.9356C1.31919 17.9821 1.27876 18.0268 1.27046 18.0793C1.25982 18.1302 1.273 18.1779 1.29634 18.2091C1.26236 18.1769 1.23218 18.1433 1.20484 18.1248C1.17681 18.1063 1.14879 18.1034 1.12906 18.136C1.12633 18.0926 1.12506 18.0199 1.1691 17.9482C1.19049 17.9123 1.22115 17.877 1.25396 17.8378C1.27095 17.8182 1.28765 17.7998 1.30805 17.7788C1.33706 17.7493 1.36723 17.7197 1.39848 17.6904C1.45258 17.6672 1.76886 17.386 1.59436 17.596C2.25194 16.9165 1.46156 17.6443 1.62298 17.411C1.5597 17.4767 1.49857 17.5401 1.43959 17.6013C1.38325 17.6614 1.32885 17.7193 1.27612 17.7753C1.20669 17.8579 1.13131 17.9235 1.0983 18.0084C1.06579 18.093 1.07604 18.1848 1.11402 18.2562C1.15094 18.33 1.21988 18.3743 1.27495 18.4187C1.29917 18.4376 1.32309 18.4562 1.34673 18.4747C1.38461 18.5076 1.42221 18.5402 1.45961 18.5727C1.53441 18.6393 1.60852 18.7052 1.68352 18.7719L1.68391 18.7951L2.05849 19.1266C1.77638 18.8317 1.84532 18.7913 2.19803 19.1823L2.15009 19.1397C2.33924 19.3747 2.80757 19.7891 3.13528 20.124L3.39161 20.3171C3.71981 20.6525 3.67528 20.7256 3.74783 20.8687C4.26382 21.393 4.61243 21.645 5.01054 21.9858C5.15194 22.1786 5.92494 22.9637 5.48102 22.5819C5.97278 23.0285 6.01575 22.7962 6.74412 23.6771L6.51054 23.493C7.285 24.2572 8.43141 25.3051 8.7599 25.6856C8.38708 25.4908 9.63026 26.7371 9.67977 26.9611C9.6616 26.903 9.95728 27.1855 10.01 27.217C10.0631 27.2905 10.1586 27.4059 10.2886 27.4998C10.0061 27.1822 10.5901 27.6201 9.9814 27.0817C10.3315 27.3122 10.7522 27.6394 11.385 28.2782L11.3381 28.3057L10.8461 27.7915C10.87 27.8691 10.6131 27.6082 10.4946 27.5144C11.41 28.4707 10.2869 27.4771 11.2484 28.429C11.3644 28.4979 11.2948 28.4477 11.5528 28.6871C11.4346 28.5714 11.3884 28.5754 11.5764 28.7643L11.7865 28.9163C12.0599 29.3111 11.1939 28.4027 11.4363 28.7305C11.0383 28.3897 10.3831 27.7651 10.4559 27.9308C11.0424 28.551 11.0856 28.3865 11.6953 29.0384L11.7426 29.1255C11.978 29.3338 12.0458 29.3376 12.1867 29.4398C12.1864 29.4621 12.2343 29.5269 12.3736 29.6726C12.795 30.0004 13.0529 30.2399 13.4496 30.5344C12.4914 29.653 12.6988 29.7125 11.7152 28.7973C11.8791 28.9309 12.5586 29.5883 12.6499 29.579L12.6045 29.6067C12.9321 29.8964 13.2594 30.1862 13.6352 30.5858L13.378 30.3697C13.9172 30.8581 14.1769 31.2791 14.6429 31.624C14.503 31.4776 14.3856 31.3624 14.2917 31.2796C14.5724 31.5279 14.9006 31.8635 15.1819 32.157L15.8368 32.6916C15.8135 32.7045 16.1893 33.0825 15.9787 32.9296C16.3792 33.3855 16.6354 33.5332 16.8919 33.7715C17.2917 34.2487 16.4947 33.4089 16.4015 33.4162C16.9888 34.0371 17.6445 34.6624 18.0181 34.9705C17.9022 34.8399 17.8487 34.7737 17.8638 34.7712C17.8705 34.801 18.117 35.0415 18.2523 35.1775L18.3692 35.2471L18.3741 35.2528L18.3754 35.2541L18.3629 35.2667H18.3628L18.362 35.2672L18.3599 35.2692C18.3584 35.2708 18.3566 35.2731 18.3549 35.2758C18.3547 35.2763 18.3558 35.2739 18.355 35.2752C18.3529 35.2793 18.3558 35.2729 18.3543 35.2765C18.352 35.2828 18.3497 35.2881 18.3471 35.2908C18.346 35.2917 18.3413 35.2982 18.3395 35.2977C18.3385 35.2976 18.3372 35.2979 18.3352 35.2986L18.3318 35.2999C18.329 35.2986 18.3324 35.3054 18.3234 35.297C18.3277 35.3017 18.329 35.3027 18.3289 35.3019L18.3304 35.3021L18.3326 35.3031C18.3344 35.3032 18.3334 35.3077 18.336 35.3062C18.341 35.3027 18.3407 35.3093 18.3457 35.3038C18.3512 35.306 18.3573 35.2916 18.3594 35.2917C18.3595 35.2887 18.3595 35.2871 18.3599 35.2869C18.3588 35.2869 18.3638 35.287 18.3579 35.2877C18.3528 35.2885 18.3478 35.2901 18.3433 35.2925C18.3387 35.2949 18.3344 35.2981 18.3307 35.3019L18.3255 35.308C18.3249 35.309 18.3193 35.3158 18.326 35.3098L18.3744 35.2702L18.3988 35.2509L18.399 35.2507C18.3831 35.2651 18.4348 35.2184 18.3635 35.283V35.2829H18.3634V35.2827L18.3633 35.2825L18.3631 35.282L18.3632 35.2815C18.3635 35.281 18.3651 35.2817 18.3682 35.283C18.3682 35.2819 18.3755 35.2849 18.3812 35.2846C18.3851 35.2881 18.3809 35.288 18.3849 35.2927C18.3863 35.2963 18.3821 35.2967 18.3841 35.3024L18.3843 35.3034L18.3845 35.3038V35.304C18.3544 35.3311 18.4254 35.2671 18.418 35.2738L18.4177 35.2741L18.4164 35.2751L18.4067 35.2837L18.3873 35.3009L18.3481 35.3352L18.3437 35.3388L18.3451 35.3365L18.3481 35.3321C18.3503 35.3293 18.3528 35.3269 18.3557 35.3249C18.3606 35.3209 18.3692 35.3188 18.373 35.3185C18.3617 35.325 18.344 35.3237 18.3342 35.3174C18.3313 35.3164 18.3274 35.3166 18.3266 35.3121C18.3255 35.3108 18.324 35.3101 18.322 35.3099C18.3226 35.312 18.3165 35.3058 18.3108 35.2998L18.2944 35.2834C18.251 35.2401 18.2096 35.1989 18.171 35.1605C18.0936 35.0842 18.0264 35.0205 17.9737 34.9769C18.0731 35.0704 18.1586 35.1538 18.2341 35.2298C18.2528 35.249 18.2711 35.2676 18.289 35.2857L18.3151 35.3126C18.3189 35.3155 18.3188 35.3142 18.3204 35.3156C18.3228 35.3168 18.323 35.3213 18.3249 35.3235C18.3276 35.3239 18.3295 35.3254 18.3309 35.3284C18.3316 35.333 18.3352 35.3315 18.3372 35.3333C18.3396 35.3341 18.341 35.3396 18.3439 35.3399C18.3495 35.3387 18.3547 35.3493 18.361 35.3472C18.364 35.3479 18.3672 35.3496 18.371 35.3523C18.3739 35.3513 18.377 35.3513 18.3807 35.3522C18.3961 35.3539 18.3755 35.3577 18.3754 35.371L18.3748 35.376C18.3744 35.3782 18.3816 35.3718 18.3848 35.3701L18.409 35.3532L18.4336 35.336L18.4459 35.3273L18.4521 35.3229L18.4552 35.3208L18.4559 35.3203C18.4624 35.3144 18.4011 35.3699 18.4271 35.3463L18.4274 35.3459C18.4301 35.3426 18.4335 35.3398 18.4378 35.3375C18.443 35.3356 18.4477 35.333 18.449 35.3284C18.4674 35.3168 18.4716 35.2926 18.4757 35.2666C18.4789 35.2548 18.4712 35.2348 18.472 35.2292C18.4721 35.2313 18.4734 35.233 18.4758 35.234C18.4769 35.2346 18.4783 35.2349 18.4801 35.235C18.4821 35.2356 18.4849 35.236 18.4772 35.2275C18.4673 35.2153 18.4571 35.2028 18.4468 35.1901L18.4312 35.171L18.4233 35.1614L18.4213 35.1589L18.4208 35.1584C18.4693 35.2122 18.4339 35.1729 18.4446 35.1848L18.4434 35.1837L18.4389 35.1793C18.3434 35.0843 18.2347 34.9792 18.1088 34.8607C18.1081 34.8375 18.2956 34.9808 18.1076 34.7923C17.6626 34.3648 17.9448 34.727 17.7823 34.6171C17.9575 34.7777 18.0807 34.9007 18.1806 35.0116C18.2306 35.067 18.2747 35.1194 18.3167 35.1721L18.3785 35.2516C18.3648 35.2365 18.4093 35.2857 18.3479 35.2177L18.348 35.2178L18.3482 35.2182L18.3486 35.2189L18.3495 35.2203L18.3512 35.2229L18.3545 35.2284L18.361 35.2392L18.3742 35.261C18.3818 35.2747 18.3942 35.2928 18.398 35.3031C18.4031 35.3078 18.3741 35.2842 18.35 35.265C18.3436 35.2599 18.3373 35.2548 18.3314 35.2501L18.3228 35.2433L18.3208 35.2416L18.3198 35.2409H18.3197V35.2408C18.3345 35.2572 18.2865 35.2042 18.3529 35.2775L18.3527 35.2774L18.3524 35.2773L18.3519 35.2769L18.3479 35.2744C18.3378 35.2678 18.3309 35.2634 18.3309 35.2634C18.3273 35.2399 18.117 35.0285 18.0645 34.9566L17.971 34.9415C18.0394 34.9232 17.735 34.5528 17.4536 34.3038C17.6902 34.6032 17.6194 34.5293 17.6429 34.6515C17.2232 34.3253 17.2681 34.1849 16.8006 33.8164C16.8459 33.8337 17.2212 34.1883 16.9165 33.8623C16.6574 33.5995 16.6584 33.668 16.4726 33.5037C16.7059 33.6647 16.682 33.5873 16.9385 33.7581C17.4068 34.2173 17.1251 33.9456 17.5941 34.3832L17.241 33.969C17.6398 34.3561 17.568 34.2134 17.6142 34.2319C16.9799 33.5242 17.0537 33.7811 16.6315 33.3398C16.3986 33.1564 17.0306 33.7495 16.6791 33.4498C16.2807 33.0408 16.5635 33.3813 16.0948 32.9438L16.1871 33.003C16.0701 32.8431 15.9067 32.7325 15.7427 32.5759C15.5555 32.4106 15.817 32.901 15.0898 32.1787C15.1353 32.2042 15.1547 32.2107 15.1589 32.2066L16.1691 32.6105C15.4341 31.8768 14.5962 31.0221 13.7661 30.1515C13.6252 29.8919 14.422 30.7095 14.3966 30.6307L14.7725 31.0308C14.7256 31.0341 13.952 30.226 14.2579 30.6207C14.9609 31.2875 15.2428 31.6272 15.9444 32.2252C15.8019 31.9638 15.078 31.38 14.7013 30.9114C14.8749 31.0927 15.0313 31.236 15.1853 31.3731C14.7961 30.9683 14.3796 30.5352 13.937 30.0748L13.8211 29.9877C14.1188 30.2987 14.3243 30.5143 14.3493 30.5436C13.951 30.1348 13.5777 29.8274 13.5074 29.8441L13.5776 29.9173L13.4182 29.7851C13.3264 29.6868 13.2345 29.5894 13.1431 29.4924ZM16.7496 3.22171C16.7292 3.25042 16.7148 3.27463 16.7066 3.29495C16.7149 3.27376 16.6943 3.28616 16.7496 3.22171ZM16.6021 34.3817C16.8671 34.6549 17.1333 34.9291 17.3969 35.2008C17.5287 35.3368 17.6596 35.472 17.7896 35.6061L17.8869 35.7063C17.9004 35.7215 17.9252 35.7426 17.9484 35.7618C17.9723 35.7802 17.9934 35.8027 18.0204 35.8166C18.1231 35.8827 18.244 35.9122 18.3637 35.9153C18.256 35.9049 18.152 35.8773 18.0683 35.8204C18.0239 35.7964 17.9882 35.7626 17.9543 35.7288C17.9158 35.6941 17.9009 35.6684 17.8747 35.6388C17.781 35.5241 17.6946 35.4183 17.6188 35.3255C17.4685 35.139 17.3638 35.002 17.3341 34.9456C17.3046 34.8892 17.3501 34.9134 17.5001 35.0492C17.5753 35.117 17.6765 35.2128 17.8075 35.3404C17.8728 35.4044 17.9458 35.4762 18.0271 35.556C18.0475 35.578 18.0677 35.5927 18.0882 35.6093L18.1192 35.6347L18.1558 35.6534L18.1929 35.6732L18.2343 35.6852C18.2482 35.689 18.262 35.6944 18.2766 35.6973C18.2913 35.6987 18.3063 35.6999 18.3215 35.7014C18.322 35.7075 18.4474 35.6898 18.4459 35.6854C18.3846 35.6923 18.3096 35.6959 18.2342 35.667C18.1949 35.6581 18.16 35.633 18.1231 35.6118C18.1065 35.598 18.0897 35.5838 18.0725 35.5695C18.0549 35.5545 18.0353 35.5323 18.0163 35.5139C17.8626 35.3584 17.691 35.1894 17.5228 35.0273C17.374 34.909 17.0559 34.6621 16.7751 34.4473C16.6342 34.3405 16.5029 34.2413 16.4074 34.1691C16.3115 34.0978 16.2504 34.0544 16.2503 34.0592C16.321 34.1779 16.4852 34.2897 16.6499 34.4691L16.6021 34.3817ZM16.3632 33.8553C16.0678 33.5406 16.1182 33.6292 16.0538 33.5989C16.1632 33.7041 16.2726 33.8091 16.3808 33.913C16.3445 33.8681 16.3306 33.842 16.3632 33.8553ZM16.0548 33.6342C16.0887 33.6689 16.1171 33.699 16.1301 33.7167L16.0548 33.6342ZM15.8278 32.0424C15.8419 32.0556 15.8468 32.0603 15.8601 32.0727C15.7893 31.9994 15.7185 31.9258 15.6445 31.8492C15.6711 31.8811 15.7246 31.9389 15.8278 32.0424ZM16.4049 32.7036L16.5087 32.7446C16.4427 32.6763 16.3754 32.6066 16.3065 32.5351C16.3154 32.5725 16.3272 32.609 16.4049 32.7036ZM18.2919 34.7967C18.3327 34.8187 18.3896 34.8613 18.4531 34.9127C18.4846 34.9387 18.5181 34.9664 18.5523 34.9946L18.5778 35.0162L18.5906 35.0269L18.5969 35.0323L18.5972 35.0325C18.5775 35.0107 18.5918 35.0265 18.5875 35.0218L18.5879 35.0221L18.5885 35.0229L18.5901 35.0245L18.5929 35.0275L18.6393 35.0753C18.6585 35.0931 18.6613 35.1025 18.6681 35.1126C18.6745 35.1231 18.6832 35.1311 18.6901 35.143C18.6997 35.1702 18.7175 35.1941 18.7229 35.2181C18.7292 35.2415 18.7382 35.2622 18.7444 35.2782C18.7486 35.2942 18.7544 35.3055 18.7616 35.31C18.7677 35.3267 18.7757 35.3092 18.7825 35.2707C18.782 35.2512 18.7815 35.2269 18.7808 35.1997C18.7776 35.1726 18.7677 35.1437 18.7611 35.1128C18.7544 35.0976 18.746 35.0835 18.7387 35.0683C18.7307 35.0534 18.7265 35.0379 18.7116 35.022L18.6733 34.9744L18.6636 34.9623C18.6671 34.9657 18.6583 34.9569 18.6563 34.9548L18.6344 34.9325C18.576 34.8728 18.5158 34.8113 18.4539 34.7479C18.4431 34.75 18.4124 34.7309 18.3651 34.695C18.4835 34.8241 18.5552 34.9175 18.4785 34.8942C18.2185 34.5179 18.152 34.6506 17.8231 34.2918C17.6829 34.2129 18.1753 34.7048 18.2919 34.7967ZM8.32351 10.4177C8.33708 10.4118 8.38044 10.3879 8.43961 10.3529L8.21892 10.6165C7.77745 11.0392 7.36879 11.3228 7.03355 11.7655C6.83806 11.934 6.71209 12.003 6.5955 12.0726C6.68631 11.9852 6.77195 11.904 6.84499 11.8383C7.85674 10.6694 7.49641 11.3527 8.32351 10.4177ZM3.27921 15.309C3.32111 15.2617 3.32999 15.2387 3.32999 15.2387C2.44431 16.2838 1.67248 17.1018 1.14898 17.6192C1.28149 17.5499 1.77287 17.1075 2.00762 16.8989L1.84718 17.1313L1.69621 17.2257L1.38783 17.5995C1.50746 17.5283 1.77785 17.2478 1.98057 17.0823C1.98975 17.0595 2.53727 16.4279 2.67984 16.2409L2.18388 16.687C2.32117 16.5698 2.93773 15.9367 3.17629 15.6798C3.16311 15.6568 2.70826 16.056 2.69371 16.149C2.61617 16.1731 3.10813 15.6804 2.76812 15.963C3.10842 15.5655 3.71922 15.0025 4.00485 14.7434L4.09596 14.7423C4.41224 14.461 4.2436 14.4862 4.62463 14.1572C4.19702 14.6024 4.74777 14.1328 4.40404 14.4834C4.53186 14.3895 4.45394 14.5287 4.79835 14.1774C5.02832 13.8282 5.20233 13.8481 5.4235 13.5218C5.62496 13.3576 5.26258 13.7545 5.63042 13.4026C6.01184 12.9586 5.96566 12.9599 5.94779 12.891C5.54967 13.2648 5.57056 13.381 5.24432 13.6861L5.79789 12.984C5.67163 13.0892 5.58492 13.1738 5.51608 13.2486C5.63794 13.1181 5.73413 13 5.81069 12.893C5.85502 12.8328 5.89594 12.7772 5.93353 12.7261C5.5773 13.0815 5.26023 13.3965 5.18592 13.4339L5.21395 13.3638C5.06865 13.4704 4.87842 13.6909 4.79913 13.801C4.48284 14.122 4.1939 14.4695 4.09703 14.5119L4.19878 14.3716C3.81287 14.7696 3.77176 14.8159 3.27921 15.309ZM10.6429 28.4508C10.4826 28.1364 10.2891 27.8065 9.16788 26.7122L9.26036 26.7941C8.75053 26.1874 8.1079 25.7696 7.48245 25.0367C7.84112 25.3372 7.82071 25.3221 8.25105 25.6194L7.87569 25.2877C8.01562 25.3437 7.64123 25.0127 7.38373 24.7513L7.66261 24.9303C7.80401 25.1004 8.20252 25.5094 8.20203 25.4861C8.10809 25.4032 8.67202 26.0822 9.02405 26.4052C9.02307 26.3366 8.29665 25.6375 8.67016 25.9005C8.36647 25.6432 8.3654 25.5746 8.06034 25.2933C8.36472 25.5514 8.17606 25.3167 8.41002 25.5015L7.91768 25.0322C7.91641 25.0083 8.64292 25.7073 8.2906 25.2718C8.08026 25.0969 7.58811 24.5602 7.54241 24.5874L7.54182 24.5644C7.1893 24.1962 7.33178 24.4574 6.91003 23.9942C6.88649 24.0072 6.95817 24.1043 7.12046 24.2591C7.26264 24.3849 7.30815 24.3804 7.58928 24.6513C7.68449 24.8036 7.25991 24.3149 7.40335 24.5547C7.47454 24.6739 8.15272 25.2625 7.89668 25.1148L7.54475 24.7473C7.49905 24.7745 7.24067 24.512 7.2186 24.5487C6.98522 24.3422 6.81872 24.0935 6.5623 23.9005C6.44541 23.8308 6.56445 24.0375 6.21193 23.6467C5.97542 23.3024 5.10917 22.4571 4.78087 22.1442L4.47708 21.887C4.47855 21.9332 5.01611 22.4198 4.80694 22.2688L4.36068 21.8401L4.40843 21.8597C4.26655 21.7117 4.10328 21.5785 3.96296 21.4543C4.12554 21.5643 4.43021 21.8902 4.4056 21.7896C4.20777 21.5767 4.19048 21.5313 3.9943 21.3496C4.03824 21.3883 4.0775 21.42 4.0776 21.4094C3.67831 20.9772 3.63368 21.0504 3.51709 20.9585C3.04974 20.5901 3.89255 21.4257 3.79998 21.4114L2.55875 20.212C2.67535 20.3039 2.79253 20.3965 2.7688 20.3416C2.48698 20.0248 2.79145 20.3053 2.36941 19.887C2.34734 19.9688 1.80783 19.3902 1.48099 19.1233C1.36362 18.9633 1.3393 18.9305 1.64329 19.2332C1.64377 19.1663 1.21851 18.767 1.08385 18.6262C1.0696 18.6147 1.05407 18.6015 1.032 18.5819C0.992256 18.5464 0.93972 18.5057 0.894899 18.4572C0.872439 18.433 0.848516 18.4096 0.833966 18.3814C0.817463 18.3549 0.799496 18.3302 0.791488 18.3045C0.806526 18.3854 0.812971 18.4096 0.777719 18.3746C0.770102 18.3652 0.757505 18.3532 0.748229 18.3349C0.739343 18.3163 0.729285 18.2932 0.717957 18.2653C0.706142 18.2376 0.704091 18.2028 0.696279 18.1642C0.693252 18.1255 0.694132 18.0806 0.701456 18.0324L0.698037 18.009C0.668547 18.1105 0.664154 18.2324 0.705264 18.3481C0.743738 18.4661 0.836212 18.5578 0.923511 18.6552C1.01237 18.749 1.10201 18.8438 1.18951 18.9363C1.27427 19.0238 1.35688 19.109 1.43432 19.1889C1.59095 19.3471 1.73098 19.48 1.83361 19.5595L1.74045 19.4999C2.21024 20.0279 2.88666 20.525 3.05306 20.8187C3.00658 20.8227 3.14748 20.9247 3.10237 20.9525L3.49814 21.2914L3.40518 21.2315L4.03824 21.8481L4.01491 21.8383C4.34574 22.1013 4.6051 22.3074 4.81231 22.472C4.82892 22.4569 4.81446 22.4326 4.9252 22.5199C5.03242 22.6115 5.10897 22.6855 5.17411 22.7548C5.17469 22.7553 5.17469 22.7553 5.17479 22.7552L5.1746 22.7554C5.32322 22.9133 5.40261 23.0382 5.58209 23.2364L4.99717 22.6593C4.92285 22.6389 4.94434 22.7163 5.21014 23.0198C5.09267 22.9044 5.02294 22.8767 5.16395 23.0239C5.1868 23.0328 5.56197 23.3875 5.4444 23.2269C6.00618 23.7691 6.82898 24.7335 7.71827 25.5202C7.08541 24.9489 8.16463 26.0389 7.48518 25.3816C7.9085 25.8912 7.9291 25.7405 8.39792 26.2228C8.42292 26.2789 8.141 25.9618 8.00117 25.8831C8.77455 26.691 9.40498 27.1476 10.1569 27.9256L10.1559 27.992C10.3052 28.1325 10.4708 28.2885 10.6429 28.4508ZM12.1981 29.9221C12.3491 30.0655 12.5022 30.2109 12.658 30.3588C12.6435 30.3436 12.6301 30.3296 12.615 30.3138L13.0844 30.729C12.8258 30.444 12.6837 30.228 13.0813 30.5912C13.0354 30.573 13.1295 30.7013 12.9892 30.5771C13.2239 30.8523 13.7637 31.4311 13.6687 31.2344C13.1307 30.7926 13.6192 31.0555 13.1987 30.7063C13.4383 30.8796 13.628 31.0992 13.8379 31.2795C13.6071 31.1041 13.8225 31.3897 14.1142 31.7079C14.2551 31.8325 14.6068 32.1997 14.8407 32.4069C14.7932 32.2971 15.0031 32.4714 14.6515 32.1041C14.7915 32.2279 15.0022 32.4254 15.2148 32.6701C15.1189 32.5848 14.9565 32.4301 14.9562 32.4524C15.0752 32.6285 15.2493 32.8001 15.3324 32.9076C15.4101 32.982 15.4886 33.057 15.5648 33.1301C15.5454 33.1051 15.5296 33.0822 15.5202 33.064L15.8004 33.2892C15.4491 32.9673 15.6592 33.1193 15.6816 33.1055C15.6362 33.1328 15.8936 33.3268 16.01 33.4409L15.7982 33.1521C15.9384 33.2538 16.1974 33.607 16.1723 33.5057C15.6567 32.9596 15.446 32.762 14.9544 32.2933L15.1193 32.5181C14.5565 31.9976 14.8366 32.1328 14.2272 31.5265C13.9474 31.301 13.3113 30.6142 13.2441 30.6564C13.3369 30.7159 12.9142 30.2293 12.6811 30.0457C12.401 29.8654 11.6981 29.176 11.8861 29.4096C12.0736 29.5984 12.3542 29.824 12.4729 30.0078L12.0976 29.6533L12.3099 29.9199C12.1959 29.7865 12.1813 29.8251 12.1981 29.9221ZM17.7341 33.2347C17.7303 33.2304 17.7253 33.2249 17.7207 33.2198C17.7261 33.2253 17.7312 33.2305 17.7362 33.2356L17.7341 33.2347Z" fill="white"/>
<path d="M13.6116 4.90254C13.7042 4.78526 13.9657 4.52776 13.8881 4.55188C13.9238 4.57502 13.429 5.01991 13.6116 4.90254Z" fill="white"/>
<path d="M13.9506 4.62128C13.9618 4.59599 13.9379 4.59745 14.0533 4.47998L13.7402 4.80799L13.9506 4.62128Z" fill="white"/>
<path d="M14.477 4.49691C14.6204 4.30971 14.7128 4.19253 14.9743 3.93513C15.1434 3.90944 14.5695 4.37992 14.5189 4.56448C15.0011 4.09566 15.0845 3.88699 15.4695 3.48975C15.2457 3.6536 14.4368 4.42806 14.477 4.49691Z" fill="white"/>
<path d="M14.3565 4.7992L14.6048 4.51855L14.5744 4.54043L14.3259 4.82127L14.3565 4.7992Z" fill="white"/>
<path d="M8.00462 9.90381C7.95833 9.90518 7.81557 10.0921 7.73267 10.1859C7.806 10.1154 7.91254 10.0208 8.00462 9.90381Z" fill="white"/>
<path d="M11.2676 9.63287L13.2633 7.59375C12.6892 8.18043 12.159 8.72219 11.2676 9.63287Z" fill="white"/>
<path d="M1.45633 16.7453C1.9769 16.1825 2.17884 15.9031 2.72099 15.3413C1.94995 16.0219 1.83287 16.3705 1.17725 16.9336L1.45633 16.7453Z" fill="white"/>
<path d="M1.46855 16.3755C1.60057 16.3279 1.10002 16.8429 1.20968 16.7953C1.56444 16.4199 1.33946 16.585 1.6744 16.2573L1.46855 16.3755Z" fill="white"/>
<path d="M4.62177 14.6187L4.47949 14.8049L4.6037 14.6645L4.62177 14.6187Z" fill="white"/>
<path d="M1.42148 19.8027L1.35205 19.7524L1.61033 20.0374L1.42148 19.8027Z" fill="white"/>
<path d="M1.28247 19.7021L1.352 19.7523L1.28247 19.7021Z" fill="white"/>
<path d="M4.50122 14.9207L4.75443 14.6855L4.85579 14.5454L4.50122 14.9207Z" fill="white"/>
<path d="M2.11991 16.8486L2.32478 16.6167C2.28406 16.6626 1.96787 16.944 2.11991 16.8486Z" fill="white"/>
<path d="M3.06235 21.4796L3.34427 21.7292L3.32132 21.6978L3.04028 21.4492L3.06235 21.4796Z" fill="white"/>
<path d="M1.28112 18.3798C1.26736 18.3442 1.29206 18.3596 1.32302 18.386C1.33747 18.3991 1.35465 18.4146 1.37067 18.4289C1.39625 18.4529 1.41979 18.4749 1.43492 18.489C1.45309 18.5052 1.46197 18.5113 1.45465 18.4992C1.45103 18.4931 1.44332 18.4826 1.43072 18.4665C1.42028 18.4526 1.39401 18.4224 1.38893 18.4125C1.37057 18.3961 1.35553 18.3828 1.34352 18.3721C1.25632 18.2988 1.27829 18.35 1.28112 18.3798Z" fill="white"/>
<path d="M4.20044 21.7397C4.23628 21.7756 4.27524 21.8122 4.31518 21.8449C4.26996 21.8035 4.23208 21.7687 4.20044 21.7397Z" fill="white"/>
<path d="M4.20037 21.7396C4.08466 21.6238 3.98134 21.4958 3.89258 21.4258C4.02226 21.5848 4.08026 21.6317 4.20037 21.7396Z" fill="white"/>
<path d="M5.53382 23.0578L5.43118 22.9505C5.55442 23.0417 5.5012 22.9932 5.39261 22.9103C5.28032 22.8003 5.27631 22.8169 5.2561 22.8106C5.22973 22.7924 5.20346 22.7744 5.17505 22.7549C5.21372 22.7848 5.24848 22.8115 5.27797 22.8343C5.45003 23.0068 5.55667 23.1104 5.53382 23.0578Z" fill="white"/>
<path d="M9.91151 28.5303C9.53614 28.1306 9.44171 28.0246 9.488 28.0204C9.12816 27.6444 9.14183 27.745 8.90991 27.5332C9.33098 27.9445 9.40451 28.0413 9.91151 28.5303Z" fill="white"/>
<path d="M8.91005 27.533C8.86279 27.487 8.81757 27.4431 8.7627 27.3896C8.82255 27.451 8.86845 27.4948 8.91005 27.533Z" fill="white"/>
<path d="M4.25977 21.2324L4.53924 21.4347L4.4455 21.3517L4.25977 21.2324Z" fill="white"/>
<path d="M10.474 29.118C10.4037 29.0445 10.2875 28.9305 10.2395 28.8652C10.1935 28.8698 10.5442 29.1913 10.474 29.118Z" fill="white"/>
<path d="M9.4738 27.1289C9.44988 27.0741 9.19277 26.8354 9.09766 26.7285C9.23925 26.8766 9.31073 27.041 9.4738 27.1289Z" fill="white"/>
<path d="M11.6898 30.126C11.6196 30.0525 11.5261 29.9249 11.5947 29.952C11.478 29.86 11.2923 29.7632 11.6898 30.126Z" fill="white"/>
<path d="M10.1776 27.8418L10.1307 27.7777L9.84937 27.5288L10.1776 27.8418Z" fill="white"/>
<path d="M9.6039 26.5235C9.2756 26.2553 10.0045 27.0692 9.46533 26.581C10.0965 27.2751 9.45713 26.4875 9.94108 26.9812C9.66493 26.6848 9.56269 26.5065 9.6039 26.5235Z" fill="white"/>
<path d="M9.94092 26.9814C9.98086 27.0246 10.0251 27.0706 10.0738 27.1196C10.0207 27.0645 9.97793 27.02 9.94092 26.9814Z" fill="white"/>
<path d="M13.9483 31.3693C13.9019 31.3292 13.8688 31.303 13.8379 31.2793C13.8745 31.3108 13.9102 31.3403 13.9483 31.3693Z" fill="white"/>
<path d="M11.5268 28.5176L11.0347 28.1157C11.3633 28.3843 12.1127 29.1373 12.1109 29.0454C11.8768 28.7931 11.5721 28.5123 11.4325 28.4115L11.5268 28.5176Z" fill="white"/>
<path d="M15.8426 34.4644L15.6316 34.2891L15.8675 34.5355C15.8053 34.4597 15.9632 34.5516 15.8426 34.4644Z" fill="white"/>
<path d="M15.9131 34.5831L15.8674 34.5356C15.8766 34.547 15.8911 34.5622 15.9131 34.5831Z" fill="white"/>
<path d="M13.0808 30.5458C12.9396 30.3981 12.8228 30.2838 12.6831 30.1602C12.7293 30.2232 13.0811 30.5911 13.0808 30.5458Z" fill="white"/>
<path d="M17.2682 35.7594L16.9417 35.4482L17.2929 35.7927L17.2682 35.7594Z" fill="white"/>
<path d="M19.1144 34.3078L19.068 34.2443L18.7876 33.9961L18.8349 34.0604L19.1144 34.3078Z" fill="white"/>
<path d="M17.6186 34.4926C17.4073 34.2716 17.1982 34.1433 17.2462 34.2083L17.6671 34.6255C17.5959 34.4837 17.5498 34.5103 17.3157 34.2584L17.6186 34.4926Z" fill="white"/>
<path d="M8.00688 23.3325C8.12416 23.4025 8.56876 23.8744 8.57042 23.9209C8.49913 23.8691 8.24124 23.6299 8.38312 23.8002L8.8038 24.1049C9.24996 24.6235 8.36096 23.8144 8.10219 23.5967C8.58614 24.0956 8.76991 24.2031 9.29234 24.7261C9.14333 24.5667 9.06042 24.4549 8.99138 24.3609C9.01443 24.3023 9.48344 24.8075 9.83488 25.1525C9.63089 24.913 9.77405 25.0263 9.95167 25.1718C9.98204 25.1995 10.0036 25.2165 10.02 25.2276C10.0408 25.2443 10.0605 25.2603 10.0806 25.2767L10.0388 25.2349C10.0463 25.2332 10.0426 25.2186 10.0201 25.1809C9.71604 24.9005 9.5267 24.6429 9.33911 24.4545C9.45864 24.7066 8.6832 23.8292 8.42629 23.6132L8.14671 23.3467L8.04447 23.2448C8.03119 23.2169 8.06938 23.2369 8.23831 23.3794C8.09525 23.2626 7.66637 22.8245 7.68503 22.8858L6.69476 21.8975C6.66664 21.864 6.63929 21.8298 6.62123 21.8022C6.58276 21.7721 6.57358 21.7698 6.57475 21.7777C5.36262 20.5683 4.15059 19.359 2.9413 18.1497L2.95555 18.1323C2.94706 18.1379 2.937 18.1436 2.92567 18.1497C2.9286 18.1661 2.93241 18.1888 2.95028 18.2172C2.8955 18.2065 2.90487 18.2198 2.92782 18.2462L2.93602 18.2558C2.93983 18.26 2.93661 18.2575 2.95653 18.2781C2.98573 18.3087 3.01287 18.3378 3.03416 18.3622C3.07684 18.4112 3.09617 18.4417 3.0616 18.428C3.02088 18.3948 2.97704 18.3561 2.93241 18.3145C2.90282 18.2864 2.90585 18.2904 2.89794 18.2832L2.88066 18.2663C2.85849 18.2431 2.8416 18.2187 2.83447 18.2015C2.81142 18.1994 2.80322 18.2111 2.79834 18.2271C2.79307 18.2427 2.79131 18.2628 2.77002 18.2667C2.78945 18.2927 2.81015 18.316 2.83037 18.3358C2.83584 18.3409 2.90956 18.4111 2.9535 18.4497C3.05145 18.5368 3.13914 18.605 3.22663 18.6726C3.40172 18.8079 3.5767 18.9402 3.83489 19.2135C3.7886 19.2177 3.60229 19.0755 3.95354 19.4199L3.85979 19.3369C4.44501 19.8657 4.23672 19.8279 4.65652 20.1093L4.61091 20.1365C4.89107 20.3618 5.38283 20.8531 5.66485 21.1252L5.64131 21.1156C6.46011 21.8511 6.0864 21.543 6.97648 22.3983L6.53237 22.0391C6.81585 22.3577 6.9299 22.3794 7.14131 22.6003C7.11885 22.5918 7.14229 22.6685 6.93156 22.4711L8.05522 23.4652C8.33547 23.6905 8.0307 23.3872 8.00688 23.3325Z" fill="white"/>
<path d="M9.29248 24.7261C9.34658 24.7841 9.40947 24.8485 9.48602 24.9223C9.41396 24.8492 9.35195 24.7864 9.29248 24.7261Z" fill="white"/>
<path d="M2.98638 18.1016L2.95581 18.1328C2.96919 18.1237 2.97886 18.1155 2.98638 18.1016Z" fill="white"/>
<path d="M10.8896 26.1645C10.7248 25.962 11.0535 26.2756 11.0994 26.2936L10.4411 25.6366C10.4301 25.6536 10.3493 25.6043 10.3496 25.6303L10.8896 26.1645Z" fill="white"/>
<path d="M10.2772 25.4199C10.2452 25.4074 10.1669 25.3465 10.0806 25.2769L10.4411 25.6367C10.4495 25.6239 10.4187 25.5739 10.2772 25.4199Z" fill="white"/>
<path d="M9.59827 26.238L9.4806 26.1228L9.2937 25.9575L9.59827 26.238Z" fill="white"/>
<path d="M7.83936 24.356C7.95712 24.5163 8.23708 24.7639 8.33073 24.8466C8.02606 24.5432 8.1659 24.667 7.83936 24.356Z" fill="white"/>
<path d="M7.98719 24.9593L7.68213 24.6782L7.70517 24.7098L7.98719 24.9593Z" fill="white"/>
<path d="M4.99683 15.8043C5.04399 15.7555 5.08989 15.7081 5.13764 15.6587C5.07192 15.7241 5.03012 15.768 4.99683 15.8043Z" fill="white"/>
<path d="M2.77808 18.0921C2.87885 18.022 2.88158 18.0365 2.87162 18.0615C2.8601 18.0881 2.83042 18.1308 2.83335 18.1499C2.86137 18.1632 2.88207 18.1651 2.89897 18.1559C2.89565 18.1539 2.89233 18.1518 2.89037 18.1499C2.89594 18.1336 2.90473 18.1142 2.91674 18.0915L2.93158 18.1047C2.93158 18.1047 2.9476 18.0864 2.96351 18.0682C3.06614 17.9632 3.16877 17.8583 3.16877 17.8583C3.04954 17.9295 2.9766 17.9995 2.97201 17.9535C3.60117 17.3441 3.19719 17.7883 3.68339 17.3657L4.37104 16.6688L4.3225 16.7324C4.38022 16.6735 4.40287 16.6447 4.41869 16.6205L6.73582 14.2719C7.14019 13.8275 6.45566 14.4613 6.73162 14.1111C6.23976 14.6032 5.482 15.3073 5.49049 15.3994C5.50006 15.376 5.51871 15.3295 5.41306 15.4232L5.17001 15.7492L5.45456 15.4911C5.20975 15.8185 4.27671 16.7331 4.08404 16.8745C4.59534 16.3351 4.28198 16.549 5.04091 15.8441C4.99531 15.8642 4.83888 15.9757 4.99668 15.804C4.57522 16.2401 4.16666 16.6445 3.7577 17.0564C3.55322 17.2624 3.34874 17.4701 3.14241 17.6846C3.09104 17.7384 3.03939 17.7924 2.98744 17.8469L2.90961 17.9291L2.87201 17.969L2.86049 17.9832C2.83003 18.0207 2.802 18.0575 2.77808 18.0921Z" fill="white"/>
<path d="M11.0948 9.7273L11.0925 9.73863C11.1056 9.72066 11.1088 9.71382 11.0948 9.7273Z" fill="white"/>
<path d="M10.8008 10.009L10.4321 10.4763L11.0799 9.8207L11.0926 9.73877C11.0438 9.80507 10.8329 10.0512 10.7308 10.1261L10.8008 10.009Z" fill="white"/>
<path d="M9.97656 10.9914C10.2984 10.6402 10.2393 10.6177 10.0372 10.7827C10.3274 10.4547 10.244 10.6634 10.4138 10.4077C10.3775 10.3852 10.0138 10.7834 9.93164 10.8763L9.97656 10.9914Z" fill="white"/>
<path d="M7.47187 13.4528L7.54969 13.3413L7.31201 13.57L7.47187 13.4528Z" fill="white"/>
<path d="M7.5498 13.3417L7.78582 13.1147C7.75731 13.1183 7.72919 13.1218 7.6829 13.1511L7.5498 13.3417Z" fill="white"/>
<path d="M8.40479 12.5188C8.50576 12.4239 8.61649 12.3178 8.74949 12.187L8.40479 12.5188Z" fill="white"/>
<path d="M8.12964 12.7733L8.14282 12.7709L8.40472 12.519C8.30638 12.61 8.21811 12.6916 8.12964 12.7733Z" fill="white"/>
<path d="M7.78564 13.1147C7.85175 13.1056 7.92577 13.0916 8.25241 12.749L8.14275 12.7709L7.78564 13.1147Z" fill="white"/>
<path d="M5.89876 22.7851L5.61792 22.5366L5.64155 22.569L5.9222 22.8174L5.89876 22.7851Z" fill="white"/>
<path d="M4.39769 21.2318C4.32729 21.1714 4.27241 21.127 4.22192 21.0874C4.29399 21.1532 4.35355 21.2032 4.39769 21.2318Z" fill="white"/>
<path d="M3.06748 20.2917C2.78488 19.9516 3.53493 20.6831 2.9711 20.0939C2.94698 20.0164 3.25174 20.2522 3.50993 20.537C3.46316 20.5405 3.22928 20.2885 3.37049 20.4811C3.57985 20.6323 3.62867 20.7206 3.60367 20.62C3.9306 20.8996 3.99134 20.9065 4.22189 21.0876C3.83852 20.7377 3.10761 19.929 2.59368 19.5122C2.29165 19.3014 2.38501 19.5191 2.31812 19.5838C2.34126 19.6379 2.99893 20.3102 3.06748 20.2917Z" fill="white"/>
<path d="M3.4917 20.8472C3.63251 20.9945 3.67919 21.0359 3.77303 21.1188C3.77176 21.0725 3.60907 20.9626 3.4917 20.8472Z" fill="white"/>
<path d="M3.03138 16.9041C3.04955 16.8673 3.29855 16.595 3.22639 16.6348L2.84302 17.0418C2.93725 16.9507 2.98139 16.9294 3.03138 16.9041Z" fill="white"/>
<path d="M2.6748 17.2204L2.84306 17.042C2.79892 17.0846 2.74658 17.1394 2.6748 17.2204Z" fill="white"/>
<path d="M3.05604 16.8911C3.04794 16.8954 3.04051 16.8993 3.03153 16.9041C3.02792 16.9117 3.03094 16.9126 3.05604 16.8911Z" fill="white"/>
<path d="M9.38013 11.5764C9.39263 11.6 9.55795 11.4131 9.64095 11.3193C9.56761 11.3897 9.46079 11.4848 9.38013 11.5764Z" fill="white"/>
<path d="M15.9385 4.87607L16.1084 4.73486C16.0448 4.78134 16.0124 4.80527 15.9385 4.87607Z" fill="white"/>
<path d="M17.8425 1.98506C17.8436 1.97705 17.8521 1.9626 17.8649 1.94434C17.8516 1.96211 17.8438 1.97588 17.8425 1.98506Z" fill="white"/>
<path d="M17.8647 1.94429C17.956 1.82291 18.3076 1.51814 18.4027 1.37733L18.3948 1.3993C18.3948 1.3993 18.4463 1.34101 18.4978 1.28271C18.5107 1.26816 18.5236 1.25361 18.5356 1.23994C18.5414 1.2334 18.5484 1.22597 18.5522 1.2208C18.5546 1.2166 18.557 1.2126 18.559 1.20898C18.568 1.19521 18.574 1.18604 18.574 1.18604C18.5631 1.20723 18.4806 1.28759 18.4134 1.35575C18.3427 1.42772 18.2664 1.50545 18.1928 1.58044C18.0465 1.73121 17.9134 1.87378 17.8647 1.94429Z" fill="white"/>
</svg>
