<svg width="20" height="37" viewBox="0 0 20 37" fill="none" xmlns="http://www.w3.org/2000/svg">
<path d="M3.42183 35.1771C3.26606 35.3405 3.10542 35.4583 3.15581 35.3886C2.85669 35.7397 2.82017 35.717 2.82847 35.8096C2.64448 36.043 2.38774 36.2313 2.60464 35.9735L2.03384 36.606L2.40142 36.254C2.37329 36.324 2.22651 36.4646 2.07856 36.608L2.02329 36.6618L2.00962 36.6752L2.00278 36.6818L1.973 36.7089L1.9437 36.7325L1.91509 36.756L1.90112 36.7676C1.89702 36.7712 1.88335 36.7795 1.87485 36.7852C1.83608 36.8099 1.79653 36.8322 1.75835 36.852C1.71948 36.8724 1.69106 36.8782 1.65913 36.8906C1.62827 36.9003 1.59976 36.913 1.57222 36.9177C1.51733 36.9292 1.47095 36.9391 1.43726 36.9496C1.43726 36.9496 1.46138 36.9477 1.50366 36.9444C1.54614 36.9411 1.6063 36.935 1.67573 36.911C1.71108 36.8997 1.74575 36.8916 1.79321 36.8652C1.81567 36.8536 1.83843 36.8409 1.86128 36.8272L1.89536 36.8062C1.9065 36.7991 1.91997 36.7903 1.92261 36.7875C1.94331 36.7702 1.96489 36.7525 1.98667 36.7345L1.99077 36.7311L2.01958 36.705L2.0271 36.6974L2.04214 36.6821L2.07251 36.6515C2.23423 36.4876 2.39605 36.3239 2.39605 36.3239L2.37739 36.3703C2.51069 36.2071 2.80493 35.9254 2.91128 35.8309C2.9023 35.8535 2.92358 35.8547 2.81001 35.9708C3.59946 35.1878 2.94858 35.6858 3.58706 35.0195C3.54722 35.0612 3.49595 35.1112 3.42183 35.1771Z" fill="white"/>
<path d="M4.19248 34.6115L4.41426 34.2847L4.88789 33.8381C4.875 33.8148 5.19551 33.465 4.95264 33.6759C4.91113 33.7231 4.82881 33.8164 4.75635 33.8855C4.76855 33.795 5.34863 33.2541 5.17373 33.3497C4.82021 33.724 4.75576 33.7711 4.56357 34.027C4.22627 34.357 3.97441 34.5909 3.8043 34.7324C3.71123 34.8374 3.72129 34.8754 3.60029 35.0059C3.62764 34.9776 3.65283 34.9515 3.68418 34.919L3.75664 34.9643C3.84922 34.8469 3.9542 34.7537 4.06943 34.636L3.59961 35.2435C3.82842 35.125 4.32529 34.5633 4.55967 34.3748C4.24785 34.5873 4.74394 34.1412 4.19248 34.6115Z" fill="white"/>
<path d="M3.60024 35.0059C3.59683 35.0094 3.59116 35.0152 3.58716 35.0193C3.59116 35.0152 3.59683 35.0094 3.60024 35.0059Z" fill="white"/>
<path d="M7.2667 8.06143C7.38232 8.1749 7.42998 8.19473 7.45352 8.2042L6.16309 6.91602C6.18799 6.97188 6.54014 7.3624 6.28281 7.12344C6.37637 7.25127 6.72812 7.57373 6.79785 7.60166L6.68076 7.53184C7.0081 7.79863 7.15156 8.06094 6.94004 7.88516L6.96543 7.90986L7.90459 8.61631C7.60928 8.30742 7.63193 8.42373 7.2667 8.06143Z" fill="white"/>
<path d="M2.27148 34.8157C2.43321 34.6432 2.44815 34.6171 2.42344 34.6304C2.36777 34.6946 2.31592 34.7564 2.27148 34.8157Z" fill="white"/>
<path d="M8.12402 8.78174L8.41816 9.00313C8.30518 8.90977 8.20137 8.83213 8.12402 8.78174Z" fill="white"/>
<path d="M5.78473 7.55029C5.78229 7.55176 5.7778 7.55059 5.782 7.56006L5.91628 7.65723C5.91452 7.65547 5.91403 7.65498 5.91335 7.6543C5.86628 7.61621 5.82389 7.58193 5.78473 7.55029Z" fill="white"/>
<path d="M14.1111 14.4956C14.1396 14.5225 14.1642 14.5455 14.1983 14.5776C14.1671 14.5472 14.1383 14.5203 14.1111 14.4956Z" fill="white"/>
<path d="M2.08398 4.26562L2.69229 4.80381C2.59932 4.74395 2.88076 5.01553 2.74072 4.91406C2.78701 4.95508 2.99844 5.15332 2.95107 5.08896L2.83311 4.97305C3.18369 5.22705 3.01914 5.02539 3.55713 5.48984C3.27461 5.1501 3.11201 5.03984 2.92519 4.89707C2.8668 4.84365 2.81787 4.79893 2.76856 4.75371L2.22432 4.34463L2.08398 4.26562Z" fill="white"/>
<path d="M9.98498 26.554L9.98751 26.5439C9.98312 26.5511 9.98332 26.5535 9.98498 26.554Z" fill="white"/>
<path d="M9.99712 26.5032L9.98755 26.5437C10.0107 26.5053 10.1211 26.3799 9.99712 26.5032Z" fill="white"/>
<path d="M7.99819 8.71777C8.01499 8.7166 8.05903 8.73877 8.12417 8.78115L7.90454 8.61621C7.93071 8.64463 7.96528 8.68213 7.99819 8.71777Z" fill="white"/>
<path d="M7.45518 8.38682L6.96533 7.91074L6.76221 7.75781C6.95654 7.93311 7.1792 8.14277 7.45518 8.38682Z" fill="white"/>
<path d="M13.3769 13.7036C14.3846 14.6965 13.0743 13.5147 13.5203 13.988C13.8046 14.2591 13.9295 14.3301 14.1113 14.4947C13.2949 13.7244 14.3078 14.5134 13.4933 13.7275C13.6559 13.7925 14.1236 14.2514 14.3819 14.536C14.6421 14.8904 14.0788 14.3021 13.9631 14.2785C14.2918 14.5919 14.2439 14.5268 14.4064 14.6368C14.8996 15.1519 15.5073 15.6222 15.7431 15.9884C16.1184 16.3429 16.1168 16.2964 16.3515 16.4815C16.4436 16.473 15.8352 15.9123 15.7395 15.7374C15.7633 15.7697 15.8095 15.8328 15.7865 15.824L15.4816 15.498C15.7636 15.815 15.3897 15.5066 15.2256 15.3505C15.1081 15.2352 14.8745 15.0059 14.9203 15.0238L15.1074 15.1893C14.8963 14.9465 14.57 14.7254 14.3576 14.4585C14.3563 14.4347 14.4524 14.52 14.4731 14.5268C14.1702 14.2927 13.9133 14.0316 13.4914 13.6585L13.7718 13.839C13.3986 13.5763 12.6944 12.8406 12.2246 12.3125C12.2714 12.3763 12.3652 12.4819 12.2957 12.4317C11.9908 12.1506 11.8037 11.895 11.9657 12.0045C11.638 11.7597 10.9097 10.8788 10.4659 10.5425L8.41821 9.00244C8.49175 9.06328 8.5688 9.12998 8.64507 9.20186C8.76431 9.40879 8.85747 9.49131 8.53042 9.24688C8.83413 9.5042 8.76216 9.36182 9.1855 9.78145C8.99809 9.63818 8.90601 9.64668 9.30454 10.0557C10.3577 11.0212 11.1512 11.5655 12.1577 12.4445C12.1587 12.5131 12.9083 13.2438 13.2601 13.6114C13.0865 13.5104 12.8092 13.2537 12.5248 12.9841C12.6975 13.1592 12.9948 13.4605 13.2152 13.6842L13.3769 13.7036Z" fill="white"/>
<path d="M10.9197 11.4736C10.9419 11.5019 10.9664 11.5297 10.9915 11.558C10.98 11.5409 10.9589 11.5154 10.9197 11.4736Z" fill="white"/>
<path d="M12.4415 12.8994C12.4367 12.8972 12.437 12.8994 12.4343 12.8996C12.4643 12.9278 12.4942 12.956 12.5249 12.9849C12.4955 12.9548 12.4623 12.9207 12.4415 12.8994Z" fill="white"/>
<path d="M8.1583 9.03077C8.08886 8.98057 8.0418 8.93887 7.97217 8.88867C8.01172 8.92315 8.06113 8.96612 8.10869 9.00762C8.15566 9.04551 8.18046 9.06114 8.1583 9.03077Z" fill="white"/>
<path d="M8.01594 8.76924L8.06184 8.7874C8.03723 8.76045 8.01994 8.7416 7.99817 8.71777C7.98371 8.71826 7.98498 8.73193 8.01594 8.76924Z" fill="white"/>
<path d="M16.894 17.832L16.9973 17.9206C16.9389 17.8635 16.911 17.8415 16.894 17.832Z" fill="white"/>
<path d="M14.434 14.8759C14.0829 14.5314 14.342 14.8847 13.8496 14.3928L13.991 14.5403C13.6163 14.2088 13.0056 13.5783 12.5843 13.1606C12.6518 13.1878 12.3544 12.8817 12.4346 12.8996C12.1405 12.6201 11.8495 12.3431 11.6697 12.2275C11.5025 12.0394 11.2042 11.7978 10.9917 11.5585C11.0682 11.6728 10.6063 11.3007 11.1791 11.8274C11.1323 11.7857 11.1557 11.8178 11.1092 11.7766C11.437 12.157 11.6237 12.2544 11.9293 12.5589C12.0931 12.7599 11.601 12.2906 11.7656 12.4702C12.1639 12.8338 12.9386 13.688 12.9834 13.5928C13.2656 13.865 13.2884 13.9188 13.3582 14.0143C13.8714 14.3781 14.9538 15.6737 15.0451 15.5743C14.8812 15.418 14.6224 15.1552 14.367 14.9406L14.434 14.8759Z" fill="white"/>
<path d="M8.74756 9.61035C8.76865 9.63203 8.79678 9.66094 8.81436 9.679C8.79453 9.65869 8.77002 9.6334 8.74756 9.61035Z" fill="white"/>
<path d="M4.63397 4.94385L4.84179 5.02695C5.68505 5.84043 5.96698 6.15742 6.69374 6.8792C6.74052 6.94307 6.64726 6.86064 6.59999 6.81875C7.1164 7.3208 7.86522 8.0957 8.26454 8.4377C8.42606 8.6002 8.83153 9.04531 8.65224 8.90273C8.73651 8.97607 8.83202 9.06084 8.92069 9.15352C8.92235 9.1999 8.71132 8.95703 8.68778 8.97012C8.75819 9.04346 8.78183 9.07588 8.80546 9.08535C8.66522 8.98369 8.85487 9.28691 8.29228 8.72148C8.12626 8.45068 8.68954 9.10664 8.61835 8.91992C8.43163 8.73242 8.43105 8.77656 8.408 8.76758C8.17089 8.52783 8.19169 8.51953 8.21757 8.51914C8.10829 8.4457 7.83339 8.1209 7.67997 8.02197C7.2119 7.56289 7.74862 8.00381 7.44511 7.70166L7.212 7.58564L6.71962 7.07109C5.97021 6.36289 6.72274 7.27656 5.85653 6.47656C5.99657 6.55547 5.71376 6.17002 5.33817 5.77012C5.57226 5.9999 6.03925 6.39063 6.32138 6.70742C5.94501 6.23945 6.908 7.28301 6.7413 7.01143C6.5078 6.82764 6.15663 6.48311 5.89872 6.19834L5.99306 6.28184C5.71073 5.98711 5.43114 5.82998 5.05634 5.4084C4.85663 5.2124 4.91015 5.23301 4.95868 5.254C4.78261 5.09551 4.62157 4.95732 4.63397 4.94385ZM5.07724 5.3626L5.33612 5.63311C5.283 5.56064 5.18397 5.4623 5.07724 5.3626Z" fill="white"/>
<path d="M7.88667 30.9023C7.85884 30.9271 7.82681 30.9556 7.80151 30.9779C7.82183 30.9631 7.85347 30.9339 7.88667 30.9023Z" fill="white"/>
<path d="M7.53467 6.70215L7.68604 6.85742C7.62822 6.79561 7.57939 6.74619 7.53467 6.70215Z" fill="white"/>
<path d="M11.1689 9.9502L11.4065 10.1605C11.3173 10.0729 11.2426 10.0092 11.1689 9.9502Z" fill="white"/>
<path d="M9.71875 29.0777L9.72666 29.0707C9.73809 29.057 9.74687 29.0466 9.75889 29.0322L9.71875 29.0777Z" fill="white"/>
<path d="M17.9336 16.9883C17.9628 17.0273 17.9966 17.0701 18.0455 17.126C18.0449 17.1139 18.0025 17.0631 17.9336 16.9883Z" fill="white"/>
<path d="M11.125 9.91064C11.1304 9.9168 11.1334 9.92041 11.1375 9.92529C11.1475 9.93291 11.1582 9.94121 11.1688 9.94932L11.125 9.91064Z" fill="white"/>
<path d="M6.18945 5.01562C6.15459 4.98467 6.12295 4.95654 6.08545 4.92334C6.13291 4.96846 6.16338 4.99463 6.18945 5.01562Z" fill="white"/>
<path d="M6.23984 5.39717C6.20303 5.36328 6.16748 5.33145 6.13867 5.30762L6.23984 5.39717Z" fill="white"/>
<path d="M0.73999 2.68506L0.954834 2.88301C0.852295 2.78252 0.788525 2.72529 0.73999 2.68506Z" fill="white"/>
<path d="M5.73184 4.81319C5.71719 4.80391 5.70254 4.79453 5.69189 4.78906C5.72227 4.81592 5.73926 4.82598 5.73184 4.81319Z" fill="white"/>
<path d="M6.40063 32.039C6.40522 32.0342 6.4102 32.029 6.41294 32.0262L6.41138 32.0142L6.40063 32.039Z" fill="white"/>
<path d="M5.98384 32.6265C5.92622 32.6872 5.86626 32.7506 5.80737 32.8127C5.87505 32.7457 5.93882 32.6782 5.98384 32.6265Z" fill="white"/>
<path d="M18.0238 20.7334C17.9607 20.7797 17.8224 20.8977 17.8726 20.8282C17.7802 20.945 17.8168 20.9677 18.0238 20.7334Z" fill="white"/>
<path d="M7.04048 30.6663C7.01548 30.7071 6.98062 30.754 6.94556 30.801C7.01343 30.716 7.0733 30.6421 7.04048 30.6663Z" fill="white"/>
<path d="M6.94565 30.8013C6.91235 30.8435 6.87681 30.8886 6.84692 30.9264C6.88247 30.8832 6.91577 30.841 6.94565 30.8013Z" fill="white"/>
<path d="M18.6658 19.0142C18.6749 19.0031 18.6775 18.9854 18.6769 18.9609C18.6634 18.969 18.6664 18.9877 18.6658 19.0142Z" fill="white"/>
<path d="M5.65156 32.9496C5.63301 32.9961 4.87471 33.8148 5.54512 33.1589C5.56299 33.2278 5.13975 33.6045 4.97363 33.792C5.11221 33.6737 4.9376 33.8837 4.99209 33.8602C5.07451 33.7673 5.16631 33.6506 5.31436 33.5087C5.40078 33.4619 5.19434 33.6953 5.01514 33.8597C5.24971 33.6709 4.78105 34.1626 5.09814 33.8807C5.72305 33.2251 6.15977 32.7568 6.54648 32.2432C6.19199 32.6186 5.79668 33.0397 5.47998 33.3217L5.56826 33.1582C5.93955 32.853 6.12373 32.6194 6.45996 32.2902L5.69258 33.0177C5.31123 33.3366 5.53818 33.0951 5.80742 32.8123C5.73916 32.8798 5.67549 32.939 5.65156 32.9496Z" fill="white"/>
<path d="M5.82549 32.1162L5.81192 32.1276C5.80225 32.1399 5.78955 32.1543 5.78418 32.1629L5.82549 32.1162Z" fill="white"/>
<path d="M1.46212 1.88718L1.54054 1.93718C1.48057 1.88991 1.45958 1.8779 1.46212 1.88718Z" fill="white"/>
<path d="M6.45337 31.8517L6.45288 31.8523C6.45747 31.8468 6.45874 31.8457 6.45337 31.8517Z" fill="white"/>
<path d="M1.92407 2.38076C1.92085 2.37949 1.91753 2.37832 1.91235 2.37549C1.91919 2.38008 1.92026 2.379 1.92407 2.38076Z" fill="white"/>
<path d="M3.1612 1.99805C3.16003 1.99336 3.16081 1.99082 3.15554 1.98213C3.1193 1.9502 3.13415 1.96846 3.1612 1.99805Z" fill="white"/>
<path d="M1.929 2.37842C1.92783 2.37959 1.92773 2.38174 1.92432 2.38066C1.92676 2.38066 1.93076 2.38222 1.929 2.37842Z" fill="white"/>
<path d="M9.83464 10.0087C9.83464 10.0087 9.81657 9.97762 9.78415 9.93279C9.76559 9.92137 9.77653 9.94032 9.83464 10.0087Z" fill="white"/>
<path d="M8.35708 8.41982C8.34878 8.40869 8.3439 8.40205 8.33325 8.3877L8.35708 8.41982Z" fill="white"/>
<path d="M18.5559 20.5407C18.6323 20.4654 18.6882 20.4075 18.7347 20.3579C18.6784 20.4123 18.6186 20.4723 18.5559 20.5407Z" fill="white"/>
<path d="M1.91255 2.37578C1.89253 2.36367 1.86567 2.34502 1.823 2.3125C1.86978 2.34853 1.89585 2.36631 1.91255 2.37578Z" fill="white"/>
<path d="M12.3623 12.1563C12.3444 12.1414 12.3278 12.1274 12.311 12.1133L12.3372 12.1432L12.3623 12.1563Z" fill="white"/>
<path d="M13.1347 12.9841C13.1032 12.961 13.0862 12.9529 13.067 12.9414C13.3682 13.2113 13.8759 13.753 13.9781 13.7752C13.8801 13.6793 13.4012 13.1533 13.5102 13.2156C13.3011 13.0266 13.0349 12.7043 12.9211 12.6036C13.2261 12.9522 12.9228 12.6727 12.6886 12.4655C12.4996 12.2532 12.7585 12.4711 12.5931 12.2908L12.1243 11.8311L12.5235 12.2407L12.3623 12.1563C12.3785 12.1699 12.3897 12.1792 12.4071 12.1938C13.1092 12.8603 12.4089 12.3082 13.1347 12.9841Z" fill="white"/>
<path d="M13.067 12.9415C13.0218 12.9011 12.9813 12.8664 12.948 12.8413C13.0132 12.9053 13.0422 12.9264 13.067 12.9415Z" fill="white"/>
<path d="M15.7993 15.8008C15.8362 15.8342 15.8762 15.8703 15.9266 15.9158C15.9026 15.8941 15.847 15.8439 15.7993 15.8008Z" fill="white"/>
<path d="M6.42564 7.40801C6.42495 7.38467 6.04956 6.9627 6.0271 6.99932C6.14243 7.12071 6.25855 7.24307 6.37515 7.36582L6.42564 7.40801Z" fill="white"/>
<path d="M14.8604 23.4826C14.9056 23.4392 14.9505 23.3949 14.9945 23.3499C15.0023 23.3388 15.01 23.3278 15.0159 23.3193C14.9844 23.3422 14.902 23.4355 14.8604 23.4826Z" fill="white"/>
<path d="M13.6474 13.3252C13.5697 13.2566 13.5325 13.2287 13.5103 13.2158C13.5599 13.2607 13.6074 13.3007 13.6474 13.3252Z" fill="white"/>
<path d="M14.765 23.4375C14.7001 23.4856 14.6038 23.5562 14.5807 23.5567C14.4647 23.6722 14.3989 23.7689 14.2866 23.8923C14.4153 23.755 14.5722 23.6041 14.765 23.4375Z" fill="white"/>
<path d="M14.2776 23.9022C14.2807 23.8988 14.2838 23.8953 14.2867 23.8921L14.2776 23.9022Z" fill="white"/>
<path d="M6.6501 7.65745C6.68642 7.68978 6.72382 7.72298 6.7623 7.75716L6.69922 7.70989C6.78789 7.80462 6.87617 7.89876 6.96445 7.9931C6.99941 8.02425 7.03711 8.05833 7.08213 8.1013C7.06338 8.0846 7.04638 8.07396 7.03466 8.06868C7.06318 8.09964 7.09121 8.12982 7.11914 8.15999C7.36806 8.34778 7.93398 8.86898 8.10869 9.00774C8.3292 9.20208 8.59052 9.44857 8.74746 9.61019C8.60048 9.46194 8.39843 9.2722 8.44033 9.34788C8.72236 9.66517 8.81728 9.86155 9.37812 10.3352L9.07412 10.0325L9.82177 10.6489C10.0335 10.9151 9.44863 10.3412 9.33027 10.2702C9.89306 10.7683 10.2477 11.2958 10.5506 11.4849C10.5515 11.5533 10.5533 11.6676 10.9048 12.0123C10.6923 11.7229 11.1382 12.1962 10.9733 11.9492C11.113 12.0502 11.3495 12.3496 11.3947 12.3445L11.3481 12.3259C11.8891 12.9736 12.1673 13.0845 12.449 13.3112C13.1743 14.009 13.4793 14.3576 14.0653 14.9324C14.0656 14.9778 14.1614 15.1979 14.3967 15.4284C14.5355 15.5061 15.0748 16.0171 15.1677 16.0315C14.7677 15.5989 14.7943 15.7238 14.5359 15.4837C14.3695 15.2352 14.5577 15.4243 14.2989 15.1164C14.5116 15.3611 15.3535 16.1283 15.5654 16.4172L15.4716 16.3342C15.8479 16.7574 15.8275 16.9305 16.552 17.5379L16.8938 17.8317C16.8746 17.8202 16.8683 17.8232 16.8565 17.8185C17.1146 18.0806 17.197 18.1872 17.291 18.2958C17.3146 18.3231 17.3384 18.3498 17.367 18.3804C17.3977 18.4132 17.4324 18.4487 17.4744 18.49C17.5586 18.5728 17.671 18.6775 17.8472 18.8362C17.7928 18.7871 17.8166 18.8196 17.7622 18.7705C17.8314 18.8491 17.904 18.925 17.98 19.0004C17.8413 19.1403 17.717 19.2796 17.5953 19.418C17.5334 19.4884 17.4735 19.5565 17.4163 19.6215C17.3636 19.6804 17.3134 19.7365 17.2663 19.789C17.0826 19.9075 17.27 19.721 17.3398 19.6038C16.7515 20.1671 16.186 20.8446 15.8683 21.2419L15.4778 21.594C15.6845 21.3603 15.9192 21.0569 15.8322 21.1043C15.6347 21.315 15.6896 21.2909 15.3947 21.5734C15.423 21.5032 15.5247 21.3626 15.6342 21.2006C15.0021 21.7628 15.5747 21.4081 15.0928 21.7619C14.9048 21.9492 14.8263 22.0886 14.831 22.1343L14.4582 22.4411C14.4525 22.5111 14.0348 22.9325 13.7646 23.2122C13.7449 23.2596 14.0202 23.0251 14.1121 22.9085C14.1168 22.9543 13.8361 23.2586 13.6475 23.4463C13.5112 23.4479 12.4255 24.6878 12.5685 24.386C11.7453 25.253 10.5649 26.4469 10.0353 27.0328C9.83281 27.1981 9.45703 27.572 9.65 27.3158C8.96953 27.9957 8.68779 28.4157 7.99414 29.0724C7.92988 29.1199 8.29883 28.7665 8.25234 28.7682C7.83799 29.2365 7.4209 29.5426 6.7541 30.2453C6.86806 30.129 6.88779 30.0815 6.89678 30.0584C6.91992 30.0576 6.63945 30.3621 6.47304 30.5501C6.36767 30.6439 6.59756 30.4095 6.5332 30.4568C5.17773 31.7468 4.26152 32.8461 2.94287 34.1587C3.31943 33.7838 3.41689 33.5973 3.40264 33.5749L3.03379 33.9422C2.91426 34.1064 2.63779 34.3826 2.42344 34.6304C2.38672 34.6504 2.26524 34.7538 2.36944 34.6285C1.9833 34.9695 1.71973 35.2738 1.43848 35.6013C1.36797 35.683 1.29629 35.7661 1.22198 35.8522L1.19434 35.8842L1.17783 35.9099C1.16651 35.9266 1.15342 35.9421 1.14785 35.9622C1.12989 35.9983 1.12071 36.0388 1.11739 36.0795C1.11446 36.1206 1.11836 36.163 1.13115 36.2034C1.13887 36.2223 1.14336 36.2474 1.15293 36.2572C1.15684 36.2638 1.15996 36.2708 1.1626 36.2784L1.16465 36.2843L1.17295 36.2942L1.18955 36.314L1.22305 36.3541L1.22725 36.3593L1.22774 36.3599C1.2043 36.3339 1.22149 36.353 1.21631 36.3472L1.21719 36.3478L1.21895 36.3492L1.22588 36.3542L1.23946 36.3647L1.26582 36.3872C1.27637 36.3921 1.28672 36.3974 1.29707 36.403C1.31914 36.4182 1.33496 36.4185 1.35108 36.427C1.35488 36.4322 1.37588 36.4343 1.3957 36.4364C1.41494 36.4386 1.43438 36.4409 1.45391 36.4433C1.45391 36.4433 1.42998 36.443 1.38809 36.4424C1.3792 36.4419 1.3626 36.4431 1.35684 36.441C1.35078 36.4392 1.34434 36.4377 1.33701 36.4364C1.32979 36.4351 1.32178 36.4343 1.3127 36.4338C1.30244 36.4297 1.2916 36.4254 1.28028 36.4208C1.25557 36.4147 1.2334 36.3992 1.20879 36.383L1.19922 36.3771L1.19434 36.3742L1.1919 36.3727L1.19131 36.3723L1.19102 36.3722C1.18252 36.3627 1.20225 36.3847 1.2001 36.3824L1.19873 36.3809L1.17647 36.3579C1.16162 36.3425 1.14639 36.3267 1.13096 36.3107C1.10391 36.2725 1.06582 36.2023 1.05713 36.1277C1.05147 36.0531 1.06494 35.9754 1.09756 35.9081C1.11817 35.8761 1.13359 35.8479 1.16074 35.8158C1.18731 35.7843 1.2124 35.7546 1.23565 35.7273C1.32832 35.6177 1.39014 35.5447 1.39014 35.5447L1.0919 35.7803L1.52529 35.265C1.21875 35.5275 1.02442 35.8145 0.964553 35.8513C0.970999 35.8275 0.989651 35.801 1.01104 35.7726C1.02168 35.7583 1.03281 35.7437 1.04395 35.729C1.05479 35.7169 1.06563 35.7048 1.07598 35.6932C1.11738 35.6464 1.15078 35.6054 1.14385 35.5939C1.07217 35.6607 1.021 35.7031 0.972658 35.7681C0.947853 35.7958 0.933693 35.8262 0.920705 35.8543C0.907717 35.8824 0.894729 35.9076 0.890432 35.9351C0.884866 35.9617 0.879494 35.9874 0.873928 36.0138C0.873342 36.0404 0.872659 36.0676 0.871975 36.0967C0.869339 36.1254 0.876858 36.1558 0.88135 36.1891C0.884084 36.2229 0.895607 36.2578 0.909279 36.2969C0.86172 36.1986 0.843851 36.0658 0.882718 35.9311C0.901858 35.8647 0.932424 35.7958 0.980276 35.7368C0.991311 35.7223 1.00391 35.7044 1.01446 35.6924L1.0458 35.657C1.0669 35.6333 1.08838 35.6094 1.11006 35.5852C1.28389 35.3916 1.47734 35.1844 1.67344 34.978C2.06758 34.567 2.46524 34.1525 2.74356 33.8621C2.82764 33.7673 2.68359 33.9553 2.67471 33.9782C2.90439 33.7439 3.06514 33.6261 3.34512 33.3221C3.49746 33.1118 3.18545 33.4391 3.03848 33.58C3.03301 33.5349 3.10693 33.464 3.26338 33.2999C3.33193 33.2989 4.15518 32.432 4.40293 32.2666C5.24863 31.3996 4.17871 32.3163 5.0293 31.495L5.31758 31.2838C5.77314 30.7687 6.37441 30.1145 6.93183 29.5735L6.81738 29.6904C6.75674 29.784 6.89433 29.6667 6.95918 29.6189C7.39072 29.2203 7.71689 28.8005 8.00693 28.5877C8.43925 28.0733 9.19814 27.2538 9.71816 26.6914C9.91503 26.5962 9.05527 27.4406 8.86191 27.6976L9.35429 27.2046C9.05048 27.5099 8.94951 27.6495 8.79589 27.861C9.23711 27.4387 9.33457 27.2522 9.73105 26.8299C9.71298 26.8756 9.77617 26.8294 9.96542 26.641L9.98525 26.5535C9.9915 26.5529 10.0149 26.5346 10.0754 26.4784L10.783 25.7294C10.6141 25.8696 10.5772 25.8476 10.3887 26.0354C10.4756 25.9879 10.3198 26.1514 10.131 26.3391C10.2739 26.1521 9.9288 26.504 9.91455 26.4819C10.2929 26.1054 10.7521 25.637 10.9904 25.3803L11.1019 25.331C11.4695 24.9791 11.8321 24.5819 12.0851 24.347L12.0247 24.4405C12.4658 24.0184 12.8707 23.5734 13.2842 23.2205C13.6336 22.8 14.0887 22.2859 14.3661 21.934C14.4943 21.7255 15.5461 20.8547 15.9236 20.3643C15.9571 20.3394 15.6558 20.6925 15.5228 20.8558C15.8178 20.5733 15.9974 20.2939 16.1302 20.2456C15.4681 20.8793 16.1986 20.2445 15.9188 20.5485C16.2214 20.2444 16.5336 19.9168 16.6673 19.753C16.1768 20.2442 16.7833 19.5201 16.3047 20.0356C16.471 19.8354 16.674 19.6082 16.892 19.3774C16.9616 19.304 17.0326 19.2292 17.1034 19.1549C17.155 19.1025 17.2083 19.0513 17.2646 19.0002C17.2548 18.9892 17.2456 18.9787 17.2364 18.9685C17.2729 18.9685 17.2622 18.9408 17.1832 18.8467C17.1813 18.8449 17.0758 18.7921 17.0776 18.794C17.029 18.7405 17.087 18.7828 17.1383 18.8173C17.1887 18.8509 17.2323 18.8766 17.1188 18.7536C17.0774 18.7237 17.0579 18.7117 16.9748 18.6338C16.9049 18.5689 16.8313 18.498 16.7561 18.4238C16.6073 18.2737 16.4483 18.1135 16.2971 17.9611C15.9951 17.6559 15.7195 17.3867 15.5804 17.3311C15.2744 16.9591 16.2589 17.9428 15.7885 17.3913C16.1159 17.6583 16.4913 18.103 16.631 18.1592C16.3278 17.8798 16.56 18.0176 16.3726 17.8292L16.0219 17.5301L16.0922 17.6035C15.5075 17.0977 14.6626 16.215 13.9597 15.5253C13.3277 14.9777 12.861 14.6324 12.1582 13.9204C12.3917 14.1046 11.5945 13.3092 12.085 13.7093C11.7794 13.3602 11.4305 13.0628 11.4059 13.0745C11.6876 13.3689 11.5013 13.1817 11.7349 13.4332C11.549 13.2915 11.1726 12.9131 11.0319 12.7436C11.1022 12.817 11.0791 12.7855 11.1019 12.7944C10.7729 12.4357 10.9151 12.6516 10.6573 12.4122C10.6095 12.3025 10.117 11.8552 9.90605 11.6123L9.53291 11.3274C9.74267 11.4792 9.22812 11.0015 9.20302 10.9229C8.94668 10.7074 8.71279 10.5454 8.36123 10.1783C8.5248 10.3116 8.05527 9.82855 8.07841 9.7929C7.49121 9.14935 6.9791 8.85404 6.43847 8.22913C6.46347 8.24036 6.60049 8.3386 6.4375 8.16087C6.29512 8.03489 6.06357 7.79651 5.9168 7.65618L5.92217 7.65989C5.91904 7.65745 5.91709 7.65589 5.91387 7.65325C5.84199 7.5845 5.79414 7.54398 5.78525 7.54935C5.51074 7.33245 5.35459 7.23519 4.84658 6.77601C4.84834 6.84525 5.26973 7.24036 5.45732 7.40638L5.64336 7.52591C5.73857 7.72278 6.08838 7.95316 6.18242 8.08148C5.83271 7.85101 5.01191 7.00091 4.47402 6.53626C4.73262 6.8888 5.39014 7.56097 5.97578 8.13529L5.74053 7.8596L6.04463 8.16253L5.78672 7.83294C6.06787 8.12669 6.32558 8.36605 6.5834 8.62786C6.27851 8.32435 6.20654 8.15941 6.37129 8.3389C6.67724 8.71097 6.74609 8.67054 7.00322 8.93177C6.86201 8.78441 6.675 8.59622 6.81523 8.69788C7.28564 9.24925 7.45 9.36087 7.87148 9.86878C7.87002 9.75501 8.45761 10.4438 8.57324 10.4673L8.3623 10.247L8.85361 10.6703C9.22988 11.1381 8.4333 10.3433 9.04306 11.0179C9.62998 11.6161 9.67373 11.5418 10.1439 12.0033C9.95712 11.883 9.55917 11.5421 9.18418 11.1653L9.3958 11.4089C9.25615 11.3077 8.74023 10.7838 8.48271 10.5223C8.9497 10.9129 8.29375 10.3099 8.12861 10.0849C8.06054 10.0813 8.34091 10.3515 7.99004 10.0523C8.29521 10.3562 8.34238 10.3981 8.71767 10.7976C7.89492 9.94554 7.85293 10.1564 7.14902 9.39837C7.50049 9.72073 7.07803 9.23441 7.05312 9.17825C6.89072 9.02366 6.56142 8.7097 6.42119 8.58548L6.49443 8.75179C6.04853 8.34603 5.99912 8.09964 5.45967 7.65609C5.36797 7.62005 5.88252 8.09778 5.78877 8.01478C5.08711 7.37161 4.91982 7.05443 4.35772 6.4223C4.30996 6.40247 4.2875 6.4389 4.054 6.25472C4.14756 6.29241 4.00732 6.12357 4.26269 6.33812C4.0749 6.12669 3.81787 5.91077 3.63096 5.74544C4.03008 6.17737 3.4208 5.61556 3.32754 5.55569C3.11699 5.33577 3.421 5.59349 3.56152 5.7178C3.39619 5.53753 3.23193 5.29095 3.09199 5.2347C3.11455 5.19847 3.65244 5.64046 3.98047 5.95316L3.76924 5.73245C3.93311 5.86624 3.95664 5.89827 4.1665 6.11722C3.97939 5.8846 4.02529 5.88011 4.09512 5.90804C4.11836 5.93987 4.07275 5.89974 4.09492 5.93021C4.26006 6.11038 4.40049 6.2348 4.37607 6.17903C4.5708 6.29476 4.16133 5.91487 4.06406 5.77825C3.97305 5.69251 3.88203 5.60677 3.79277 5.52269L2.76904 4.75267C2.37109 4.38421 2.2291 4.18157 1.96045 3.87464L1.84756 3.82952C1.51768 3.49261 1.21367 3.16722 1.47041 3.33792C1.4711 3.36126 1.51778 3.40267 1.58858 3.47659C1.60274 3.48157 1.62276 3.49495 1.64649 3.51341C1.65547 3.51829 1.66123 3.52025 1.66895 3.52396C1.30039 3.17835 1.07022 2.96263 1.04902 2.94271C1.70459 3.49984 1.14082 2.91146 1.30254 2.95277C1.30254 2.95277 1.14453 2.80462 0.986525 2.65638C0.946974 2.61937 0.907522 2.58226 0.870511 2.54759C0.852054 2.53021 0.834084 2.51341 0.817092 2.49749C0.792385 2.46966 0.769045 2.44329 0.747463 2.41898C0.740822 2.41126 0.734377 2.40404 0.728322 2.397C0.726369 2.39544 0.720315 2.38675 0.714749 2.37835C0.709378 2.37025 0.704202 2.36234 0.699124 2.35472C0.679104 2.32386 0.662892 2.29583 0.650197 2.27259C0.624514 2.22562 0.612991 2.19847 0.61426 2.19984C0.639358 2.2639 0.672659 2.32425 0.701077 2.37161C0.707229 2.38177 0.717972 2.39935 0.720022 2.40179C0.723343 2.40648 0.726565 2.41107 0.72969 2.41546C0.735843 2.42425 0.741409 2.43226 0.746487 2.43968C0.756448 2.45462 0.764455 2.46673 0.770803 2.4763L0.77305 2.47991L0.773245 2.4803L0.801369 2.51146L0.801955 2.51224L0.803128 2.5138L0.807229 2.51947C0.80967 2.52308 0.811623 2.52591 0.813283 2.52835C0.819435 2.53821 0.817873 2.54027 0.810647 2.53646C0.807034 2.5345 0.801955 2.53109 0.795802 2.5264L0.790921 2.52269L0.790627 2.52249L0.761428 2.49027L0.760843 2.48968L0.75967 2.48851L0.757229 2.48616C0.753909 2.48284 0.750295 2.47923 0.746389 2.47542C0.730666 2.45941 0.713088 2.44154 0.691017 2.41683C0.650295 2.36048 0.608303 2.29144 0.575685 2.22181C0.55381 2.16282 0.533108 2.10169 0.519437 2.04437C0.509866 1.98626 0.503615 1.93177 0.499709 1.88734C0.503811 1.87493 0.511331 1.84515 0.517873 1.80169C0.525686 1.75823 0.530667 1.70071 0.553128 1.63558C0.562991 1.60286 0.574319 1.56761 0.58721 1.53089C0.603519 1.49554 0.622365 1.45853 0.642873 1.42054C0.662112 1.38148 0.687599 1.34515 0.716896 1.30931C0.731447 1.29144 0.746194 1.27327 0.761233 1.25482L0.784474 1.22767L0.787404 1.22425L0.821683 1.19329L0.825295 1.19017L0.83262 1.18392C0.852151 1.16712 0.871974 1.14993 0.891994 1.13265C0.932912 1.10247 0.994045 1.06507 1.04844 1.03724L1.09082 1.01644L1.12676 1.00374L1.19942 0.980403C1.24785 0.963899 1.29717 0.956282 1.34668 0.951399C1.44502 0.936555 1.5417 0.948078 1.62959 0.961848C1.71651 0.983918 1.79678 1.00706 1.85977 1.04466L1.81729 1.03431C1.87559 1.06683 1.94199 1.09886 1.99922 1.15091C2.02842 1.17513 2.06016 1.20267 2.0875 1.22825C2.10254 1.24398 2.11797 1.26019 2.13379 1.27669C2.19795 1.34163 2.26738 1.41204 2.33848 1.48402C2.48203 1.6265 2.63428 1.77259 2.76279 1.89193C2.76279 1.86927 3.13623 2.13206 3.32236 2.25159C2.90947 1.81341 3.17559 2.05238 3.1624 1.9973C3.20459 2.0432 3.2833 2.12279 3.29688 2.12767C3.36738 2.17894 3.22705 2.03216 3.22617 2.00902C2.99219 1.79075 2.75772 1.56634 2.55274 1.37943C2.45029 1.28597 2.35518 1.20189 2.27129 1.13255C2.24551 1.11165 2.2208 1.09154 2.19727 1.07249C2.15361 1.03763 2.11035 1.00667 2.06895 0.979622C1.98457 0.928255 1.90068 0.897395 1.83262 0.876301C1.92764 0.927961 2.01768 0.973665 2.09063 1.03548C2.12686 1.06361 2.16904 1.09808 2.19697 1.1222L2.24678 1.1639C2.31397 1.21907 2.38418 1.27552 2.45479 1.36038C2.39082 1.31224 2.3251 1.25775 2.25674 1.1971C2.23975 1.18187 2.22246 1.16634 2.20498 1.15052L2.17363 1.1221C2.15381 1.1056 2.13389 1.0889 2.11377 1.0721C2.03447 1.00306 1.93809 0.951399 1.83565 0.905305C1.62705 0.823469 1.37979 0.80218 1.13653 0.875325C1.10606 0.884407 1.07569 0.89427 1.04551 0.904816C1.00869 0.921125 0.971292 0.939875 0.934866 0.960188C0.898342 0.980598 0.862405 1.00286 0.827932 1.0265C0.81719 1.03372 0.813771 1.03646 0.811623 1.03831L0.802639 1.04564L0.784378 1.06038L0.747658 1.09017L0.74297 1.09388L0.740725 1.09583L0.697464 1.13499L0.695315 1.13734L0.678225 1.15638L0.644533 1.19544C0.599904 1.24847 0.556253 1.30316 0.524221 1.36781C0.524221 1.36781 0.511136 1.38753 0.491409 1.41722C0.471292 1.447 0.447073 1.48792 0.4293 1.53245C0.409964 1.5763 0.392386 1.62171 0.380081 1.65599C0.368655 1.69046 0.364456 1.71439 0.364456 1.71439C0.364456 1.71439 0.362698 1.73284 0.359671 1.76527C0.358011 1.79779 0.351955 1.84417 0.355569 1.89945C0.359866 1.95472 0.366311 2.01976 0.379202 2.08743C0.39805 2.15599 0.416506 2.2223 0.44883 2.29749C0.469241 2.33997 0.492093 2.38187 0.516507 2.42171C0.528714 2.44163 0.541213 2.46097 0.554006 2.47972L0.573342 2.50726C0.581056 2.5181 0.579982 2.51536 0.583693 2.52005C0.604494 2.54349 0.623928 2.56536 0.640628 2.58411C0.654885 2.59993 0.669045 2.61556 0.68301 2.63089L0.686331 2.63402L0.692776 2.63997C0.696975 2.64388 0.700978 2.64749 0.704689 2.65101C0.712209 2.65794 0.718752 2.6639 0.724123 2.66888C0.734865 2.67884 0.741018 2.6845 0.741018 2.6845C0.719436 2.66663 0.701565 2.65296 0.686037 2.64193L0.680275 2.63792L0.677541 2.63597L0.677346 2.63587L0.637503 2.59183L0.637209 2.59163L0.636624 2.59114L0.635354 2.59007L0.625588 2.58206C0.61924 2.57718 0.613284 2.57259 0.60762 2.56829C0.595999 2.56009 0.585549 2.55267 0.574611 2.54495C0.569142 2.54105 0.563675 2.53704 0.557718 2.53284C0.5501 2.52581 0.53262 2.50335 0.519632 2.48646C0.491214 2.44906 0.459572 2.40296 0.426076 2.34202C0.418166 2.32679 0.409865 2.31077 0.401174 2.29398C0.395705 2.28011 0.389944 2.26566 0.383791 2.25042C0.372073 2.21966 0.360061 2.18519 0.348245 2.14652C0.308303 1.99486 0.265627 1.75794 0.384572 1.44827C0.36465 1.48392 0.31758 1.58011 0.298928 1.7221C0.290529 1.79349 0.281546 1.87513 0.292777 1.96419C0.297171 2.00872 0.302151 2.05521 0.311428 2.10218C0.323245 2.14886 0.33721 2.19691 0.353518 2.24525C0.372757 2.3262 0.476663 2.50238 0.530179 2.56722L0.576273 2.62034L0.632034 2.68245L0.644924 2.69466L0.670607 2.71927C0.739064 2.78499 0.806448 2.85159 0.864944 2.91458L1.02676 3.0013C0.95801 2.97435 1.47393 3.49837 1.07588 3.15755C1.07588 3.15755 0.917971 3.01497 0.759964 2.87239C0.72051 2.83675 0.680959 2.80111 0.643948 2.76771C0.63467 2.75941 0.625588 2.7512 0.616701 2.7431L0.603518 2.73118L0.597073 2.72532L0.59385 2.72239L0.593069 2.72171L0.544436 2.6681L0.542971 2.66644C0.527639 2.64954 0.513088 2.63353 0.499709 2.61868C0.492971 2.61126 0.486624 2.60423 0.480472 2.59749L0.478225 2.59495L0.47217 2.58675L0.459963 2.56986C0.452053 2.55853 0.444436 2.54749 0.437112 2.53675C0.408011 2.49339 0.384671 2.45364 0.366604 2.42054C0.330081 2.35355 0.314553 2.31507 0.316213 2.3178C0.31426 2.31478 0.329495 2.35892 0.360452 2.42513C0.375881 2.45794 0.395217 2.49603 0.417873 2.53548C0.434866 2.56341 0.453029 2.59329 0.471096 2.62308C0.486232 2.64886 0.501467 2.67454 0.512795 2.69388L0.563967 2.75071L0.564553 2.75159L0.565726 2.75325L0.568069 2.75638L0.572365 2.76224C0.575002 2.76595 0.577444 2.76907 0.579299 2.77171C0.583205 2.77698 0.585353 2.78001 0.585353 2.78001C0.585353 2.78001 0.577347 2.7722 0.563186 2.75853L0.560452 2.75589C0.542972 2.73655 0.5251 2.71683 0.506741 2.69652L0.501272 2.68997C0.497464 2.68548 0.493361 2.6806 0.488967 2.67532C0.480178 2.66488 0.470217 2.65296 0.459378 2.64017L0.451076 2.63031L0.44678 2.62523C0.445804 2.62415 0.444143 2.6221 0.438674 2.61439C0.421096 2.58997 0.403421 2.5638 0.386135 2.53636C0.351467 2.48138 0.318264 2.42034 0.289065 2.35648C0.266213 2.30091 0.251565 2.25169 0.235158 2.19593C0.22803 2.16859 0.220804 2.14095 0.213577 2.11331C0.208987 2.08529 0.20508 2.05687 0.201662 2.02835C0.165529 1.79974 0.21719 1.56868 0.277248 1.40716C0.311819 1.32786 0.346682 1.26361 0.37178 1.21976C0.396096 1.17503 0.414846 1.15345 0.414944 1.15345C0.414944 1.15345 0.411232 1.15911 0.404787 1.16907C0.398049 1.17874 0.389651 1.19349 0.380667 1.21195C0.36221 1.24847 0.338772 1.29808 0.318068 1.34818C0.295705 1.39769 0.281546 1.44945 0.272367 1.4888C0.263285 1.52806 0.257327 1.55413 0.257327 1.55413C0.269046 1.51019 0.282034 1.46771 0.295901 1.42708C0.310648 1.38685 0.330178 1.34935 0.348245 1.31253C0.366799 1.27591 0.386038 1.24095 0.405569 1.20755C0.425882 1.17503 0.449318 1.14593 0.471486 1.11702C0.493947 1.08841 0.516604 1.06126 0.539163 1.03548L0.556058 1.01644L0.564456 1.00716L0.566506 1.00482L0.567581 1.00364L0.623634 0.952961L0.625588 0.951399L0.640628 0.938899C0.660452 0.92259 0.679006 0.907356 0.696486 0.893001C0.795705 0.819368 0.945901 0.738996 1.02237 0.718293C1.10606 0.692805 1.1793 0.671223 1.24414 0.665364C1.37451 0.651008 1.46611 0.654719 1.5375 0.668781C1.60889 0.681672 1.66045 0.691731 1.70986 0.712434C1.75947 0.73138 1.80879 0.751497 1.87373 0.779329C1.93574 0.812825 2.01885 0.85218 2.11934 0.926692C2.14404 0.946028 2.17022 0.967414 2.19785 0.99095C2.21152 1.00286 2.22559 1.01527 2.24023 1.02806L2.26221 1.04798L2.27236 1.05814C2.29736 1.08255 2.32588 1.11038 2.35859 1.14222C2.42461 1.20521 2.50879 1.28275 2.61709 1.37991C2.91983 1.59154 3.20127 1.86321 3.69375 2.37786C3.31914 2.02366 3.62422 2.37259 3.46074 2.26185C3.81348 2.65257 3.97646 2.74046 4.18711 2.91556C4.25771 3.03421 4.30537 3.12122 3.97686 2.78568C3.88486 2.79446 4.42236 3.2138 4.40078 3.29593C5.50234 4.39446 5.44971 4.00989 6.6708 5.36058L6.60166 5.33333C7.44414 6.12376 7.89033 6.61986 8.66289 7.3595L9.20498 8.00804C9.06367 7.88304 8.66591 7.56487 8.80742 7.75765C8.57158 7.41419 8.2455 7.12571 7.9623 6.78489C7.9165 6.76702 8.03349 6.90413 8.08017 6.9681C7.89238 6.77933 7.82197 6.66077 7.56396 6.42132C7.56484 6.44446 7.82285 6.72903 7.61181 6.53118L7.30664 6.1598C6.83818 5.72298 7.00439 6.01614 6.48799 5.46927C6.61631 5.53861 6.86094 5.69769 7.07392 5.89652C6.8374 5.6472 7.41572 6.20247 7.21162 5.96312C6.81787 5.65687 6.68359 5.45325 6.19082 5.01536C6.25156 5.0639 6.27461 5.06976 6.3918 5.18157L5.73506 4.48782C5.87656 4.6805 5.14912 3.95823 5.17392 4.05902C5.87773 4.79437 5.68926 4.55989 6.48769 5.40159C6.24697 5.17806 5.90889 4.91741 5.73301 4.81282C5.72734 4.80423 5.7167 4.79114 5.69219 4.76527C5.5293 4.67767 5.64687 4.81546 5.57861 4.87884C5.99971 5.20638 6.21142 5.49515 6.67988 5.9097C6.79892 5.95667 6.46963 5.60755 6.24092 5.39739L6.65381 5.76243L6.56064 5.70247L7.53584 6.70179C7.34677 6.51663 7.2624 6.47405 7.14902 6.39212C7.275 6.52093 7.3916 6.65657 7.51533 6.8012C7.52148 6.7386 7.56357 6.73206 7.6872 6.85696C8.31416 7.50032 8.63642 7.88431 8.83154 8.15804C8.85673 8.18157 8.88505 8.20823 8.90791 8.22952C8.83671 8.08782 9.42236 8.61722 9.65517 8.77806C9.60898 8.80472 9.96064 9.12728 10.1252 9.32894C10.2644 9.3846 10.1922 9.19681 10.0034 8.93978C9.53564 8.54857 9.72421 8.73773 9.46699 8.589L8.74189 7.93616L8.92929 8.05677C8.60009 7.69818 8.22578 7.41195 8.29443 7.39378C8.50498 7.54652 8.7875 7.86409 8.99677 8.01536L8.78515 7.772C9.2291 8.1306 8.9498 8.01878 9.46543 8.47493C9.32353 8.25931 9.5121 8.51634 9.74492 8.69974C9.60351 8.50696 8.8789 7.85472 9.08759 7.93802C9.36767 8.16331 9.86425 8.86165 10.2609 9.13362L10.2374 9.12435C10.7226 9.62562 10.9316 9.76312 11.1388 9.92523C11.3283 10.1554 11.6467 10.4165 11.8765 10.6417L11.8526 10.6543L12.1811 10.9676C11.9951 10.8481 11.806 10.5907 11.5255 10.3199L11.5259 10.388C11.2483 10.03 10.9752 9.87923 10.6996 9.66195C11.0877 9.99134 11.7041 10.683 11.8546 10.7011L12.0423 10.9572L12.1608 11.051C12.3005 11.242 12.0913 11.1135 11.7632 10.8006C11.716 10.7364 11.6924 10.7043 11.7164 10.7141C11.5524 10.5805 11.3895 10.4701 11.0373 10.1023L11.2474 10.2765C10.8016 9.82581 10.3809 9.43128 10.194 9.31116C10.827 9.97249 11.4605 10.6118 12.0698 11.218C12.3256 11.3206 12.5811 11.4904 12.7437 11.5106C13.1646 11.9052 13.7279 12.449 14.056 12.8291L14.0094 12.8107C14.1749 12.9908 14.338 13.1461 14.4789 13.2708C14.6429 13.4721 14.3163 13.1835 14.4334 13.3208L15.0414 13.881C14.9731 13.8772 14.4815 13.3859 14.2459 13.1548C14.2927 13.1961 14.3869 13.2797 14.3627 13.2468C14.1044 12.962 13.5438 12.5112 13.4719 12.3459C13.3314 12.2218 13.775 12.5802 13.3296 12.1301C13.0473 11.8127 12.9079 11.7569 12.8626 11.7395C12.8394 11.7529 13.3082 12.2351 13.1211 12.092C13.3567 12.3231 13.4731 12.3925 13.754 12.7085C13.5205 12.4795 13.1694 12.2024 13.0745 12.0508C12.5832 11.6276 12.5632 11.7787 12.774 11.9992C12.7496 11.9209 13.6414 12.8003 13.0768 12.1657C13.3807 12.4005 13.873 12.8924 14.247 13.2233L14.2241 13.2142L14.6702 13.6431C14.599 13.591 14.4586 13.4669 14.4361 13.4807L15.091 14.0377C14.7171 13.7295 15.2797 14.272 15.4203 14.4417C15.5132 14.4787 15.7703 14.695 15.5592 14.4519C15.3241 14.1763 15.3954 14.3184 15.1611 14.0884L15.5339 14.3731L15.5577 14.4056L15.7917 14.5674C16.237 15.0177 15.5124 14.4555 16.1214 14.9941L16.0958 14.8703C16.7528 15.5418 17.5506 16.4501 18.0427 16.8968C17.8853 16.7952 17.7833 16.783 17.9348 16.9877C17.7408 16.7769 17.3323 16.3719 17.0375 16.0863C16.9903 16.0217 17.4583 16.3909 17.763 16.7168C17.6906 16.4836 16.9213 15.9722 16.9656 15.8536C16.1906 15.0217 16.2879 15.3328 15.6536 14.603C15.6078 14.6299 15.442 14.4269 15.374 14.4231C15.5166 14.6843 16.2878 15.3327 16.7096 15.7961C16.6636 15.7554 16.571 15.6737 16.5471 15.6635C16.8528 15.9906 16.9916 16.1131 17.2261 16.3206L17.2025 16.2885C17.6242 16.6391 17.4143 16.5546 17.6256 16.7979C17.719 16.8806 18.0246 17.2071 18.0005 17.1295L18.3774 17.5756L18.3982 17.5152C18.6327 17.745 18.6566 17.8226 18.8919 18.0082L18.938 17.9817L18.3741 17.3925C18.6782 17.6728 18.4904 17.4391 18.8191 17.7526C18.6199 17.5931 18.6784 17.6616 18.7867 17.7785C18.8409 17.837 18.9076 17.9076 18.9608 17.9679C18.9874 17.9981 19.0107 18.0256 19.0274 18.0478C19.0359 18.0591 19.042 18.0681 19.0474 18.0773C19.0555 18.0896 19.0603 18.099 19.0616 18.1046C19.0616 18.1046 19.1574 18.1992 19.2534 18.2937C19.3021 18.3419 19.3509 18.3902 19.3874 18.4263C19.4214 18.464 19.4344 18.4935 19.4359 18.4928C19.4359 18.4928 19.4157 18.4658 19.3956 18.4387C19.3691 18.4147 19.3428 18.3907 19.3428 18.3907C19.3587 18.4111 19.3754 18.4297 19.389 18.4485C19.3996 18.4684 19.4099 18.4873 19.4195 18.5054C19.4387 18.5418 19.4603 18.5728 19.4711 18.6071C19.485 18.6399 19.4977 18.6706 19.5103 18.7006C19.5214 18.7312 19.5285 18.7623 19.5382 18.7934C19.5602 18.855 19.5661 18.9227 19.5749 19.0031C19.5736 19.0434 19.5713 19.0873 19.567 19.1359C19.5601 19.184 19.5454 19.2357 19.5319 19.2938C19.6245 19.0263 19.6093 18.7688 19.5041 18.5361C19.4562 18.4182 19.3485 18.3185 19.2459 18.203C19.1948 18.1477 19.1342 18.0823 19.0816 18.029C19.0437 17.9946 19.0031 17.9589 18.9593 17.9214C18.9912 17.9487 19.0269 17.9793 19.0655 18.0122C19.0764 18.0223 19.0818 18.0251 19.0976 18.0413C19.113 18.057 19.1286 18.0729 19.1444 18.0889C19.1762 18.1213 19.2086 18.1544 19.2416 18.1883C19.3082 18.2569 19.3769 18.3278 19.446 18.399C19.5037 18.4756 19.5511 18.5576 19.5831 18.6457C19.6495 18.8203 19.6699 19.0036 19.6499 19.1522C19.635 19.2248 19.627 19.2926 19.6069 19.3455C19.5872 19.3985 19.5743 19.4437 19.5589 19.4734C19.5059 19.6064 19.3963 19.7065 19.3081 19.8077C19.2214 19.9021 19.1122 20.0221 19.073 20.0515C18.9641 20.1494 18.8546 20.243 18.7363 20.3573C18.9521 20.1269 18.8854 20.1383 18.88 20.0989C18.8772 20.0792 18.8897 20.0468 18.9603 19.965C19.0087 19.9114 19.0739 19.839 19.1625 19.7407C19.2149 19.684 19.2744 19.6199 19.3416 19.5472C19.3708 19.5089 19.3939 19.465 19.423 19.4202C19.4435 19.3714 19.4685 19.3205 19.4861 19.2638C19.4882 19.2998 19.4292 19.4447 19.3867 19.4896C19.4364 19.4432 19.4931 19.3511 19.5238 19.2267C19.5614 19.104 19.5633 18.9473 19.522 18.7974C19.5056 18.7209 19.4703 18.65 19.4378 18.5798C19.3942 18.5155 19.3561 18.4504 19.2951 18.3996C19.1867 18.295 19.0874 18.1992 19.0104 18.1249C19.0328 18.1772 18.9686 18.1248 18.9651 18.1363C18.95 18.1329 18.9979 18.1966 19.2283 18.4602C19.1945 18.4151 19.207 18.4165 19.2532 18.4542C19.2644 18.4637 19.2789 18.475 19.2933 18.4893C19.3052 18.5049 19.3186 18.5225 19.3335 18.542C19.3475 18.5621 19.3652 18.5829 19.3795 18.6081C19.3921 18.6343 19.4056 18.6623 19.4197 18.6918C19.4697 18.8121 19.5078 18.975 19.4791 19.1449C19.4512 19.3145 19.3768 19.4805 19.2429 19.6005C19.2429 19.6005 19.2452 19.569 19.2475 19.5374C19.2508 19.5071 19.2482 19.4766 19.2471 19.476C19.2504 19.4776 19.2086 19.5208 19.1469 19.5859C19.0861 19.6495 19.0052 19.7345 18.9243 19.8196C18.8036 19.9369 18.6828 20.0542 18.6828 20.0542L18.7247 20.0071C18.5087 20.1493 18.2238 20.5221 17.8743 20.8283C17.658 21.0854 16.7337 21.9773 17.1844 21.6464C16.8543 21.9048 16.6416 22.2088 16.3282 22.5375L16.7518 22.1607C16.3196 22.6748 16.4294 22.5121 16.1159 22.956C16.062 22.9785 15.9647 23.0501 16.0251 22.9568C15.3864 23.5895 14.4623 24.4812 14.1362 24.901C13.6856 25.3466 13.5479 25.3494 12.9457 26.0047C12.8213 26.1451 13.1023 25.955 12.6696 26.3548C12.6374 26.3785 13.028 25.9117 12.5689 26.3797C12.2828 26.7539 11.7692 27.1308 11.3779 27.5986C11.1353 27.8094 10.7478 28.2089 10.7949 28.0921C11.162 27.7409 11.6631 27.2252 11.7238 27.1311C11.6952 27.2017 11.9996 26.8959 11.7511 27.1769C12.3204 26.6603 12.0819 26.8029 12.5871 26.3337C12.6067 26.2863 12.298 26.5456 12.2061 26.6624C12.1563 26.6171 13.1436 25.679 12.6536 26.0549C12.129 26.5713 12.0737 26.8251 11.5725 27.226C11.7244 27.0162 12.0316 26.7579 12.2114 26.4783L11.8216 26.8298L11.587 27.1332L11.596 27.1103C10.8977 27.7214 11.0394 27.7649 10.4775 28.3745C10.8499 28.0682 10.4815 28.5355 10.7571 28.3004C10.3715 28.6982 10.0774 28.9795 10.0271 28.9345C10.7211 28.1629 10.0184 28.8426 10.6483 28.1176C10.5201 28.2118 10.7399 27.8867 10.3311 28.2852C9.91006 28.7741 10.5067 28.1888 10.0687 28.6581C10.0377 28.6806 10.0056 28.7042 10.0144 28.6814C9.83056 28.9148 9.7621 28.9158 9.53691 29.1958L9.5872 29.1264C9.24697 29.4088 9.27939 29.4996 8.97988 29.7362C9.12236 29.6644 8.8289 29.9451 8.68476 30.1333C8.96972 29.8749 9.16757 29.7786 9.70078 29.24C9.7375 29.1473 9.68291 29.1709 9.88955 28.9371L9.54453 29.289C9.61513 29.2093 9.66513 29.1448 9.72841 29.0703L10.0776 28.7502C9.67334 29.1945 9.89775 29.0297 9.74648 29.2391C9.34599 29.6152 9.43378 29.5671 9.18056 29.8023C9.16416 29.7367 8.36181 30.4808 7.88847 30.9016C7.95849 30.8326 8.04873 30.7438 8.09756 30.6958C8.39638 30.3451 7.83994 30.8851 7.8167 30.8858L7.60049 31.143C7.64218 31.0956 7.69424 31.0243 7.5875 31.1196C7.2747 31.4475 7.33398 31.4696 7.02187 31.7971C6.97519 31.7986 7.21142 31.4939 7.00068 31.6809C6.9124 31.7298 6.6416 31.8957 6.23662 32.3408C6.21513 32.3794 6.10986 32.4945 5.98584 32.6259C6.00234 32.607 6.02373 32.5838 6.03017 32.5742L5.72334 32.832C5.92529 32.553 6.22793 32.3637 6.43096 32.0833L6.41484 32.0261C6.60283 31.8378 6.84248 31.5666 6.94101 31.4301C6.64804 31.7107 6.59717 31.7807 6.28408 32.109C6.21601 32.1308 6.42471 31.8876 6.45478 31.8527L6.42783 31.9213C6.84072 31.5692 6.96465 31.3144 7.44746 30.845C7.5208 30.7746 7.47968 30.8212 7.4706 30.8442C7.8205 30.4232 8.24736 30.0936 8.57529 29.6722L8.47236 29.8136C8.70976 29.541 9.17421 29.0077 9.63818 28.4749L9.62792 28.4566C9.56406 28.5033 9.75166 28.3167 9.85781 28.2222L9.85751 28.223C10.0909 27.9565 10.3152 27.7003 10.4986 27.4909C10.427 27.545 10.3392 27.618 10.2449 27.7082C10.1835 27.8032 9.71181 28.2474 9.81259 28.2227C9.57802 28.4114 9.27001 28.7852 9.10019 28.9261C9.40781 28.6675 8.93896 29.1592 8.91035 29.2297C8.79111 29.3009 8.49257 29.651 8.49736 29.5817C8.4331 29.6291 8.65781 29.4641 8.75898 29.3243C9.02549 28.9977 8.18955 29.8408 8.53037 29.4428C8.0832 29.9353 7.4541 30.5446 6.99922 31.059L7.28369 30.8009C7.06357 31.0116 6.56084 31.5286 6.50713 31.5512C6.66347 31.3873 6.85097 31.2007 7.04931 30.9894C7.02285 30.943 6.55742 31.4818 6.51221 31.4821L5.97764 32.1371L6.24013 31.8787C6.09814 32.065 5.52676 32.5829 5.11787 32.9816C5.29971 32.7001 5.72568 32.3712 6.13047 31.9264C6.42012 31.5989 5.8918 32.0688 6.17187 31.7649C6.08457 31.829 5.89541 32.0209 5.81396 32.1275L5.68975 32.2336C5.90498 31.9278 6.49912 31.3538 6.84892 30.9261C6.81972 30.965 6.79502 30.9999 6.78955 31.016C7.10644 30.7342 7.40976 30.4295 7.68955 30.1257C7.5209 30.2658 7.46953 30.3366 7.38652 30.43C7.36435 30.4298 7.63496 30.1494 7.72675 30.0328C7.44209 30.2911 7.64941 30.0568 7.47021 30.2211C7.63623 30.0334 7.78261 29.8934 8.00283 29.6826C8.13164 29.588 7.93398 29.7987 7.9792 29.7983C8.18759 29.5629 8.34277 29.5152 8.6416 29.1646C8.20019 29.587 8.70664 29.0019 8.84033 28.838L8.7663 28.9089C8.87695 28.7456 8.99218 28.6283 9.11084 28.5576C8.94482 28.7452 8.7663 28.9089 8.84336 28.8853C8.95898 28.7674 9.07431 28.6498 9.19843 28.5095L9.09756 28.6491L9.67236 28.0631C9.74062 27.9476 9.86084 27.7608 9.90634 27.6456C10.067 27.5278 10.2431 27.3161 10.3668 27.1758L10.3153 27.247C10.5914 27.0112 11.1441 26.4247 11.1713 26.3558C11.3728 26.1915 10.0114 27.7816 11.2849 26.4694C11.7761 25.9777 11.5243 26.0966 11.7818 25.793C11.7818 25.793 11.7727 25.8156 11.805 25.7921C12.0249 25.582 12.0212 25.535 12.1873 25.3474C12.0481 25.4662 11.8608 25.6527 11.8102 25.7226C11.8472 25.63 12.2606 25.2771 12.4035 25.0903C12.2326 25.3472 12.8356 24.6909 12.6917 24.879C13.1471 24.4789 13.5704 23.9876 13.7634 23.7312C14.1076 23.4949 14.2653 23.2151 14.7613 22.7689C14.6873 22.8397 14.564 22.9791 14.4569 23.0746C14.2226 23.3774 14.9631 22.6044 14.581 23.049C14.6642 22.9552 14.5691 23.0245 14.4839 23.1205C14.3292 23.2829 14.1949 23.4473 14.2503 23.4231L14.6644 23.0694L14.5387 23.2117L15.1633 22.6709C15.1723 22.6483 15.109 22.6943 15.0767 22.718C15.7708 22.0607 16.5201 21.2647 17.1178 20.6782C17.1251 20.5743 17.4791 20.1996 17.8838 19.7837C17.9851 19.6799 18.0891 19.5732 18.192 19.4676C18.2433 19.4148 18.2944 19.3622 18.3446 19.3106C18.364 19.2903 18.3833 19.2701 18.4023 19.2501L18.435 19.2142C18.4778 19.1676 18.5184 19.123 18.5266 19.0703C18.5372 19.0195 18.524 18.9718 18.5007 18.9407C18.5348 18.9729 18.5648 19.0065 18.5923 19.0249C18.6203 19.0435 18.6483 19.0463 18.668 19.0137C18.6707 19.0572 18.672 19.1297 18.628 19.2016C18.6066 19.2374 18.576 19.2728 18.5432 19.3119C18.5262 19.3316 18.5095 19.35 18.4891 19.3709C18.46 19.4006 18.43 19.4301 18.3986 19.4593C18.3444 19.4825 18.0281 19.7637 18.2027 19.5537C17.5451 20.2333 18.3354 19.5056 18.1741 19.7388C18.3518 19.5563 18.5396 19.358 18.6105 19.2731C18.7139 19.1748 18.7444 19.0323 18.696 18.9225C18.6526 18.8086 18.5435 18.7536 18.4711 18.6911L18.4566 18.6799C18.4525 18.6769 18.4471 18.6724 18.4381 18.6645L18.3912 18.6238L18.298 18.5423C18.2366 18.4875 18.1753 18.4329 18.1136 18.3778L18.1131 18.3545L17.7385 18.023C18.0206 18.3179 17.9517 18.3583 17.5988 17.9673L17.6468 18.0099C17.4575 17.7748 16.9893 17.3605 16.6614 17.0255L16.4052 16.8326C16.0769 16.4971 16.1215 16.424 16.0489 16.2808C15.5329 15.7565 15.1843 15.5044 14.786 15.1637C14.6447 14.9709 13.8717 14.1858 14.3156 14.5674C13.8238 14.1208 13.7809 14.3532 13.0523 13.4722L13.286 13.6563C12.5115 12.892 11.3649 11.8441 11.0366 11.4636C11.4094 11.6584 10.1662 10.412 10.1167 10.188C10.1349 10.246 9.83916 9.9637 9.78642 9.93216C9.7333 9.85862 9.63779 9.7432 9.50781 9.64935C9.79033 9.96693 9.20634 9.52903 9.81513 10.0674C9.46503 9.83694 9.04433 9.5097 8.41142 8.87083L8.45742 8.84398L8.94951 9.35814C8.92548 9.2805 9.18242 9.54144 9.30107 9.63519C8.38554 8.67884 9.50878 9.67249 8.54726 8.72044C8.43125 8.65159 8.50088 8.70179 8.24287 8.46243C8.36103 8.57816 8.40713 8.57415 8.21914 8.38519L8.00908 8.23323C7.73564 7.83851 8.60166 8.74681 8.35918 8.41907C8.75722 8.75999 9.4124 9.3846 9.33964 9.21888C8.75322 8.59866 8.70986 8.76312 8.10009 8.11116L8.05273 8.02425C7.81738 7.81585 7.74951 7.81204 7.60869 7.70989C7.60898 7.68763 7.56103 7.62278 7.42168 7.47708C7.00019 7.14925 6.74228 6.9097 6.3457 6.61507C7.3039 7.49671 7.09658 7.43704 8.08017 8.35237C7.91621 8.21868 7.23672 7.56136 7.14541 7.57054L7.19072 7.5429C6.86308 7.25316 6.53574 6.96331 6.16006 6.5636L6.41728 6.77972C5.87803 6.29124 5.61826 5.87015 5.15215 5.52532C5.29209 5.67181 5.40947 5.78694 5.50342 5.86986C5.22266 5.62161 4.89443 5.28607 4.61308 4.99241L3.9581 4.45775C3.98135 4.44486 3.60557 4.06683 3.81621 4.21986C3.41562 3.7639 3.15947 3.61624 2.90303 3.37786C2.50313 2.90062 3.3002 3.74046 3.39346 3.73314C2.80606 3.11214 2.15039 2.48695 1.77676 2.17874C1.89268 2.30931 1.94619 2.37542 1.93115 2.37806C1.92442 2.34827 1.67793 2.10775 1.54258 1.97171L1.42569 1.90208L1.4208 1.89642L1.41963 1.89505L1.43203 1.88255L1.43213 1.88245L1.43291 1.88197L1.43496 1.88011C1.43653 1.87845 1.43828 1.87611 1.44004 1.87337C1.44024 1.87288 1.43926 1.87532 1.44004 1.87396C1.44199 1.86986 1.43926 1.8763 1.44072 1.87269C1.44297 1.86644 1.44522 1.86107 1.44785 1.85853C1.44893 1.85755 1.45361 1.85101 1.45547 1.85159C1.45645 1.85159 1.45781 1.8514 1.45977 1.85062L1.46328 1.84935C1.46602 1.85062 1.4627 1.84388 1.47168 1.85228C1.46738 1.84759 1.46602 1.84661 1.46621 1.84749L1.46475 1.8473L1.4625 1.84632C1.46074 1.84632 1.46172 1.84173 1.45908 1.8432C1.4541 1.84681 1.4544 1.84007 1.44942 1.84554C1.44395 1.84339 1.43779 1.85775 1.43584 1.85775C1.43574 1.86077 1.43574 1.86234 1.43526 1.86253C1.43643 1.86253 1.43145 1.86243 1.43731 1.86175C1.44238 1.86097 1.44737 1.85931 1.45196 1.85696C1.45654 1.85462 1.46084 1.8514 1.46465 1.84769L1.46983 1.84154C1.47031 1.84056 1.47588 1.83372 1.46934 1.83978L1.4209 1.87943L1.39649 1.89876L1.39629 1.89886C1.36436 1.92767 1.43946 1.8598 1.43174 1.86673V1.86683V1.86693L1.43184 1.86712L1.43194 1.86751V1.868C1.43164 1.86839 1.43008 1.8678 1.42696 1.86654C1.42696 1.86751 1.41963 1.86458 1.41397 1.86488C1.41006 1.86136 1.41426 1.86146 1.41026 1.85677C1.40879 1.85306 1.41309 1.85277 1.41104 1.8472L1.41084 1.84622L1.41074 1.84573V1.84564C1.3959 1.85902 1.44404 1.81546 1.37744 1.87571L1.37774 1.87552L1.379 1.87445L1.38867 1.86595L1.40811 1.84876L1.44727 1.81448L1.45166 1.81077L1.45039 1.81312L1.44727 1.81751C1.44512 1.82025 1.44248 1.82269 1.43975 1.82474C1.43477 1.82874 1.42617 1.83089 1.42236 1.83118C1.43369 1.82474 1.45127 1.82611 1.46123 1.83226C1.46397 1.83323 1.46787 1.83304 1.46885 1.83773C1.46992 1.839 1.47139 1.83968 1.47344 1.83988C1.47266 1.83782 1.47881 1.84398 1.48457 1.84993L1.50088 1.86634C1.54434 1.9097 1.58574 1.95091 1.62432 1.98929C1.70176 2.06556 1.76904 2.12923 1.82158 2.17288C1.72227 2.07943 1.63682 1.99603 1.56123 1.91995C1.54248 1.90081 1.52422 1.88226 1.50635 1.86409L1.48018 1.83714C1.47627 1.83421 1.47637 1.83558 1.47481 1.83411C1.47236 1.83294 1.47217 1.82835 1.47041 1.8262C1.46768 1.82591 1.46582 1.82425 1.46436 1.82132C1.46367 1.81673 1.46016 1.8182 1.45811 1.81634C1.45567 1.81566 1.4543 1.81009 1.45137 1.8098C1.4458 1.81097 1.44053 1.80042 1.43428 1.80247C1.43125 1.80179 1.42803 1.80003 1.42432 1.79739C1.42139 1.79837 1.41826 1.79837 1.41475 1.79749C1.39932 1.79574 1.42002 1.79202 1.42002 1.77845L1.42061 1.77347C1.421 1.77142 1.41377 1.77767 1.41074 1.77943L1.38643 1.79642L1.36192 1.81351L1.34961 1.8222L1.34336 1.82659L1.34024 1.82874L1.33945 1.82923C1.39707 1.77708 1.35537 1.81488 1.36817 1.80325L1.36797 1.80355C1.36533 1.80687 1.36192 1.8097 1.35752 1.81195C1.35235 1.8138 1.34766 1.81644 1.34629 1.82103C1.32793 1.83255 1.32373 1.85677 1.31963 1.88265C1.31631 1.89446 1.32412 1.91458 1.32334 1.91995C1.32324 1.9179 1.32188 1.91614 1.31943 1.91517C1.31826 1.91468 1.3169 1.91429 1.31524 1.91429H1.3126C1.31133 1.91409 1.31651 1.91946 1.31817 1.92181C1.32823 1.93411 1.33828 1.94652 1.34863 1.95921L1.36426 1.97825L1.37217 1.98792L1.37422 1.99036C1.36348 1.97855 1.39893 2.01771 1.35029 1.964L1.35078 1.96448L1.35195 1.96566L1.35645 1.97005C1.45196 2.06497 1.56074 2.17015 1.68662 2.28851C1.68731 2.31185 1.49971 2.16839 1.68779 2.35697C2.13281 2.7845 1.85059 2.4222 2.01309 2.53216C1.83779 2.37152 1.71465 2.24866 1.61475 2.13763C1.56475 2.08216 1.52061 2.02972 1.47861 1.97708L1.4168 1.89759L1.4167 1.89739C1.38916 1.86693 1.4541 1.9387 1.44737 1.93128L1.44717 1.93099L1.44678 1.9303L1.446 1.92894L1.44434 1.9262L1.44102 1.92083L1.43447 1.90999L1.42139 1.88812C1.41367 1.87454 1.40137 1.85648 1.39736 1.84593C1.39258 1.84154 1.42139 1.86497 1.44561 1.88421C1.45195 1.88929 1.4583 1.89437 1.46416 1.89905L1.47276 1.90589L1.47481 1.90745L1.47578 1.90823C1.48301 1.91624 1.41289 1.8387 1.44268 1.87152H1.44277L1.44287 1.87161L1.44307 1.87181L1.44356 1.8721L1.44756 1.87464C1.45772 1.88118 1.46455 1.88558 1.46455 1.88558C1.46817 1.90911 1.67852 2.12064 1.73106 2.19241L1.82451 2.20755C1.75606 2.22581 2.06055 2.59622 2.34199 2.84525C2.10537 2.54583 2.17617 2.61986 2.15254 2.49759C2.57227 2.82376 2.52744 2.96429 2.99492 3.33275C2.94971 3.31536 2.57432 2.96077 2.879 3.28685C3.13818 3.54974 3.13711 3.48118 3.32295 3.64554C3.08975 3.48441 3.11348 3.56185 2.85703 3.39105C2.38867 2.93177 2.67041 3.20355 2.20137 2.76595L2.55459 3.18021C2.15586 2.7931 2.22754 2.93577 2.18135 2.91722C2.81572 3.62503 2.7419 3.3681 3.16416 3.80931C3.39707 3.99271 2.76494 3.39964 3.1165 3.69935C3.51494 4.10833 3.23213 3.7678 3.70098 4.2053L3.6085 4.14603C3.72559 4.30599 3.88896 4.41654 4.05283 4.57318C4.24004 4.73851 3.97861 4.24818 4.70596 4.97054C4.66045 4.94505 4.64092 4.93841 4.63682 4.94261L3.62656 4.5387C4.36172 5.2723 5.19951 6.12708 6.02969 6.99778C6.1707 7.25735 5.37383 6.43968 5.39912 6.51839L5.02334 6.11829C5.07021 6.11497 5.84375 6.92327 5.53789 6.52855C4.83486 5.86165 4.55303 5.522 3.85137 4.92396C3.99385 5.18529 4.71777 5.76927 5.09453 6.23792C4.9209 6.05657 4.76455 5.91321 4.61055 5.7763C4.99971 6.18099 5.41621 6.61409 5.85889 7.07454L5.97471 7.16165C5.67705 6.85062 5.47148 6.63499 5.44648 6.60569C5.84492 7.01448 6.21806 7.322 6.28838 7.3053L6.21826 7.23206L6.37763 7.36429C6.46689 7.46302 6.55869 7.56048 6.6501 7.65745ZM3.04336 33.9298C3.06367 33.9011 3.07812 33.877 3.08633 33.8567C3.07783 33.8778 3.09854 33.8654 3.04336 33.9298ZM3.19082 2.7679C2.92578 2.49476 2.65957 2.22044 2.3959 1.94876C2.26416 1.81282 2.13311 1.67757 2.00322 1.54349L1.90586 1.44329C1.89238 1.42796 1.86758 1.40696 1.84443 1.38763C1.82051 1.36927 1.79941 1.34681 1.77236 1.33294C1.66973 1.26683 1.54873 1.23724 1.4291 1.23411C1.53682 1.24466 1.64082 1.2721 1.72451 1.32904C1.76895 1.35306 1.80459 1.38695 1.83848 1.42064C1.87695 1.4554 1.8918 1.48118 1.91807 1.51068C2.01172 1.62532 2.09815 1.73109 2.17402 1.82396C2.32432 2.01058 2.4291 2.14749 2.45869 2.20394C2.48828 2.26038 2.44277 2.23616 2.29268 2.10032C2.21758 2.03245 2.11631 1.93665 1.98526 1.80911C1.92002 1.74505 1.84697 1.67327 1.76572 1.59349C1.74531 1.57152 1.725 1.55677 1.70459 1.54017L1.67344 1.51488L1.63692 1.49613L1.59981 1.4764L1.5585 1.46429C1.54453 1.46048 1.53067 1.45521 1.51621 1.45218C1.50137 1.45081 1.48643 1.44945 1.47129 1.44808C1.4708 1.44193 1.34531 1.4597 1.34688 1.46409C1.40811 1.45716 1.4832 1.45355 1.5586 1.48255C1.59785 1.49144 1.63272 1.51644 1.66973 1.53773C1.68623 1.55159 1.70313 1.56575 1.72022 1.58011C1.73779 1.59505 1.75742 1.61712 1.77647 1.63568C1.93008 1.79105 2.10176 1.96019 2.26992 2.1222C2.41875 2.24066 2.73682 2.48753 3.01768 2.70238C3.15859 2.80902 3.28984 2.90833 3.38535 2.9806C3.48135 3.05198 3.54238 3.09525 3.54248 3.09046C3.47178 2.97181 3.30762 2.86009 3.14287 2.6806L3.19082 2.7679ZM3.42969 3.29437C3.7252 3.60902 3.67471 3.52054 3.73916 3.55071C3.62959 3.44554 3.52021 3.34046 3.41211 3.23665C3.44844 3.28157 3.46231 3.30765 3.42969 3.29437ZM3.73809 3.51536C3.7042 3.4807 3.67578 3.45062 3.66279 3.43304L3.73809 3.51536ZM3.96523 5.10726C3.95117 5.09417 3.94619 5.08939 3.93281 5.07698C4.00361 5.15032 4.07451 5.22386 4.14844 5.30062C4.12207 5.26859 4.06846 5.21077 3.96523 5.10726ZM3.38809 4.44612L3.28437 4.40511C3.35039 4.47347 3.41768 4.5432 3.48662 4.61458C3.47764 4.57718 3.46582 4.54066 3.38809 4.44612ZM1.50108 2.35286C1.46035 2.33089 1.40332 2.28831 1.33975 2.23695C1.3083 2.21087 1.27471 2.18314 1.24063 2.15491L1.21514 2.13343L1.20235 2.12259L1.196 2.11722L1.1958 2.11712C1.18692 2.10726 1.20772 2.1303 1.20547 2.12786L1.20508 2.12747L1.2044 2.12679L1.20293 2.12523L1.2 2.1222L1.15371 2.07435C1.13447 2.05657 1.13164 2.047 1.12481 2.03704C1.11846 2.0265 1.10967 2.01839 1.10283 2.00657C1.09326 1.97943 1.07539 1.9555 1.07002 1.93157C1.06377 1.90804 1.05469 1.88753 1.04844 1.87142C1.04424 1.8554 1.03848 1.84407 1.03125 1.83958C1.0252 1.82298 1.01709 1.84036 1.01045 1.87894C1.01084 1.89847 1.01143 1.92279 1.01201 1.95003C1.01533 1.97708 1.0252 2.00599 1.03184 2.03675C1.03858 2.05208 1.04698 2.06614 1.0542 2.08138C1.06221 2.09632 1.06641 2.11175 1.08145 2.12757L1.11973 2.17532L1.1294 2.18743C1.12598 2.18392 1.13467 2.19281 1.13672 2.19495L1.1586 2.21722C1.21699 2.27689 1.27715 2.33841 1.33916 2.40179C1.34981 2.39974 1.38067 2.41878 1.42793 2.45472C1.30967 2.32552 1.2378 2.23216 1.31455 2.2555C1.57451 2.63187 1.64102 2.49915 1.96992 2.85794C2.10996 2.93665 1.61758 2.44476 1.50108 2.35286ZM11.47 26.7333C11.4564 26.7394 11.4131 26.7631 11.3539 26.7982L11.5746 26.5345C12.0161 26.1118 12.4248 25.8282 12.7601 25.3855C12.9556 25.2168 13.0815 25.148 13.1981 25.0783C13.1072 25.1658 13.0217 25.2468 12.9485 25.3125C11.9367 26.4818 12.2971 25.7983 11.47 26.7333ZM16.5145 21.8418C16.4726 21.889 16.4637 21.9121 16.4637 21.9121C17.3494 20.867 18.1213 20.0489 18.6449 19.5315C18.5124 19.6008 18.0209 20.0432 17.7861 20.2519L17.9467 20.0194L18.0976 19.9249L18.406 19.5511C18.2863 19.6223 18.016 19.9029 17.8133 20.0683C17.8041 20.0911 17.2565 20.7228 17.114 20.9098L17.61 20.4636C17.4726 20.5808 16.856 21.2141 16.6175 21.471C16.6307 21.494 17.0855 21.0947 17.1001 21.0017C17.1776 20.9777 16.6856 21.4702 17.0257 21.1876C16.6853 21.5851 16.0745 22.1483 15.7888 22.4073L15.6976 22.4084C15.3813 22.6898 15.55 22.6646 15.169 22.9935C15.5967 22.5483 15.0458 23.0179 15.3896 22.6673C15.2618 22.7613 15.3397 22.622 14.9953 22.9733C14.7654 23.3225 14.5913 23.3026 14.3702 23.6289C14.1687 23.7933 14.531 23.3962 14.1633 23.7482C13.7818 24.1923 13.828 24.1908 13.8459 24.2599C14.244 23.8861 14.2231 23.7698 14.5494 23.4646L13.9958 24.1667C14.1221 24.0616 14.2088 23.977 14.2776 23.9021C14.1559 24.0326 14.0597 24.1508 13.983 24.2577C13.9387 24.318 13.8978 24.3736 13.8601 24.4247C14.2163 24.0693 14.5335 23.7543 14.6078 23.7169L14.5798 23.787C14.725 23.6803 14.9153 23.4598 14.9945 23.3497C15.3108 23.0288 15.5998 22.6812 15.6967 22.6389L15.595 22.7791C15.9809 22.3813 16.022 22.3349 16.5145 21.8418ZM9.15029 8.69915C9.31054 9.01361 9.50419 9.34349 10.6254 10.4378L10.5329 10.356C11.0429 10.9626 11.6855 11.3805 12.3109 12.1135C11.9522 11.813 11.9726 11.8282 11.5423 11.5307L11.9178 11.8624C11.7777 11.8065 12.1522 12.1374 12.4098 12.399L12.1309 12.22C11.9894 12.0498 11.5909 11.6409 11.5914 11.6642C11.6853 11.7471 11.1214 11.0681 10.7692 10.745C10.7702 10.8136 11.4967 11.5127 11.1231 11.2496C11.4269 11.507 11.4279 11.5755 11.733 11.8569C11.4286 11.5989 11.6173 11.8333 11.3833 11.6487L11.8756 12.118C11.8769 12.1418 11.1503 11.4427 11.5027 11.8784C11.7131 12.0534 12.2053 12.59 12.2509 12.5627L12.2516 12.5858C12.6041 12.954 12.4616 12.6927 12.8835 13.1561C12.9069 13.143 12.8352 13.0459 12.6729 12.8911C12.5309 12.7653 12.4852 12.7698 12.2042 12.4989C12.1089 12.3466 12.5335 12.8353 12.39 12.5955C12.3188 12.4764 11.6407 11.8876 11.8967 12.0354L12.2486 12.403C12.2943 12.3757 12.5527 12.6383 12.5749 12.6016C12.8083 12.8081 12.9748 13.0569 13.2312 13.2497C13.348 13.3195 13.2291 13.1127 13.5816 13.5035C13.8182 13.848 14.6846 14.6933 15.0128 15.0062L15.3165 15.2634C15.315 15.2172 14.7774 14.7304 14.9866 14.8815L15.4329 15.3102L15.3851 15.2905C15.5269 15.4385 15.6903 15.5717 15.8307 15.696C15.6681 15.5861 15.3633 15.2602 15.388 15.3608C15.5858 15.5736 15.6031 15.6191 15.7994 15.8007C15.7555 15.7621 15.7162 15.7304 15.7161 15.7409C16.1154 16.1732 16.1601 16.0999 16.2766 16.1918C16.744 16.5604 15.9011 15.7246 15.9937 15.739L17.2351 16.9385C17.1185 16.8466 17.0013 16.7539 17.0251 16.8088C17.3069 17.1257 17.0024 16.845 17.4245 17.2635C17.4466 17.1817 17.9861 17.7603 18.313 18.0272C18.4304 18.1871 18.4547 18.22 18.1508 17.9173C18.1503 17.9843 18.5756 18.3836 18.7102 18.5243C18.7543 18.5601 18.8124 18.6115 18.8721 18.6648C18.8986 18.694 18.9295 18.7217 18.9504 18.7535C18.9694 18.7865 18.9933 18.8156 19.0025 18.8462C18.9876 18.7653 18.981 18.741 19.0164 18.7762C19.024 18.7855 19.0365 18.7976 19.0459 18.8159C19.0547 18.8345 19.0647 18.8576 19.0762 18.8855C19.088 18.9132 19.09 18.948 19.0978 18.9867C19.101 19.0253 19.1 19.0702 19.0927 19.1185L19.0961 19.1419C19.1219 19.064 19.1244 18.9742 19.11 18.8844C19.0921 18.7948 19.0519 18.7064 18.9909 18.631C18.9267 18.5576 18.8568 18.4845 18.7883 18.4094C18.7239 18.3411 18.6597 18.273 18.5965 18.206C18.3474 17.9449 18.1129 17.7092 17.9604 17.5913L18.0536 17.651C17.5838 17.1229 16.9073 16.6258 16.7409 16.3321C16.7874 16.3281 16.6465 16.2261 16.6916 16.1983L16.2957 15.8594L16.3887 15.9193L15.7556 15.3026L15.7788 15.3123C15.4478 15.0493 15.1886 14.8433 14.9813 14.6785C14.9648 14.6938 14.9793 14.718 14.8685 14.6306C14.7613 14.5391 14.6848 14.465 14.6196 14.3957C14.619 14.3952 14.619 14.3952 14.6189 14.3954L14.6191 14.3952C14.4705 14.2372 14.3911 14.1123 14.2116 13.9142L14.7965 14.4913C14.8709 14.5117 14.8494 14.4343 14.5836 14.1307C14.701 14.2461 14.7707 14.2738 14.6298 14.1266C14.6069 14.1178 14.2318 13.763 14.3494 13.9236C13.7875 13.3814 12.9646 12.417 12.0754 11.6302C12.7083 12.2015 11.629 11.1115 12.3085 11.7688C11.8851 11.2591 11.8644 11.4098 11.3956 10.9275C11.3705 10.8714 11.6525 11.1884 11.7924 11.2672C11.0188 10.4591 10.3884 10.0027 9.63642 9.22454L9.6374 9.15823C9.48808 9.01751 9.32246 8.86146 9.15029 8.69915ZM7.59502 7.22777C7.44404 7.08431 7.29082 6.9389 7.13515 6.79105C7.14961 6.80618 7.16299 6.82025 7.17812 6.83607L6.70859 6.42083C6.96728 6.70569 7.10937 6.92181 6.71172 6.55862C6.75762 6.57669 6.66347 6.44847 6.8039 6.57259C6.56914 6.29749 6.02939 5.71859 6.12441 5.91527C6.6623 6.35706 6.17383 6.09417 6.59443 6.44349C6.35469 6.27005 6.16504 6.05052 5.95517 5.87015C6.18594 6.04554 5.9707 5.75999 5.67881 5.44173C5.53789 5.31712 5.18633 4.94993 4.95225 4.74271C4.9998 4.85247 4.78994 4.67806 5.1416 5.04544C5.00156 4.92171 4.79092 4.72405 4.57822 4.47943C4.67422 4.56478 4.83662 4.71946 4.83691 4.6972C4.71787 4.52103 4.54385 4.34954 4.46064 4.24193C4.38291 4.16751 4.30449 4.09251 4.22822 4.01946C4.24775 4.04446 4.26357 4.06732 4.27285 4.08548L3.99268 3.86028C4.34385 4.18216 4.13389 4.03021 4.11133 4.04407C4.15674 4.01673 3.89941 3.82269 3.78301 3.70872L3.99482 3.99739C3.85459 3.89573 3.59551 3.54261 3.62061 3.64378C4.13633 4.18997 4.34697 4.38753 4.83857 4.85628L4.67353 4.63148C5.23642 5.15208 4.95635 5.01683 5.56572 5.62327C5.8457 5.84866 6.48174 6.53548 6.54892 6.49339C6.45605 6.43382 6.87881 6.92054 7.11191 7.10403C7.39209 7.28431 8.09511 7.97376 7.90703 7.74007C7.71953 7.5513 7.43886 7.32562 7.32011 7.14192L7.6955 7.49642L7.4833 7.22982C7.59726 7.36341 7.61191 7.32474 7.59502 7.22777ZM2.05879 3.91507C2.0626 3.91927 2.06758 3.92474 2.07217 3.92982C2.0668 3.92435 2.06172 3.91907 2.05664 3.914L2.05879 3.91507Z" fill="white"/>
<path d="M6.18126 32.2487C6.08869 32.366 5.82727 32.6235 5.90481 32.5995C5.86906 32.5761 6.36388 32.1313 6.18126 32.2487Z" fill="white"/>
<path d="M5.84238 32.53C5.83115 32.5554 5.85508 32.5538 5.73975 32.6713L6.05283 32.3433L5.84238 32.53Z" fill="white"/>
<path d="M5.31606 32.6539C5.1727 32.8412 5.08022 32.9583 4.8188 33.2158C4.64956 33.2415 5.22358 32.771 5.27426 32.5864C4.79194 33.0553 4.70864 33.264 4.32349 33.6613C4.54731 33.4974 5.35629 32.7228 5.31606 32.6539Z" fill="white"/>
<path d="M5.43657 32.352L5.18823 32.6327L5.21851 32.6109L5.46704 32.3301L5.43657 32.352Z" fill="white"/>
<path d="M11.7888 27.247C11.8352 27.2455 11.9779 27.0586 12.0608 26.9648C11.9875 27.0353 11.881 27.13 11.7888 27.247Z" fill="white"/>
<path d="M8.52578 27.5176L6.52979 29.5568C7.1041 28.9701 7.63437 28.4284 8.52578 27.5176Z" fill="white"/>
<path d="M18.3375 20.4047C17.8169 20.9676 17.6149 21.2469 17.0728 21.8087C17.8438 21.128 17.9608 20.7795 18.6166 20.2163L18.3375 20.4047Z" fill="white"/>
<path d="M18.3253 20.7755C18.1933 20.823 18.6938 20.308 18.5842 20.3557C18.2294 20.7312 18.4544 20.5659 18.1194 20.8937L18.3253 20.7755Z" fill="white"/>
<path d="M15.1721 22.5315L15.3144 22.3452L15.1902 22.4854L15.1721 22.5315Z" fill="white"/>
<path d="M18.3722 17.3475L18.4417 17.3979L18.1833 17.1128L18.3722 17.3475Z" fill="white"/>
<path d="M18.5113 17.4477L18.4417 17.3975L18.5113 17.4477Z" fill="white"/>
<path d="M15.2925 22.2305L15.0393 22.4655L14.938 22.6058L15.2925 22.2305Z" fill="white"/>
<path d="M17.6739 20.3018L17.469 20.5338C17.5098 20.4878 17.8259 20.2064 17.6739 20.3018Z" fill="white"/>
<path d="M16.7314 15.6705L16.4495 15.4209L16.4724 15.4523L16.7535 15.701L16.7314 15.6705Z" fill="white"/>
<path d="M18.5127 18.7703C18.5322 18.8223 18.4712 18.7658 18.4244 18.7223C18.4062 18.7052 18.3891 18.689 18.3755 18.6762C18.3583 18.6602 18.3454 18.6489 18.3399 18.6455C18.3341 18.6422 18.3358 18.6469 18.3476 18.663C18.3537 18.6709 18.3621 18.6819 18.3733 18.6962C18.3791 18.7033 18.3855 18.7113 18.3926 18.72C18.3997 18.7288 18.4002 18.731 18.4049 18.7374C18.5439 18.8664 18.5162 18.8049 18.5127 18.7703Z" fill="white"/>
<path d="M15.5933 15.4104C15.5574 15.3746 15.5185 15.338 15.4785 15.3052C15.5237 15.3467 15.5616 15.3814 15.5933 15.4104Z" fill="white"/>
<path d="M15.5933 15.4111C15.7091 15.5269 15.8123 15.655 15.901 15.725C15.7715 15.566 15.7134 15.5189 15.5933 15.4111Z" fill="white"/>
<path d="M14.2597 14.0924L14.3623 14.1996C14.2391 14.1084 14.2923 14.1568 14.4009 14.2397C14.5132 14.3498 14.5172 14.3333 14.5374 14.3394C14.5639 14.3576 14.5899 14.3757 14.6185 14.3952C14.5798 14.3653 14.545 14.3385 14.5154 14.3158C14.3436 14.1432 14.2368 14.0397 14.2597 14.0924Z" fill="white"/>
<path d="M9.88159 8.62012C10.2571 9.01973 10.3515 9.12588 10.3052 9.12998C10.6651 9.50586 10.6514 9.40537 10.8833 9.61719C10.4623 9.20586 10.3887 9.10908 9.88159 8.62012Z" fill="white"/>
<path d="M10.8835 9.61719C10.9308 9.66318 10.9759 9.70713 11.0309 9.76045C10.971 9.69922 10.9251 9.65537 10.8835 9.61719Z" fill="white"/>
<path d="M15.5338 15.9181L15.2544 15.7158L15.3482 15.7988L15.5338 15.9181Z" fill="white"/>
<path d="M9.31914 8.03185C9.38946 8.10528 9.50576 8.21935 9.55371 8.28458C9.59961 8.28 9.24893 7.9586 9.31914 8.03185Z" fill="white"/>
<path d="M10.3198 10.0205C10.3438 10.0753 10.601 10.3141 10.696 10.4209C10.5544 10.2729 10.4829 10.1084 10.3198 10.0205Z" fill="white"/>
<path d="M8.10327 7.02441C8.17358 7.09785 8.26714 7.22539 8.19839 7.19834C8.31518 7.29043 8.50102 7.3872 8.10327 7.02441Z" fill="white"/>
<path d="M9.61597 9.30762L9.66274 9.37149L9.94419 9.62051L9.61597 9.30762Z" fill="white"/>
<path d="M10.1897 10.6263C10.518 10.8944 9.78906 10.0806 10.3282 10.5687C9.69707 9.87461 10.3364 10.6622 9.85254 10.1685C10.1286 10.4649 10.2309 10.6433 10.1897 10.6263Z" fill="white"/>
<path d="M9.85249 10.1685C9.81245 10.1253 9.76831 10.0793 9.71948 10.0303C9.77261 10.0855 9.81538 10.13 9.85249 10.1685Z" fill="white"/>
<path d="M5.84473 5.77979C5.89131 5.82002 5.92422 5.84609 5.95518 5.86982C5.91855 5.83828 5.88301 5.80879 5.84473 5.77979Z" fill="white"/>
<path d="M8.26611 8.63232L8.75839 9.03427C8.42969 8.76571 7.68018 8.01259 7.68213 8.10439C7.91631 8.35673 8.221 8.63759 8.36064 8.73837L8.26611 8.63232Z" fill="white"/>
<path d="M3.95039 2.68535L4.16142 2.86074L3.92549 2.61426C3.98769 2.69014 3.82978 2.59824 3.95039 2.68535Z" fill="white"/>
<path d="M3.87964 2.56592L3.92534 2.61348C3.91616 2.60215 3.90181 2.58691 3.87964 2.56592Z" fill="white"/>
<path d="M6.71216 6.60346C6.85347 6.75102 6.97027 6.86538 7.11001 6.98911C7.06382 6.92602 6.71187 6.55815 6.71216 6.60346Z" fill="white"/>
<path d="M2.52471 1.38984L2.85127 1.70098L2.5 1.35645L2.52471 1.38984Z" fill="white"/>
<path d="M0.678467 2.8418L0.724951 2.90527L1.00542 3.15352L0.958055 3.08916L0.678467 2.8418Z" fill="white"/>
<path d="M2.17407 2.65693C2.3854 2.87783 2.59458 3.00625 2.54653 2.94121L2.12573 2.52393C2.19692 2.66582 2.24302 2.63916 2.477 2.89102L2.17407 2.65693Z" fill="white"/>
<path d="M11.7865 13.8175C11.6692 13.7475 11.2245 13.2754 11.2229 13.229C11.2942 13.2809 11.552 13.52 11.4102 13.3496L10.9895 13.0449C10.5433 12.5264 11.4324 13.3353 11.6912 13.5531C11.2073 13.0542 11.0234 12.9467 10.5009 12.4236C10.6499 12.583 10.733 12.6949 10.8019 12.7889C10.779 12.8475 10.3098 12.3422 9.95835 11.9973C10.1624 12.2367 10.0192 12.1234 9.84165 11.9779C9.81128 11.9501 9.7897 11.9332 9.77319 11.9222C9.75249 11.9054 9.73286 11.8895 9.71265 11.873L9.75444 11.9147C9.74692 11.9164 9.75054 11.9311 9.77309 11.9687C10.0771 12.2491 10.2666 12.5066 10.4541 12.6952C10.3346 12.443 11.1101 13.3204 11.367 13.5365L11.6466 13.803L11.7489 13.905C11.7622 13.9328 11.7239 13.9129 11.5551 13.7702C11.6982 13.8871 12.1271 14.3253 12.1083 14.2639L13.0987 15.2522C13.1268 15.2857 13.1541 15.3199 13.1722 15.3476C13.2108 15.3776 13.2199 15.38 13.2188 15.3721C14.4309 16.5814 15.643 17.7909 16.8524 19.0003L16.8381 19.0177C16.8467 19.0121 16.8567 19.0064 16.8681 19.0003C16.8652 18.9839 16.8614 18.9612 16.8435 18.9328C16.8983 18.9435 16.8889 18.9302 16.8659 18.9039L16.8577 18.8943C16.8537 18.89 16.8571 18.8927 16.837 18.8721C16.8079 18.8415 16.7808 18.8124 16.7594 18.7879C16.7167 18.739 16.6974 18.7084 16.732 18.7222C16.7727 18.7554 16.8165 18.7941 16.8612 18.8357C16.8908 18.8639 16.8876 18.8598 16.8956 18.867L16.9129 18.8839C16.9351 18.9071 16.9519 18.9315 16.9591 18.9488C16.9821 18.9508 16.9903 18.9391 16.9952 18.9231C17.0005 18.9076 17.0022 18.8874 17.0236 18.8836C17.0041 18.8575 16.9834 18.8343 16.9632 18.8144C16.9577 18.8094 16.8841 18.7391 16.8402 18.7007C16.7421 18.6136 16.6545 18.5453 16.5669 18.4776C16.3918 18.3424 16.2167 18.21 15.9586 17.9366C16.005 17.9325 16.1912 18.0747 15.84 17.7303L15.9338 17.8133C15.3486 17.2844 15.5569 17.3223 15.1371 17.0407L15.1827 17.0136C14.9026 16.7884 14.4108 16.297 14.1287 16.0248L14.1522 16.0344C13.3333 15.2988 13.7071 15.6069 12.8168 14.7517L13.261 15.1108C12.9775 14.7922 12.8635 14.7705 12.6521 14.5496C12.6746 14.558 12.6511 14.4813 12.8619 14.6788L11.7381 13.6847C11.4579 13.4593 11.7626 13.7626 11.7865 13.8175Z" fill="white"/>
<path d="M10.5011 12.4237C10.447 12.3657 10.3842 12.3013 10.3076 12.2275C10.3796 12.3006 10.4417 12.3635 10.5011 12.4237Z" fill="white"/>
<path d="M16.8076 19.0488L16.8382 19.0176C16.8248 19.0266 16.8152 19.0348 16.8076 19.0488Z" fill="white"/>
<path d="M8.90395 10.9856C9.0687 11.1881 8.74009 10.8745 8.69409 10.8564L9.35239 11.5135C9.36343 11.4965 9.44429 11.5459 9.4439 11.5198L8.90395 10.9856Z" fill="white"/>
<path d="M9.51621 11.7295C9.54824 11.742 9.62656 11.8028 9.71289 11.8726L9.35235 11.5127C9.34395 11.5254 9.37481 11.5753 9.51621 11.7295Z" fill="white"/>
<path d="M10.1951 10.9116L10.3127 11.0268L10.4997 11.1921L10.1951 10.9116Z" fill="white"/>
<path d="M11.9544 12.794C11.8367 12.6337 11.5567 12.386 11.4631 12.3032C11.7678 12.6065 11.6279 12.4829 11.9544 12.794Z" fill="white"/>
<path d="M11.8064 12.1909L12.1115 12.472L12.0883 12.4404L11.8064 12.1909Z" fill="white"/>
<path d="M14.7968 21.3467C14.7496 21.3955 14.7037 21.4429 14.656 21.4922C14.7217 21.4269 14.7635 21.3829 14.7968 21.3467Z" fill="white"/>
<path d="M17.0157 19.0582C16.915 19.1284 16.9121 19.1139 16.9221 19.0888C16.9336 19.0623 16.9634 19.0196 16.9604 19.0005C16.9324 18.9872 16.9117 18.9853 16.8948 18.9944C16.8981 18.9965 16.9014 18.9985 16.9034 19.0005C16.8979 19.0168 16.8892 19.0362 16.8771 19.0589C16.8771 19.059 16.8622 19.0458 16.8622 19.0458C16.8622 19.0458 16.8462 19.0641 16.8303 19.0823C16.7276 19.1873 16.6249 19.2923 16.6249 19.2923C16.7442 19.2211 16.8172 19.1511 16.8217 19.197C16.1926 19.8064 16.5965 19.3623 16.1104 19.7849L15.4227 20.4817L15.4711 20.4183C15.4134 20.4771 15.3908 20.506 15.3749 20.5302L13.0576 22.8789C12.6532 23.3233 13.3377 22.6896 13.0618 23.0396C13.5536 22.5476 14.3116 21.8434 14.3031 21.7513C14.2935 21.7748 14.2748 21.8212 14.3805 21.7274L14.6236 21.4015L14.3391 21.6597C14.5839 21.3322 15.517 20.4175 15.7096 20.2761C15.1984 20.8155 15.5117 20.6017 14.7528 21.3065C14.7984 21.2864 14.9548 21.1749 14.797 21.3467C15.2184 20.9105 15.6271 20.5062 16.0361 20.0942C16.2406 19.8883 16.445 19.6805 16.6514 19.4659C16.7028 19.4121 16.7545 19.3581 16.8065 19.3037L16.8843 19.2215L16.9219 19.1814L16.9334 19.1673C16.9638 19.1296 16.9919 19.0928 17.0157 19.0582Z" fill="white"/>
<path d="M8.69862 27.4239L8.70086 27.4126C8.68777 27.4305 8.68455 27.4373 8.69862 27.4239Z" fill="white"/>
<path d="M8.99248 27.1421L9.36113 26.6748L8.71338 27.3305L8.70068 27.4124C8.74951 27.346 8.96045 27.1001 9.0626 27.025L8.99248 27.1421Z" fill="white"/>
<path d="M9.8168 26.1597C9.49492 26.5109 9.55391 26.5334 9.75605 26.3684C9.46592 26.6963 9.54922 26.4877 9.37939 26.7436C9.41582 26.7659 9.77939 26.3677 9.86162 26.2748L9.8168 26.1597Z" fill="white"/>
<path d="M12.3215 23.6981L12.2437 23.8098L12.4813 23.5811L12.3215 23.6981Z" fill="white"/>
<path d="M12.2438 23.8096L12.0078 24.0364C12.0363 24.033 12.0644 24.0294 12.1107 24.0002L12.2438 23.8096Z" fill="white"/>
<path d="M11.3887 24.6318C11.2877 24.7268 11.177 24.8329 11.0439 24.9636L11.3887 24.6318Z" fill="white"/>
<path d="M11.6639 24.3774L11.6507 24.3799L11.3887 24.6317C11.4872 24.5408 11.5754 24.4592 11.6639 24.3774Z" fill="white"/>
<path d="M12.0077 24.0366C11.9415 24.0457 11.8674 24.0598 11.5408 24.4023L11.6505 24.3804L12.0077 24.0366Z" fill="white"/>
<path d="M13.895 14.3657L14.1759 14.6143L14.1522 14.5818L13.8716 14.3335L13.895 14.3657Z" fill="white"/>
<path d="M15.396 15.9185C15.4665 15.9789 15.5213 16.0231 15.5718 16.0629C15.4998 15.9971 15.4401 15.9471 15.396 15.9185Z" fill="white"/>
<path d="M16.7264 16.8585C17.009 17.1985 16.2589 16.467 16.8227 17.0563C16.8468 17.1338 16.5421 16.898 16.2838 16.6132C16.3306 16.6096 16.5645 16.8615 16.4232 16.669C16.2138 16.5179 16.165 16.4295 16.19 16.5302C15.863 16.2505 15.8023 16.2437 15.5718 16.0625C15.9552 16.4124 16.6861 17.2213 17.2001 17.6379C17.5022 17.8488 17.4089 17.6311 17.4757 17.5663C17.4526 17.5122 16.7949 16.84 16.7264 16.8585Z" fill="white"/>
<path d="M16.3022 16.3034C16.1614 16.1561 16.1146 16.1146 16.0208 16.0317C16.0221 16.0781 16.1847 16.188 16.3022 16.3034Z" fill="white"/>
<path d="M16.7622 20.2461C16.7441 20.283 16.4951 20.5553 16.5673 20.5154L16.9507 20.1084C16.8564 20.1995 16.8122 20.2208 16.7622 20.2461Z" fill="white"/>
<path d="M17.1189 19.9302L16.9507 20.1085C16.9948 20.066 17.0471 20.0111 17.1189 19.9302Z" fill="white"/>
<path d="M16.7378 20.2591C16.746 20.2548 16.7534 20.2508 16.7624 20.2461C16.766 20.2385 16.763 20.2377 16.7378 20.2591Z" fill="white"/>
<path d="M10.4132 25.5743C10.4007 25.5507 10.2354 25.7376 10.1523 25.8313C10.2257 25.7609 10.3325 25.666 10.4132 25.5743Z" fill="white"/>
<path d="M3.85449 32.2754L3.68457 32.4166C3.74814 32.3702 3.78057 32.3463 3.85449 32.2754Z" fill="white"/>
<path d="M1.95025 35.166C1.94927 35.174 1.94067 35.1885 1.92798 35.2067C1.94116 35.189 1.94898 35.1752 1.95025 35.166Z" fill="white"/>
<path d="M1.92783 35.207C1.83652 35.3283 1.48496 35.6332 1.38984 35.7741L1.39785 35.7521C1.39785 35.7521 1.34629 35.8104 1.29482 35.8687C1.28193 35.8832 1.26904 35.8979 1.25703 35.9114C1.25137 35.918 1.24424 35.9255 1.24053 35.9306C1.23809 35.9348 1.23574 35.9388 1.23369 35.9424C1.22471 35.9563 1.21875 35.9653 1.21875 35.9653C1.22969 35.9441 1.31201 35.8639 1.3792 35.7957C1.4499 35.7238 1.52617 35.646 1.5999 35.571C1.74609 35.4201 1.8792 35.2775 1.92783 35.207Z" fill="white"/>
</svg>
