<svg width="32" height="32" viewBox="0 0 32 32" fill="none" xmlns="http://www.w3.org/2000/svg">
<path d="M23.7015 3.06543C21.3028 3.06543 18.8597 3.76928 15.9994 5.20826C13.2043 3.80484 10.7791 3.06543 8.31692 3.06543C5.74646 3.06543 3.13169 3.86186 0 5.5185V28.8162C3.144 27.2166 5.84738 26.4018 8.50277 26.4018C10.6769 26.4018 12.8209 26.9542 15.1446 28.0639L15.9803 28.4956L16.6542 28.1933C16.6554 28.1945 16.6566 28.1945 16.6578 28.1957C19.2548 26.9799 21.5465 26.368 23.8154 26.3687C26.4295 26.3687 29.0142 27.1804 31.9994 28.8162V5.5185C28.9385 3.90662 26.344 3.06543 23.7015 3.06543ZM15.3846 26.8162C12.9655 25.6991 10.7637 25.1762 8.50277 25.1762C6.23385 25.1762 3.888 25.7212 1.23077 26.8775V6.26466C3.94585 4.90355 6.15446 4.29166 8.31754 4.29166C10.4548 4.29166 12.6572 4.90416 15.3846 6.2665V26.8162ZM30.7692 26.8217C28.2831 25.6814 26.0375 25.143 23.816 25.143C21.5538 25.143 19.2628 25.6881 16.6443 26.8542C16.6345 26.8524 16.6252 26.8512 16.6154 26.8493V6.26466C19.3305 4.90355 21.5391 4.29166 23.7022 4.29166C25.8394 4.29166 28.0418 4.90354 30.7692 6.2665V26.8217Z" fill="white"/>
</svg>
