<svg width="32" height="32" viewBox="0 0 32 32" fill="none" xmlns="http://www.w3.org/2000/svg">
<g clip-path="url(#clip0)">
<path d="M29.1327 15.3353L24.1508 10.3537C23.7835 9.98636 23.1891 9.98586 22.8218 10.3508C22.4535 10.7159 22.45 11.3116 22.8134 11.6815L26.1376 15.0626H12.7556C12.2357 15.0626 11.814 15.48 11.814 16.0001C11.814 16.5202 12.2357 16.9376 12.7556 16.9376H26.1935L22.8188 20.3143C22.4515 20.6819 22.4515 21.2795 22.8188 21.6471C23.0027 21.831 23.244 21.9236 23.4848 21.9236C23.7256 21.9236 23.9669 21.832 24.1508 21.648L29.1327 16.6666C29.3092 16.49 29.4083 16.2505 29.4083 16.0009C29.4083 15.7513 29.3092 15.5118 29.1327 15.3353Z" fill="white"/>
<path d="M21.8413 24.611C21.3214 24.611 20.9038 25.0325 20.9038 25.5526V30.125H4.46631V1.875H20.9038V6.44925C20.9038 6.96934 21.3214 7.39087 21.8413 7.39087C22.3612 7.39087 22.7788 6.96934 22.7788 6.44925V0.934812C22.7788 0.414688 22.351 0 21.8312 0H3.53209C3.01225 0 2.59131 0.414688 2.59131 0.934812V31.0671C2.59131 31.5872 3.01225 32 3.53212 32H21.8312C22.3511 32 22.7788 31.5872 22.7788 31.0671V25.5526C22.7788 25.0325 22.3612 24.611 21.8413 24.611Z" fill="white"/>
</g>
<defs>
<clipPath id="clip0">
<rect width="32" height="32" fill="white"/>
</clipPath>
</defs>
</svg>
