<svg width="100" height="100" viewBox="0 0 100 100" fill="none" xmlns="http://www.w3.org/2000/svg">
<path d="M47.5384 7.90498C42.0921 8.22662 36.675 9.63987 31.7742 11.9985C19.878 17.7295 11.2944 28.7529 8.67354 41.6672C6.83211 50.7217 8.02076 60.1857 12.0251 68.4703C17.7638 80.3514 28.7636 88.9089 41.6536 91.521C50.7049 93.3631 60.1654 92.174 68.4469 88.1681C77.0013 84.0356 84.0065 77.0278 88.1376 68.4703C90.1057 64.3962 91.4015 60.0395 91.9763 55.5658C93.0383 47.3787 91.7035 39.0941 88.1376 31.7256C84.0065 23.1681 77.0013 16.1603 68.4469 12.0278C61.9678 8.88939 54.7385 7.46638 47.5384 7.90498ZM64.7738 30.9167L64.7446 35.5268L60.2628 35.5755C55.1964 35.634 55.5082 35.5755 54.9626 36.4332C54.4073 37.3202 54.3683 37.6223 54.3683 41.2481V44.5424H59.5808H64.7933V48.8796V53.2169H59.5808H54.3683V66.1798V79.1428H49.3506H44.333V66.1798V53.2169H39.8512H35.3694V48.8796V44.5424H39.8512H44.333V41.4138C44.333 38.0122 44.4304 36.9596 44.8786 35.4099C46.1062 31.1798 49.3799 27.7783 53.2283 26.7549C54.6313 26.3748 55.2354 26.3455 60.1946 26.326L64.7933 26.3163L64.7738 30.9167Z" fill="#00FFFF"/>
</svg>
