<svg width="180" height="58" viewBox="0 0 180 58" fill="none" xmlns="http://www.w3.org/2000/svg">
<path d="M113.476 42V20.6719H120.448C122.763 20.6719 124.501 21.1504 125.663 22.1074C126.835 23.0645 127.421 24.4805 127.421 26.3555C127.421 27.3516 127.138 28.2354 126.571 29.0068C126.005 29.7686 125.233 30.3594 124.257 30.7793C125.409 31.1016 126.317 31.7168 126.981 32.625C127.655 33.5234 127.992 34.5977 127.992 35.8477C127.992 37.7617 127.372 39.2656 126.132 40.3594C124.892 41.4531 123.139 42 120.873 42H113.476ZM116.288 32.0244V39.7002H120.932C122.24 39.7002 123.271 39.3633 124.022 38.6895C124.784 38.0059 125.165 37.0684 125.165 35.877C125.165 33.3086 123.769 32.0244 120.976 32.0244H116.288ZM116.288 29.7686H120.536C121.767 29.7686 122.748 29.4609 123.48 28.8457C124.223 28.2305 124.594 27.3955 124.594 26.3408C124.594 25.1689 124.252 24.3193 123.568 23.792C122.885 23.2549 121.845 22.9863 120.448 22.9863H116.288V29.7686ZM131.024 33.9287C131.024 32.376 131.327 30.9795 131.933 29.7393C132.548 28.499 133.397 27.542 134.481 26.8682C135.575 26.1943 136.82 25.8574 138.217 25.8574C140.375 25.8574 142.118 26.6045 143.446 28.0986C144.784 29.5928 145.453 31.5801 145.453 34.0605V34.251C145.453 35.7939 145.155 37.1807 144.56 38.4111C143.974 39.6318 143.129 40.584 142.025 41.2676C140.932 41.9512 139.672 42.293 138.246 42.293C136.098 42.293 134.354 41.5459 133.017 40.0518C131.688 38.5576 131.024 36.5801 131.024 34.1191V33.9287ZM133.749 34.251C133.749 36.0088 134.154 37.4199 134.965 38.4844C135.785 39.5488 136.879 40.0811 138.246 40.0811C139.623 40.0811 140.717 39.5439 141.527 38.4697C142.338 37.3857 142.743 35.8721 142.743 33.9287C142.743 32.1904 142.328 30.7842 141.498 29.71C140.678 28.626 139.584 28.084 138.217 28.084C136.879 28.084 135.8 28.6162 134.979 29.6807C134.159 30.7451 133.749 32.2686 133.749 34.251ZM148.134 33.9287C148.134 32.376 148.437 30.9795 149.042 29.7393C149.657 28.499 150.507 27.542 151.591 26.8682C152.685 26.1943 153.93 25.8574 155.326 25.8574C157.484 25.8574 159.228 26.6045 160.556 28.0986C161.894 29.5928 162.562 31.5801 162.562 34.0605V34.251C162.562 35.7939 162.265 37.1807 161.669 38.4111C161.083 39.6318 160.238 40.584 159.135 41.2676C158.041 41.9512 156.781 42.293 155.355 42.293C153.207 42.293 151.464 41.5459 150.126 40.0518C148.798 38.5576 148.134 36.5801 148.134 34.1191V33.9287ZM150.858 34.251C150.858 36.0088 151.264 37.4199 152.074 38.4844C152.895 39.5488 153.988 40.0811 155.355 40.0811C156.732 40.0811 157.826 39.5439 158.637 38.4697C159.447 37.3857 159.853 35.8721 159.853 33.9287C159.853 32.1904 159.438 30.7842 158.607 29.71C157.787 28.626 156.693 28.084 155.326 28.084C153.988 28.084 152.909 28.6162 152.089 29.6807C151.269 30.7451 150.858 32.2686 150.858 34.251ZM170.385 34.6611L168.686 36.4336V42H165.976V19.5H168.686V33.1084L170.136 31.3652L175.072 26.1504H178.368L172.201 32.7715L179.086 42H175.907L170.385 34.6611Z" fill="white"/>
<path d="M101.572 21.3579C101.858 21.3579 102.089 21.1043 102.089 20.7915V15.5569C102.762 15.3409 103.255 14.6604 103.255 13.8554V3.47207C103.255 2.49457 102.528 1.69922 101.634 1.69922H99.0958C98.8099 1.69922 98.5782 1.95286 98.5782 2.26562C98.5782 2.57839 98.8099 2.83203 99.0958 2.83203H101.634C101.957 2.83203 102.22 3.1192 102.22 3.47207V13.8554C102.22 14.209 101.957 14.4966 101.634 14.4966H101.572H101.503C101.234 14.4966 100.994 14.3007 100.932 14.0316C100.58 12.4786 99.4844 11.2105 98.0022 10.6401C97.4513 10.4269 96.8704 10.3188 96.2759 10.3188C96.1279 10.3188 95.9842 10.3252 95.8435 10.3384C95.6502 10.3582 95.4724 10.2691 95.3509 10.1099C95.2854 10.0241 95.1819 9.84199 95.2242 9.58563C95.2249 9.58121 95.2255 9.57691 95.2263 9.57249C95.2294 9.55052 95.2389 9.48357 95.2595 9.21634C95.2691 9.09501 95.2794 8.93812 95.281 8.86131C95.2811 8.85701 95.2811 8.8527 95.2811 8.8484C95.2811 8.51422 95.2457 8.18117 95.1761 7.85832C95.1394 7.6884 95.0934 7.52176 95.0389 7.35909C94.5299 5.84089 93.2678 4.66413 91.6878 4.26153C91.6313 4.24714 91.5744 4.23377 91.5173 4.22143C91.2284 4.15901 91.0266 3.8988 91.0266 3.58886V3.47218C91.0266 3.11931 91.289 2.83214 91.6115 2.83214H95.3372C95.6231 2.83214 95.8548 2.57851 95.8548 2.26574C95.8548 1.95297 95.6231 1.69933 95.3372 1.69933H91.6116C90.8994 1.69933 90.2944 2.20547 90.0778 2.90578H78.9222C78.7057 2.20536 78.1007 1.69922 77.3886 1.69922H67.3662C66.4723 1.69922 65.7451 2.49457 65.7451 3.47207V13.8554C65.7451 14.6601 66.2375 15.3402 66.9097 15.5566V41.859C66.2375 42.0754 65.7451 42.7555 65.7451 43.5602V49.0435C65.7451 49.3564 65.9768 49.6099 66.2627 49.6099C66.5486 49.6099 66.7803 49.3564 66.7803 49.0435V43.56C66.7803 43.2065 67.0431 42.9189 67.3662 42.9189H67.4272H67.4727C67.5075 42.9189 67.5416 42.9224 67.575 42.9292C67.8085 42.9768 68.0005 43.1842 68.0499 43.4573C68.4132 45.4606 69.7176 47.0317 71.3732 47.4599C71.6746 47.5377 71.9821 47.5788 72.2885 47.5756C72.3614 47.574 72.5094 47.562 72.6136 47.5522C72.6746 47.5466 72.7239 47.5418 72.7643 47.5376C72.8852 47.525 72.9232 47.5188 72.9383 47.5163C72.9434 47.5154 72.9485 47.5143 72.9534 47.5136C73.1866 47.4673 73.3528 47.5797 73.431 47.6512C73.5653 47.7738 73.6422 47.9523 73.6422 48.1412C73.6422 48.157 73.6419 48.1733 73.64 48.1956C73.6285 48.3433 73.6226 48.5009 73.6226 48.6645C73.6226 49.3174 73.721 49.9531 73.9149 50.5532C74.4374 52.1746 75.5958 53.3735 77.0137 53.7602C77.2603 53.8275 77.4392 54.0894 77.4392 54.383V54.5279C77.4392 54.8808 77.1763 55.168 76.8533 55.168H67.3662C67.0431 55.168 66.7803 54.8808 66.7803 54.5279V52.5247C66.7803 52.2119 66.5486 51.9583 66.2627 51.9583C65.9768 51.9583 65.7451 52.2119 65.7451 52.5247V54.5279C65.7451 55.5055 66.4723 56.3008 67.3662 56.3008H76.8533C77.5659 56.3008 78.1712 55.7946 78.388 55.0943H90.6119C90.8287 55.7948 91.4341 56.3008 92.1467 56.3008H96.2865C96.5724 56.3008 96.804 56.0473 96.804 55.7344C96.804 55.4215 96.5724 55.168 96.2865 55.168H92.1468C91.8237 55.168 91.5609 54.8808 91.5609 54.5279V54.383C91.5609 54.0894 91.7399 53.8275 91.9862 53.7602C93.4042 53.3736 94.5626 52.1747 95.085 50.5538C95.2791 49.9531 95.3775 49.3174 95.3775 48.6645C95.3775 48.501 95.3716 48.3433 95.3595 48.1892C95.358 48.1733 95.3577 48.157 95.3577 48.1412C95.3577 47.9523 95.4346 47.7738 95.5689 47.6512C95.6472 47.5799 95.8127 47.4674 96.0465 47.5136C96.0516 47.5145 96.0567 47.5155 96.0616 47.5163C96.0766 47.5188 96.1147 47.525 96.2354 47.5376C96.2757 47.5418 96.3252 47.5466 96.386 47.5522C96.4905 47.562 96.6384 47.574 96.7114 47.5756C97.0141 47.5794 97.3254 47.5376 97.6269 47.4597C99.2823 47.0317 100.587 45.4606 100.95 43.4568C100.999 43.1842 101.191 42.9768 101.425 42.9292C101.458 42.9224 101.492 42.9189 101.527 42.9189H101.572H101.634C101.957 42.9189 102.22 43.2065 102.22 43.56V54.5278C102.22 54.8807 101.957 55.1679 101.634 55.1679H99.9239C99.638 55.1679 99.4063 55.4214 99.4063 55.7343C99.4063 56.0471 99.638 56.3007 99.9239 56.3007H101.634C102.528 56.3007 103.255 55.5053 103.255 54.5278V43.56C103.255 42.7551 102.762 42.0747 102.089 41.8586V24.431C102.089 24.1183 101.858 23.8646 101.572 23.8646C101.286 23.8646 101.054 24.1183 101.054 24.431V41.8649C101.036 41.8712 101.018 41.8789 100.999 41.8861C100.988 41.8905 100.976 41.8945 100.965 41.8991C100.925 41.9155 100.886 41.9331 100.848 41.9527C100.845 41.9545 100.842 41.9565 100.838 41.9585C100.804 41.9765 100.77 41.9961 100.737 42.0167C100.725 42.0238 100.714 42.0314 100.703 42.0388C100.678 42.0554 100.653 42.0729 100.628 42.0911C100.617 42.0996 100.605 42.1082 100.594 42.1171C100.568 42.1373 100.543 42.1585 100.518 42.1806C100.51 42.1877 100.502 42.1943 100.494 42.2017C100.462 42.2311 100.431 42.2618 100.401 42.2939C100.394 42.3009 100.388 42.3083 100.382 42.3153C100.358 42.3411 100.336 42.3675 100.314 42.3948C100.305 42.4064 100.296 42.4182 100.287 42.4299C100.268 42.4548 100.25 42.4799 100.232 42.5058C100.224 42.518 100.216 42.5301 100.208 42.5425C100.188 42.5736 100.168 42.6056 100.15 42.6384C100.146 42.6455 100.141 42.6522 100.138 42.6595C100.116 42.6993 100.096 42.7402 100.077 42.782C100.071 42.7938 100.067 42.806 100.061 42.818C100.048 42.8489 100.035 42.8802 100.024 42.9122C100.018 42.9274 100.013 42.9425 100.008 42.9578C99.9972 42.9891 99.9876 43.0209 99.9785 43.0531C99.9745 43.0674 99.9702 43.0815 99.9664 43.0959C99.9545 43.1423 99.9438 43.189 99.9351 43.237C99.6505 44.8062 98.6512 46.031 97.3891 46.3575C97.1713 46.4138 96.9491 46.4426 96.7289 46.4433C96.7273 46.4432 96.7251 46.443 96.7233 46.4429C96.6873 46.4413 96.5942 46.435 96.4742 46.4238C96.2988 46.4074 96.2374 46.3993 96.2216 46.3971C95.7516 46.3068 95.2726 46.4467 94.9061 46.7816C94.5355 47.12 94.3229 47.6156 94.3229 48.1415C94.3229 48.1981 94.3251 48.2499 94.329 48.293C94.3381 48.4086 94.3427 48.5335 94.3427 48.6647C94.3427 49.1886 94.2641 49.6972 94.1091 50.1768C93.7088 51.4194 92.7995 52.3712 91.7361 52.6613C91.6951 52.6725 91.6549 52.6859 91.6152 52.7004C91.6026 52.705 91.5902 52.7104 91.5776 52.7154C91.5508 52.7262 91.5242 52.7373 91.4981 52.7495C91.4842 52.7561 91.4704 52.7629 91.4567 52.7699C91.4323 52.7823 91.4081 52.7955 91.3843 52.8091C91.3712 52.8166 91.3582 52.8241 91.3455 52.8318C91.3196 52.8479 91.2943 52.8647 91.2694 52.8821C91.26 52.8888 91.2501 52.8948 91.2409 52.9017C91.2073 52.9264 91.1743 52.9523 91.1428 52.9796C91.1365 52.9852 91.1306 52.991 91.1244 52.9965C91.0991 53.0189 91.0744 53.0419 91.0504 53.066C91.0402 53.0762 91.0305 53.087 91.0205 53.0974C91.0011 53.118 90.9821 53.1389 90.9638 53.1605C90.9535 53.1723 90.9437 53.1844 90.9339 53.1965C90.916 53.2186 90.8988 53.2413 90.882 53.2645C90.8733 53.2763 90.8646 53.288 90.8562 53.3C90.8366 53.3285 90.8178 53.3578 90.7997 53.3875C90.7954 53.3947 90.7906 53.4015 90.7864 53.4088C90.7645 53.446 90.744 53.4842 90.7246 53.5232C90.7193 53.534 90.7145 53.5451 90.7095 53.5561C90.6958 53.5849 90.6828 53.614 90.6706 53.6435C90.6646 53.6582 90.6592 53.6729 90.6535 53.6876C90.643 53.7149 90.6334 53.7424 90.6242 53.7703C90.6191 53.7857 90.614 53.801 90.6094 53.8166C90.6005 53.8462 90.5925 53.8761 90.585 53.9064C90.5816 53.9202 90.5778 53.9339 90.5746 53.9479C90.5734 53.9526 90.5721 53.9572 90.5711 53.9619H78.4294C78.4284 53.9572 78.427 53.9526 78.4259 53.9478C78.4228 53.9339 78.4189 53.9203 78.4155 53.9066C78.408 53.8762 78.4 53.8463 78.3911 53.8166C78.3864 53.801 78.3815 53.7857 78.3763 53.7703C78.3671 53.7423 78.3573 53.7148 78.3469 53.6875C78.3413 53.6728 78.3358 53.6582 78.3299 53.6437C78.3177 53.6138 78.3045 53.5845 78.2908 53.5555C78.2857 53.5449 78.2811 53.5339 78.2758 53.5232C78.2563 53.4842 78.2358 53.4459 78.2139 53.4086C78.2098 53.4017 78.2053 53.3953 78.2013 53.3885C78.1828 53.3583 78.1639 53.3287 78.144 53.2998C78.1357 53.2881 78.1271 53.2765 78.1188 53.265C78.1017 53.2415 78.0843 53.2186 78.0662 53.1962C78.0565 53.1843 78.0467 53.1725 78.0369 53.1609C78.0182 53.139 77.9991 53.1178 77.9793 53.0971C77.9696 53.0868 77.9601 53.0762 77.9502 53.0664C77.9258 53.0418 77.9006 53.0182 77.8748 52.9953C77.8691 52.9903 77.8637 52.9848 77.8579 52.9798C77.8259 52.9524 77.793 52.9262 77.7591 52.9016C77.7503 52.8951 77.741 52.8893 77.732 52.883C77.7067 52.8652 77.6809 52.8479 77.6545 52.8317C77.6421 52.8242 77.6293 52.8168 77.6166 52.8096C77.5925 52.7956 77.5679 52.7824 77.543 52.7697C77.5295 52.7629 77.5161 52.7562 77.5023 52.7498C77.476 52.7375 77.4492 52.7262 77.4222 52.7154C77.4098 52.7104 77.3977 52.7051 77.3851 52.7005C77.3455 52.686 77.3053 52.6726 77.2641 52.6614C76.2009 52.3713 75.2915 51.4195 74.891 50.1765C74.7363 49.6974 74.6577 49.1888 74.6577 48.6648C74.6577 48.5337 74.6623 48.4086 74.6709 48.2996C74.6753 48.25 74.6774 48.1981 74.6774 48.1415C74.6774 47.6156 74.4648 47.12 74.0942 46.7816C74.0433 46.7352 73.9898 46.6935 73.9351 46.6547C73.5944 46.4135 73.1835 46.3197 72.7786 46.3972C72.7629 46.3995 72.7014 46.4076 72.5257 46.4239C72.4054 46.4352 72.312 46.4416 72.2764 46.4432C72.2748 46.4432 72.2728 46.4433 72.2714 46.4434C72.0512 46.4427 71.829 46.4139 71.6112 46.3577C70.3492 46.0312 69.3497 44.8064 69.0653 43.2375C69.0567 43.1896 69.0458 43.1427 69.0338 43.0963C69.0302 43.082 69.0259 43.0681 69.022 43.0539C69.0128 43.0215 69.003 42.9896 68.9923 42.9579C68.9872 42.9428 68.9819 42.9277 68.9766 42.9129C68.9648 42.8806 68.9519 42.8489 68.9385 42.8175C68.9335 42.8058 68.9288 42.794 68.9237 42.7825C68.9045 42.7404 68.8843 42.6993 68.8624 42.6593C68.8589 42.6527 68.8548 42.6465 68.8512 42.64C68.8325 42.6065 68.8129 42.574 68.7923 42.5422C68.7845 42.5302 68.7764 42.5183 68.7683 42.5065C68.7505 42.4804 68.7321 42.4548 68.7131 42.4297C68.7042 42.4181 68.6955 42.4065 68.6864 42.3951C68.6645 42.3678 68.6417 42.3412 68.6184 42.3154C68.612 42.3083 68.606 42.3009 68.5996 42.294C68.5694 42.2619 68.5383 42.231 68.5062 42.2016C68.4986 42.1944 68.4906 42.1881 68.4828 42.1812C68.4576 42.1591 68.4322 42.1375 68.406 42.1171C68.3948 42.1082 68.3833 42.0998 68.372 42.0912C68.3475 42.073 68.3224 42.0556 68.2969 42.0388C68.2857 42.0314 68.2745 42.0238 68.2631 42.0168C68.2306 41.9964 68.1974 41.9774 68.1637 41.9596C68.1595 41.9573 68.1555 41.9548 68.1514 41.9527C68.1133 41.9331 68.0744 41.9154 68.0349 41.8991C68.0237 41.8945 68.0122 41.8905 68.0009 41.8862C67.9822 41.8789 67.9638 41.8711 67.9448 41.8648V15.5614C68.4938 15.3936 68.931 14.924 69.0724 14.3046C69.17 13.8742 69.3476 13.4668 69.5999 13.0936C69.7701 12.8421 69.7217 12.4874 69.4919 12.3013C69.2621 12.1151 68.9378 12.1682 68.768 12.4196C68.4339 12.9134 68.1984 13.4557 68.0679 14.0309C68.0063 14.3007 67.7666 14.4966 67.4976 14.4966H67.3662C67.0431 14.4966 66.7803 14.209 66.7803 13.8554V3.47207C66.7803 3.1192 67.0431 2.83203 67.3662 2.83203H77.3886C77.711 2.83203 77.9734 3.1192 77.9734 3.47207V3.58875C77.9734 3.8988 77.7717 4.15889 77.4826 4.22143C75.6517 4.6178 74.2155 6.04537 73.8239 7.85832C73.7542 8.18117 73.7188 8.51422 73.7188 8.8484C73.7188 8.8527 73.7188 8.85701 73.7189 8.86131C73.7206 8.93812 73.7308 9.09501 73.7404 9.21554C73.7611 9.48357 73.7706 9.55052 73.7737 9.57249C73.7744 9.57691 73.775 9.58121 73.7758 9.58563C73.8181 9.8421 73.7146 10.0243 73.6491 10.1099C73.5373 10.2563 73.3744 10.3403 73.2024 10.3403C73.1874 10.3403 73.1719 10.34 73.1511 10.3378C73.0158 10.3251 72.8722 10.3188 72.7241 10.3188C72.3639 10.3188 72.0052 10.3589 71.6581 10.4381C71.3782 10.5019 71.1987 10.8018 71.257 11.1081C71.3153 11.4143 71.5896 11.611 71.8692 11.5471C72.147 11.4838 72.4346 11.4516 72.7241 11.4516C72.8428 11.4516 72.9568 11.4566 73.0577 11.466C73.1033 11.4707 73.1506 11.4731 73.2024 11.4731C73.6821 11.4731 74.1344 11.241 74.4434 10.8363C74.7501 10.4346 74.8784 9.90939 74.796 9.39396C74.793 9.36995 74.7848 9.28793 74.7718 9.11925C74.7616 8.99 74.7552 8.87864 74.754 8.8407C74.7545 8.59669 74.7805 8.35393 74.8313 8.11875C75.1298 6.73672 76.2494 5.64311 77.6835 5.3326C78.3107 5.197 78.7971 4.68248 78.9542 4.03836H90.0454C90.0459 4.04029 90.0465 4.04221 90.0471 4.04414C90.0494 4.05388 90.0526 4.0634 90.0551 4.07314C90.0646 4.1086 90.0746 4.14383 90.0861 4.17849C90.091 4.19345 90.0964 4.20806 90.1016 4.22279C90.1121 4.25224 90.123 4.28124 90.1349 4.3099C90.1413 4.32497 90.1475 4.33992 90.1541 4.35476C90.1671 4.38387 90.1809 4.41242 90.1952 4.44074C90.2017 4.45331 90.2077 4.46611 90.2144 4.47846C90.2353 4.51698 90.2571 4.55481 90.2804 4.59152C90.2812 4.59288 90.282 4.59423 90.2828 4.59559C90.3071 4.63377 90.3332 4.6707 90.3602 4.70661C90.3682 4.71714 90.3766 4.72723 90.3846 4.73754C90.4043 4.76257 90.4246 4.78715 90.4455 4.81105C90.4558 4.82284 90.4662 4.83416 90.4769 4.84561C90.4974 4.8677 90.5184 4.88922 90.5399 4.91018C90.5508 4.92071 90.5615 4.93136 90.5726 4.94155C90.5974 4.96444 90.6229 4.9863 90.649 5.0076C90.6574 5.01439 90.6654 5.02164 90.6739 5.02833C90.7086 5.05563 90.7443 5.08146 90.7811 5.10581C90.7895 5.11148 90.7983 5.11635 90.8069 5.12179C90.8355 5.14002 90.8648 5.15758 90.8948 5.17412C90.9082 5.18148 90.9219 5.18828 90.9355 5.1953C90.9618 5.20879 90.9884 5.22159 91.0153 5.23359C91.03 5.24016 91.0446 5.24651 91.0597 5.25251C91.0879 5.26407 91.1168 5.27449 91.1459 5.28446C91.1593 5.28899 91.1727 5.29397 91.1864 5.29816C91.229 5.31142 91.2723 5.32331 91.3165 5.33283C92.7506 5.64333 93.8702 6.73695 94.1687 8.11898C94.2196 8.35404 94.2456 8.59691 94.2461 8.84103C94.2448 8.87898 94.2384 8.99045 94.2282 9.12039C94.2152 9.28827 94.207 9.37029 94.204 9.39407C94.1834 9.52299 94.176 9.65247 94.1812 9.78048C94.1943 10.1005 94.2865 10.4113 94.4501 10.6804C94.4827 10.7342 94.5183 10.7863 94.5566 10.8365C94.8656 11.2412 95.318 11.4734 95.7977 11.4734C95.8494 11.4734 95.8967 11.471 95.9371 11.4668C96.0432 11.4568 96.1573 11.4518 96.2759 11.4518C96.7525 11.4518 97.2173 11.5381 97.6579 11.7086C98.7939 12.1459 99.6636 13.1407 99.9279 14.3054C99.9381 14.3499 99.9502 14.3933 99.9633 14.4361C99.9674 14.4497 99.9721 14.4627 99.9765 14.4762C99.9864 14.5058 99.9967 14.535 100.008 14.5638C100.014 14.5781 100.019 14.5923 100.025 14.6065C100.037 14.6351 100.05 14.6634 100.063 14.6912C100.069 14.703 100.074 14.7151 100.08 14.7268C100.1 14.7652 100.12 14.8028 100.143 14.8392C100.145 14.8441 100.149 14.8488 100.152 14.8537C100.171 14.8852 100.192 14.9159 100.213 14.9458C100.221 14.9573 100.23 14.9685 100.238 14.9799C100.256 15.003 100.273 15.0255 100.292 15.0476C100.301 15.059 100.311 15.0705 100.32 15.0816C100.34 15.1044 100.361 15.1264 100.382 15.148C100.39 15.1565 100.398 15.1652 100.407 15.1736C100.436 15.2025 100.466 15.2303 100.498 15.2569C100.504 15.2624 100.511 15.2674 100.518 15.2727C100.543 15.2936 100.569 15.3138 100.596 15.3331C100.607 15.3413 100.619 15.3492 100.63 15.3571C100.654 15.3728 100.677 15.388 100.701 15.4025C100.713 15.41 100.725 15.4174 100.738 15.4245C100.764 15.4398 100.792 15.4541 100.819 15.4678C100.829 15.4724 100.838 15.4775 100.847 15.482C100.884 15.4995 100.922 15.5155 100.96 15.5298C100.969 15.5334 100.979 15.5363 100.988 15.5396C101.01 15.5474 101.032 15.5556 101.054 15.5625V20.7916C101.054 21.1043 101.286 21.3579 101.572 21.3579Z" fill="white"/>
<path d="M91.552 23.9989C91.5502 23.9836 91.5497 23.9682 91.5465 23.9534C91.5429 23.9352 91.5366 23.9176 91.5313 23.8996C91.5261 23.882 91.5218 23.8641 91.5152 23.8474C91.5094 23.8331 91.5014 23.8197 91.4946 23.8059C91.4851 23.7868 91.4761 23.7674 91.4648 23.7496C91.463 23.747 91.4621 23.744 91.4603 23.7413C91.4531 23.7303 91.444 23.7218 91.4361 23.7117C91.424 23.6958 91.4123 23.6799 91.3987 23.6658C91.3864 23.6529 91.3731 23.642 91.3598 23.6307C91.3468 23.6193 91.334 23.6079 91.32 23.598C91.3055 23.5879 91.2904 23.5799 91.2752 23.5715C91.2603 23.5633 91.2459 23.5548 91.2303 23.5481C91.2145 23.5413 91.1981 23.5366 91.1819 23.5315C91.1659 23.5267 91.1503 23.5212 91.1338 23.5179C91.1151 23.5142 91.0964 23.5132 91.0773 23.5117C91.0653 23.5108 91.0537 23.5077 91.0414 23.5077H86.4198L84.9927 18.6984C84.9888 18.6855 84.9825 18.6744 84.978 18.662C84.9709 18.6429 84.9642 18.6237 84.9552 18.6055C84.9472 18.5893 84.9378 18.5747 84.9285 18.5596C84.9191 18.5442 84.9101 18.5288 84.8993 18.5144C84.8885 18.5003 84.8766 18.4876 84.8648 18.4747C84.853 18.4616 84.8413 18.4485 84.8283 18.4367C84.8151 18.4249 84.801 18.4151 84.787 18.4048C84.7732 18.3947 84.76 18.3844 84.7453 18.3757C84.7282 18.3656 84.7102 18.358 84.6922 18.3501C84.6813 18.3453 84.6716 18.3386 84.6602 18.3346C84.6575 18.3336 84.6547 18.3336 84.652 18.3327C84.6321 18.326 84.6114 18.3223 84.5908 18.3182C84.5778 18.3156 84.5648 18.3118 84.5518 18.3103C84.5335 18.3083 84.5149 18.3094 84.4964 18.3095C84.4809 18.3096 84.4654 18.3085 84.45 18.3102C84.4348 18.3119 84.4196 18.3163 84.4044 18.3195C84.3859 18.3233 84.3674 18.3266 84.3494 18.3326C84.3465 18.3336 84.3434 18.3336 84.3405 18.3348C84.3283 18.3391 84.3176 18.3462 84.306 18.3513C84.2892 18.3589 84.2722 18.3659 84.2561 18.3753C84.2407 18.3844 84.2268 18.3951 84.2124 18.4058C84.1989 18.4156 84.1853 18.425 84.1728 18.4364C84.1593 18.4485 84.1474 18.4621 84.135 18.4756C84.1236 18.4881 84.1121 18.5004 84.1017 18.5141C84.0906 18.5288 84.0814 18.5447 84.0717 18.5604C84.0627 18.5751 84.0535 18.5893 84.0457 18.6052C84.0364 18.624 84.0295 18.6438 84.0221 18.6636C84.0178 18.6754 84.0117 18.686 84.0081 18.6984L82.5798 23.5079H77.9591C77.9466 23.5079 77.935 23.5109 77.9225 23.5119C77.904 23.5134 77.8856 23.5143 77.8673 23.5181C77.85 23.5215 77.8337 23.527 77.8171 23.5322C77.8016 23.5371 77.7862 23.5414 77.7712 23.5478C77.7546 23.555 77.7391 23.5639 77.7235 23.5728C77.7093 23.5807 77.6951 23.5882 77.6817 23.5976C77.6666 23.6081 77.6531 23.6202 77.6391 23.6324C77.6268 23.6431 77.6142 23.6533 77.6026 23.6653C77.5883 23.6802 77.576 23.6967 77.5635 23.7132C77.556 23.723 77.5474 23.731 77.5404 23.7414C77.5386 23.7439 77.5378 23.7469 77.5361 23.7495C77.5244 23.7677 77.515 23.7875 77.5053 23.8073C77.4988 23.8206 77.491 23.8334 77.4856 23.8471C77.4787 23.8645 77.4742 23.8829 77.4688 23.9011C77.4637 23.9184 77.4576 23.9356 77.454 23.9533C77.451 23.9685 77.4503 23.9843 77.4483 24C77.4458 24.0216 77.4426 24.0431 77.4422 24.0649C77.4422 24.068 77.4414 24.0711 77.4414 24.0743C77.4414 24.0877 77.4442 24.1002 77.445 24.1135C77.4464 24.1342 77.4472 24.1547 77.4507 24.1751C77.4537 24.1934 77.4587 24.2107 77.4632 24.2282C77.4678 24.2458 77.4719 24.2634 77.478 24.2804C77.4845 24.2979 77.4923 24.3142 77.5 24.3307C77.5076 24.3468 77.5147 24.3629 77.5237 24.3783C77.533 24.3943 77.5438 24.4088 77.5545 24.4235C77.5647 24.4374 77.5741 24.4515 77.5855 24.4644C77.5991 24.48 77.6142 24.4934 77.6293 24.5072C77.6382 24.5153 77.6454 24.5248 77.655 24.5323L81.3929 27.5042L79.9647 32.3134C79.9611 32.3257 79.9603 32.3381 79.9575 32.3504C79.9526 32.3712 79.9476 32.3917 79.945 32.413C79.9429 32.4308 79.9427 32.4485 79.942 32.4661C79.9413 32.4849 79.9403 32.5036 79.9413 32.5225C79.9423 32.5407 79.9452 32.5583 79.9478 32.5762C79.9504 32.5947 79.9528 32.6128 79.9571 32.631C79.9614 32.6487 79.9675 32.6656 79.9732 32.6827C79.979 32.6999 79.9842 32.7172 79.9916 32.7338C79.9998 32.7524 80.01 32.7696 80.0199 32.7872C80.0264 32.7985 80.0308 32.8105 80.0382 32.8215C80.0405 32.825 80.0433 32.828 80.0455 32.8314C80.0492 32.8366 80.0532 32.8414 80.057 32.8466C80.0742 32.8698 80.0926 32.8912 80.1123 32.9104C80.115 32.913 80.1176 32.916 80.1203 32.9186C80.1433 32.9402 80.1679 32.9587 80.1936 32.9752C80.1984 32.9784 80.2034 32.9817 80.2085 32.9846C80.2355 33.0008 80.2633 33.0144 80.2923 33.0249C80.294 33.0255 80.2953 33.0266 80.2971 33.0272C80.3011 33.0288 80.3053 33.0293 80.3093 33.0305C80.3273 33.0363 80.3455 33.0411 80.364 33.0448C80.3713 33.0464 80.3787 33.0478 80.386 33.0491C80.4076 33.0522 80.4295 33.0544 80.4513 33.0546C80.4533 33.0546 80.4552 33.0551 80.4571 33.0551C80.468 33.0551 80.4788 33.053 80.4895 33.0524C80.5054 33.0512 80.5214 33.0509 80.5371 33.0483C80.5467 33.0466 80.5557 33.0433 80.5651 33.0411C80.5821 33.0372 80.599 33.0338 80.6158 33.0278C80.6245 33.0247 80.6326 33.0201 80.6412 33.0165C80.6611 33.0081 80.6809 32.999 80.7001 32.9877C80.7207 32.9758 80.7409 32.9628 80.7598 32.9478C80.7602 32.9473 80.7607 32.9471 80.7612 32.9469L84.4999 29.9746L88.2384 32.9469C88.2388 32.9471 88.2393 32.9473 88.2397 32.9478C88.2584 32.9624 88.2782 32.9751 88.2984 32.987C88.3202 32.9998 88.3424 33.0102 88.3651 33.0193C88.3714 33.0219 88.3773 33.0255 88.3838 33.0277C88.4011 33.0339 88.4188 33.0375 88.4365 33.0416C88.4452 33.0436 88.4536 33.0467 88.4624 33.0483C88.4783 33.0509 88.4946 33.0513 88.5106 33.0525C88.5213 33.0532 88.5318 33.0551 88.5426 33.0551C88.5446 33.0551 88.5465 33.0546 88.5484 33.0546C88.5703 33.0544 88.5921 33.0522 88.6137 33.0491C88.6211 33.0478 88.6284 33.0464 88.6358 33.0448C88.6543 33.0411 88.6724 33.0363 88.6906 33.0304C88.6946 33.0291 88.6986 33.0287 88.7027 33.0272C88.7044 33.0266 88.7057 33.0256 88.7074 33.0249C88.7363 33.0143 88.7643 33.0007 88.7913 32.9846C88.7963 32.9817 88.8012 32.9784 88.8063 32.9752C88.8317 32.9587 88.8564 32.9402 88.8794 32.9187C88.8823 32.916 88.8849 32.9128 88.8877 32.91C88.9072 32.8909 88.9253 32.8699 88.9423 32.847C88.9463 32.8415 88.9506 32.8364 88.9544 32.8309C88.9566 32.8276 88.9593 32.8248 88.9615 32.8214C88.9685 32.8108 88.9728 32.7993 88.9792 32.7883C88.9894 32.7703 88.9999 32.7527 89.0082 32.7336C89.0154 32.7172 89.0206 32.7004 89.0263 32.6836C89.0323 32.6662 89.0384 32.6489 89.0427 32.6307C89.0469 32.6129 89.0492 32.595 89.0518 32.5769C89.0544 32.5587 89.0574 32.5408 89.0583 32.5223C89.0594 32.5037 89.0582 32.4854 89.0576 32.4668C89.057 32.4488 89.0568 32.431 89.0546 32.4128C89.052 32.3919 89.0471 32.3717 89.0424 32.3512C89.0395 32.3387 89.0387 32.326 89.0349 32.3134L87.6074 27.5043L91.3457 24.5324C91.3555 24.5247 91.3631 24.5149 91.3722 24.5064C91.387 24.493 91.4017 24.4799 91.415 24.4646C91.4266 24.4514 91.4363 24.437 91.4467 24.4227C91.4571 24.4082 91.4677 24.3942 91.4769 24.3784C91.486 24.3628 91.4932 24.3464 91.5008 24.3299C91.5085 24.3136 91.5162 24.2977 91.5224 24.2804C91.5286 24.2631 91.5329 24.2452 91.5375 24.2274C91.542 24.2101 91.5469 24.193 91.5499 24.1751C91.5533 24.1544 91.5543 24.1335 91.5557 24.1126C91.5565 24.0996 91.5592 24.0872 91.5592 24.074C91.5592 24.0709 91.5583 24.0679 91.5582 24.0647C91.5579 24.0429 91.5547 24.021 91.552 23.9989ZM85.6687 24.6407L86.3904 27.0717L84.5 28.5746L82.6098 27.0718L83.3319 24.6407H85.6687V24.6407ZM84.5001 20.7066L85.3314 23.5079H83.6683L84.5001 20.7066ZM79.5521 24.6407H82.2434L81.7293 26.3717L79.5521 24.6407ZM81.4415 31.0061L82.2734 28.2045L83.6194 29.2745L81.4415 31.0061ZM87.5583 31.0061L85.3805 29.2748L86.7268 28.2046L87.5583 31.0061ZM86.7572 24.6407H89.4484L87.271 26.3716L86.7572 24.6407Z" fill="white"/>
<path d="M84.5 36.6272C89.7417 36.6272 94.0059 31.9605 94.0059 26.2245C94.0059 20.4879 89.7417 15.8208 84.5 15.8208C83.1037 15.8208 81.7583 16.1446 80.5012 16.7832C80.2419 16.915 80.1293 17.2518 80.2497 17.5355C80.3701 17.8193 80.6778 17.9424 80.9371 17.8108C82.0566 17.242 83.2554 16.9537 84.5 16.9537C89.1708 16.9537 92.9707 21.1126 92.9707 26.2247C92.9707 31.336 89.1708 35.4945 84.5 35.4945C79.8287 35.4945 76.0283 31.336 76.0283 26.2247C76.0283 23.9855 76.7676 21.8238 78.1097 20.1377C78.2975 19.9019 78.275 19.5441 78.0595 19.3386C77.844 19.1333 77.5171 19.1578 77.3293 19.3937C75.8227 21.2861 74.9932 23.712 74.9932 26.2247C74.9932 31.9605 79.2579 36.6272 84.5 36.6272Z" fill="white"/>
<path d="M85.9668 13.3254C85.9668 12.4403 85.3089 11.7202 84.5 11.7202C83.6911 11.7202 83.0332 12.4402 83.0332 13.3254C83.0332 14.2106 83.6911 14.9306 84.5 14.9306C85.3089 14.9306 85.9668 14.2105 85.9668 13.3254ZM84.0684 13.3254C84.0684 13.065 84.262 12.853 84.5 12.853C84.738 12.853 84.9317 13.065 84.9317 13.3254C84.9317 13.5858 84.738 13.7978 84.5 13.7978C84.262 13.7978 84.0684 13.5858 84.0684 13.3254Z" fill="white"/>
<path d="M90.3922 16.6595C90.8997 16.6595 91.3939 16.3714 91.665 15.8571C91.8609 15.4862 91.913 15.0538 91.8118 14.6396C91.7104 14.2255 91.4681 13.8793 91.1293 13.6651C90.7899 13.4503 90.3941 13.393 90.0154 13.5041C89.637 13.615 89.3207 13.8806 89.1246 14.2521C88.7208 15.019 88.9614 16.0026 89.6614 16.445C89.8918 16.5905 90.1435 16.6595 90.3922 16.6595ZM90.0212 14.8183C90.0788 14.7092 90.1719 14.631 90.2833 14.5984C90.3204 14.5875 90.3581 14.5821 90.3956 14.5821C90.4705 14.5821 90.5444 14.6036 90.6112 14.6459C90.8169 14.7759 90.8876 15.0651 90.7686 15.2903C90.7685 15.2904 90.7684 15.2907 90.7683 15.2908C90.6496 15.5164 90.385 15.5938 90.1786 15.4638C89.9728 15.3338 89.9023 15.0439 90.0212 14.8183Z" fill="white"/>
<path d="M94.7135 21.3842C94.9615 21.3842 95.213 21.3153 95.4429 21.1702H95.443C95.7825 20.956 96.0255 20.6098 96.1269 20.1954C96.2282 19.7814 96.1764 19.3488 95.9806 18.9774C95.785 18.6059 95.469 18.3401 95.0903 18.2289C94.7121 18.1177 94.3165 18.1746 93.9777 18.3888C93.6382 18.603 93.3952 18.9491 93.2938 19.3635C93.1924 19.7775 93.2443 20.21 93.44 20.5808C93.7113 21.0958 94.2058 21.3842 94.7135 21.3842ZM94.2936 19.6567C94.3235 19.5349 94.3949 19.4332 94.4951 19.3699C94.5614 19.328 94.635 19.3066 94.7097 19.3066C94.7471 19.3066 94.7849 19.3119 94.8221 19.3229C94.9333 19.3556 95.0262 19.4337 95.0837 19.5429C95.1414 19.6526 95.1568 19.7803 95.1269 19.9023C95.0971 20.024 95.0257 20.1258 94.9259 20.1887H94.926C94.7199 20.3187 94.4556 20.2406 94.3366 20.0145C94.2792 19.9055 94.2638 19.7784 94.2936 19.6567Z" fill="white"/>
<path d="M96.2892 27.8364C96.6796 27.8364 97.0467 27.6701 97.3234 27.3678C97.6012 27.0646 97.754 26.6613 97.754 26.2333C97.7556 25.3487 97.0985 24.6277 96.2883 24.626C95.4805 24.626 94.8221 25.3455 94.8203 26.2312C94.8203 27.1162 95.4782 27.8363 96.2869 27.8364C96.2877 27.8364 96.2884 27.8364 96.2892 27.8364ZM95.8555 26.2324C95.856 25.9713 96.0501 25.7588 96.2872 25.7588C96.5257 25.7592 96.7194 25.9712 96.7189 26.2323C96.7189 26.3583 96.6739 26.4769 96.5922 26.566C96.511 26.6547 96.4034 26.7036 96.289 26.7036C96.2884 26.7036 96.2876 26.7036 96.287 26.7036C96.0491 26.7036 95.8555 26.4916 95.8555 26.2324Z" fill="white"/>
<path d="M93.9686 34.0713C94.1992 34.2171 94.4512 34.2866 94.7002 34.2865C95.2069 34.2865 95.7005 33.9994 95.9726 33.4861C96.1691 33.1145 96.2214 32.6814 96.12 32.2668C96.0186 31.8526 95.7758 31.5065 95.4374 31.293C95.0988 31.0782 94.7038 31.0207 94.3254 31.1308C93.9464 31.2413 93.6293 31.5069 93.4326 31.8791C93.2367 32.25 93.1846 32.6824 93.2858 33.0966C93.3871 33.5108 93.6296 33.857 93.9686 34.0713ZM94.3288 32.4462C94.3868 32.3364 94.4802 32.258 94.5919 32.2255C94.6286 32.2148 94.6659 32.2094 94.703 32.2094C94.7779 32.2094 94.8519 32.2311 94.9193 32.2738C95.019 32.3367 95.0903 32.4382 95.12 32.5598C95.1498 32.6817 95.1344 32.8092 95.0768 32.9182C94.9573 33.1437 94.6926 33.2207 94.4866 33.0905C94.4865 33.0904 94.4864 33.0904 94.4863 33.0903C94.3867 33.0273 94.3156 32.9257 94.2858 32.8039C94.2561 32.6821 94.2713 32.5548 94.3288 32.4462Z" fill="white"/>
<path d="M90.7642 35.8517C90.3854 35.7403 89.99 35.7969 89.6522 36.0105C89.3126 36.2239 89.0692 36.5695 88.9672 36.9834C88.8652 37.3977 88.9167 37.8305 89.1123 38.2023C89.3074 38.5738 89.6231 38.84 90.0013 38.9516C90.1284 38.9891 90.2573 39.0077 90.3855 39.0077C90.6392 39.0077 90.8897 38.9348 91.1156 38.7924C91.455 38.5783 91.6981 38.2325 91.7998 37.8184C91.9018 37.404 91.85 36.9714 91.6544 36.6005C91.4586 36.2291 91.1425 35.9631 90.7642 35.8517ZM90.8002 37.524C90.7703 37.646 90.6986 37.748 90.5986 37.8109C90.4985 37.874 90.3822 37.8908 90.2707 37.8578C90.1597 37.8251 90.067 37.7469 90.0097 37.638C90.0096 37.6377 90.0094 37.6375 90.0093 37.6373C89.9517 37.5277 89.9366 37.4003 89.9666 37.2785C89.9965 37.157 90.0679 37.0556 90.1686 36.9923C90.2347 36.9506 90.308 36.9292 90.3823 36.9292C90.4199 36.9292 90.4578 36.9346 90.495 36.9457C90.6065 36.9784 90.6998 37.0568 90.7575 37.1667C90.8151 37.2756 90.8301 37.4023 90.8002 37.524Z" fill="white"/>
<path d="M83.0195 39.1205C83.0195 39.121 83.0195 39.1213 83.0195 39.1216C83.0195 40.0074 83.6772 40.728 84.4843 40.728C84.4853 40.728 84.4863 40.728 84.4873 40.728C84.8785 40.728 85.2462 40.5617 85.523 40.2593C85.8005 39.9564 85.9532 39.5531 85.9532 39.125C85.9547 38.2404 85.2976 37.5193 84.4874 37.5176C83.6798 37.5175 83.0213 38.2366 83.0195 39.1205ZM84.9181 39.1239C84.9181 39.2501 84.8732 39.3685 84.7918 39.4574C84.7106 39.5462 84.6024 39.595 84.4862 39.595C84.4859 39.595 84.4856 39.595 84.4853 39.595C84.248 39.595 84.0549 39.383 84.0547 39.1221C84.0556 38.8619 84.2496 38.6503 84.4865 38.6503C84.725 38.651 84.9186 38.8628 84.9181 39.1239Z" fill="white"/>
<path d="M79.3263 35.9961C78.6268 35.554 77.7279 35.8162 77.3228 36.5809C77.3226 36.5811 77.3225 36.5814 77.3224 36.5818C76.9183 37.3473 77.1578 38.3309 77.857 38.7746C78.0837 38.9183 78.3355 38.9916 78.5905 38.9916C78.7178 38.9916 78.846 38.9732 78.9722 38.9363C79.3503 38.8254 79.6662 38.56 79.8609 38.1902C80.0576 37.8191 80.1103 37.3864 80.0094 36.972C79.9085 36.5578 79.6661 36.2111 79.3263 35.9961ZM78.9648 37.6233C78.9075 37.7319 78.8151 37.8097 78.7043 37.842C78.5929 37.875 78.476 37.858 78.3759 37.7944C78.1702 37.6639 78.0996 37.3743 78.2184 37.1486C78.3378 36.9239 78.6022 36.8468 78.8081 36.9769C78.908 37.0402 78.9794 37.1419 79.009 37.2637C79.0389 37.3855 79.0234 37.5127 78.9648 37.6233Z" fill="white"/>
<path d="M73.9002 34.2062C74.0274 34.2436 74.1565 34.2622 74.2847 34.2622C74.5383 34.2622 74.7886 34.1896 75.0138 34.0475C75.7149 33.607 75.9577 32.624 75.5545 31.8551C75.3585 31.4832 75.042 31.217 74.6631 31.1057C74.2852 30.9948 73.8904 31.0515 73.5517 31.2655C73.212 31.4791 72.9687 31.8248 72.8666 32.239C72.7646 32.6531 72.8162 33.0859 73.0113 33.4565C73.2062 33.8283 73.522 34.0945 73.9002 34.2062ZM73.8659 32.534C73.8961 32.4121 73.9676 32.3102 74.0676 32.2475C74.068 32.2473 74.0684 32.247 74.0688 32.2468C74.1349 32.205 74.2082 32.1837 74.2825 32.1837C74.3198 32.1837 74.3576 32.189 74.3948 32.2C74.5065 32.2329 74.5998 32.3112 74.657 32.42C74.7756 32.6461 74.7045 32.9356 74.4977 33.0655C74.3976 33.1286 74.2812 33.1455 74.1698 33.1123C74.0587 33.0795 73.966 33.0014 73.9085 32.8917C73.8511 32.7827 73.836 32.6558 73.8659 32.534Z" fill="white"/>
<path d="M72.713 24.5967C72.3221 24.5967 71.9546 24.7626 71.6778 25.0641C71.4001 25.3665 71.2468 25.7694 71.2461 26.1985C71.2454 26.6276 71.3975 27.0312 71.6747 27.335C71.9517 27.6387 72.32 27.8059 72.7109 27.8059C72.712 27.8059 72.713 27.8059 72.7139 27.8059C73.1044 27.8059 73.4717 27.64 73.7484 27.3383C74.0258 27.0359 74.179 26.633 74.1797 26.2041C74.1805 25.7749 74.0283 25.3712 73.7511 25.0672C73.4743 24.7638 73.1063 24.5967 72.7149 24.5967C72.7143 24.5967 72.7136 24.5967 72.713 24.5967ZM73.1446 26.2019C73.1444 26.3283 73.0992 26.4469 73.0178 26.5358C72.9363 26.6246 72.8251 26.6724 72.7119 26.6731C72.5969 26.6731 72.4887 26.624 72.4073 26.5348C72.3259 26.4454 72.281 26.3268 72.2813 26.2007C72.2815 26.0743 72.3266 25.9558 72.4081 25.867C72.4895 25.7783 72.5978 25.7295 72.7131 25.7295C72.7135 25.7295 72.7144 25.7295 72.715 25.7295C72.8295 25.7295 72.9372 25.7785 73.0185 25.8676C73.1 25.957 73.1448 26.0758 73.1446 26.2019Z" fill="white"/>
<path d="M75.04 18.3648C74.3401 17.9207 73.4412 18.1824 73.0354 18.9478C72.6298 19.7135 72.869 20.6974 73.5683 21.1413C73.7994 21.2879 74.052 21.3575 74.3017 21.3575C74.8079 21.3575 75.3011 21.0709 75.5727 20.5582C75.9785 19.7927 75.7394 18.8086 75.04 18.3648ZM74.6773 19.99C74.558 20.2151 74.2931 20.2919 74.0877 20.1614C73.882 20.0309 73.8117 19.7413 73.9309 19.5161C73.9888 19.4072 74.0819 19.3292 74.1932 19.2968C74.2301 19.2861 74.2676 19.2807 74.3047 19.2807C74.3799 19.2807 74.4539 19.3024 74.5206 19.3446C74.7264 19.4752 74.7967 19.7648 74.6773 19.99Z" fill="white"/>
<path d="M79.0127 13.4903C78.6341 13.3779 78.2384 13.4338 77.8981 13.6474C77.5581 13.8611 77.3145 14.2069 77.2123 14.6214C77.1104 15.0356 77.1618 15.4683 77.3569 15.8389C77.5521 16.2108 77.8677 16.4773 78.2458 16.5892C78.373 16.6269 78.5023 16.6455 78.6308 16.6455C78.884 16.6455 79.1341 16.573 79.3595 16.4311C79.6993 16.2176 79.9427 15.8721 80.0447 15.4583C80.1468 15.0447 80.0955 14.6123 79.9005 14.2407C79.706 13.869 79.3907 13.6026 79.0127 13.4903ZM79.0455 15.1631C79.0156 15.2845 78.9441 15.3859 78.8439 15.4488C78.7438 15.512 78.6274 15.5287 78.5162 15.4956C78.4051 15.4627 78.3123 15.3843 78.2545 15.2741C78.1971 15.165 78.182 15.038 78.212 14.9164C78.242 14.7945 78.3136 14.6927 78.4136 14.6299C78.4801 14.5882 78.5536 14.5669 78.628 14.5669C78.666 14.5669 78.7042 14.5725 78.7419 14.5836C78.8529 14.6165 78.9456 14.6948 79.0028 14.8041C79.0029 14.8044 79.003 14.8045 79.0031 14.8047C79.0604 14.9142 79.0755 15.0414 79.0455 15.1631Z" fill="white"/>
<path d="M93.376 44.6328C93.376 44.3199 93.1443 44.0664 92.8584 44.0664H76.1143C75.8283 44.0664 75.5967 44.3199 75.5967 44.6328C75.5967 44.9457 75.8283 45.1992 76.1143 45.1992H92.8584C93.1443 45.1992 93.376 44.9457 93.376 44.6328Z" fill="white"/>
<path d="M79.5264 47.1562C79.2405 47.1562 79.0088 47.4099 79.0088 47.7227C79.0088 48.0355 79.2405 48.2891 79.5264 48.2891H89.4463C89.7322 48.2891 89.9638 48.0355 89.9638 47.7227C89.9638 47.4099 89.7322 47.1562 89.4463 47.1562H79.5264Z" fill="white"/>
<path d="M14.2383 32.5811H5.28809V42H2.47559V20.6719H15.6885V22.9863H5.28809V30.2812H14.2383V32.5811ZM25.9131 28.582C25.5029 28.5137 25.0586 28.4795 24.5801 28.4795C22.8027 28.4795 21.5967 29.2363 20.9619 30.75V42H18.252V26.1504H20.8887L20.9326 27.9814C21.8213 26.5654 23.0811 25.8574 24.7119 25.8574C25.2393 25.8574 25.6396 25.9258 25.9131 26.0625V28.582ZM34.7021 42.293C32.5537 42.293 30.8057 41.5898 29.458 40.1836C28.1104 38.7676 27.4365 36.8779 27.4365 34.5146V34.0166C27.4365 32.4443 27.7344 31.043 28.3301 29.8125C28.9355 28.5723 29.7754 27.6055 30.8496 26.9121C31.9336 26.209 33.1055 25.8574 34.3652 25.8574C36.4258 25.8574 38.0273 26.5361 39.1699 27.8936C40.3125 29.251 40.8838 31.1943 40.8838 33.7236V34.8516H30.1465C30.1855 36.4141 30.6396 37.6787 31.5088 38.6455C32.3877 39.6025 33.501 40.0811 34.8486 40.0811C35.8057 40.0811 36.6162 39.8857 37.2803 39.4951C37.9443 39.1045 38.5254 38.5869 39.0234 37.9424L40.6787 39.2314C39.3506 41.2725 37.3584 42.293 34.7021 42.293ZM34.3652 28.084C33.2715 28.084 32.3535 28.4844 31.6113 29.2852C30.8691 30.0762 30.4102 31.1895 30.2344 32.625H38.1738V32.4199C38.0957 31.043 37.7246 29.9785 37.0605 29.2266C36.3965 28.4648 35.498 28.084 34.3652 28.084ZM50.6104 42.293C48.4619 42.293 46.7139 41.5898 45.3662 40.1836C44.0186 38.7676 43.3447 36.8779 43.3447 34.5146V34.0166C43.3447 32.4443 43.6426 31.043 44.2383 29.8125C44.8438 28.5723 45.6836 27.6055 46.7578 26.9121C47.8418 26.209 49.0137 25.8574 50.2734 25.8574C52.334 25.8574 53.9355 26.5361 55.0781 27.8936C56.2207 29.251 56.792 31.1943 56.792 33.7236V34.8516H46.0547C46.0938 36.4141 46.5479 37.6787 47.417 38.6455C48.2959 39.6025 49.4092 40.0811 50.7568 40.0811C51.7139 40.0811 52.5244 39.8857 53.1885 39.4951C53.8525 39.1045 54.4336 38.5869 54.9316 37.9424L56.5869 39.2314C55.2588 41.2725 53.2666 42.293 50.6104 42.293ZM50.2734 28.084C49.1797 28.084 48.2617 28.4844 47.5195 29.2852C46.7773 30.0762 46.3184 31.1895 46.1426 32.625H54.082V32.4199C54.0039 31.043 53.6328 29.9785 52.9688 29.2266C52.3047 28.4648 51.4062 28.084 50.2734 28.084Z" fill="white"/>
</svg>
