<svg width="32" height="35" viewBox="0 0 32 35" fill="none" xmlns="http://www.w3.org/2000/svg">
<path d="M0.576172 6.89502V28.63C0.576172 29.12 0.928172 29.505 1.37617 29.505H30.4962C30.9442 29.505 31.2962 29.12 31.2962 28.63V6.89502C31.2962 6.40502 30.9442 6.02002 30.4962 6.02002H1.37617C0.928172 6.02002 0.576172 6.40502 0.576172 6.89502ZM15.9362 18.585L3.61617 7.77002H28.1922L15.9362 18.585ZM11.7442 17.15L2.14417 26.67V8.71502L11.7442 17.15ZM13.0242 18.27L15.4242 20.405C15.7122 20.65 16.1282 20.65 16.4162 20.405L18.6562 18.445L28.3842 27.79H3.42417L13.0242 18.27ZM19.9042 17.325L29.6642 8.71502V26.705L19.9042 17.325Z" fill="white"/>
</svg>
