<svg width="31" height="30" viewBox="0 0 31 30" fill="none" xmlns="http://www.w3.org/2000/svg">
<g clip-path="url(#clip0)">
<path d="M6.19092 29.1617C5.74092 29.1617 5.44092 28.8711 5.44092 28.4351V12.8853C5.44092 12.4493 5.74092 12.1587 6.19092 12.1587C6.64092 12.1587 6.94092 12.4493 6.94092 12.8853V28.4351C6.94092 28.8711 6.56592 29.1617 6.19092 29.1617Z" fill="black"/>
<path d="M6.94092 4.16578V0.823305C6.94092 0.38733 6.56592 0.0966797 6.19092 0.0966797C5.74092 0.0966797 5.44092 0.38733 5.44092 0.823305V4.16578C3.94092 4.5291 2.81592 5.83702 2.81592 7.36294C2.81592 9.1795 4.31592 10.6328 6.19092 10.6328C8.06592 10.6328 9.56591 9.1795 9.56591 7.36294C9.56591 5.83702 8.44092 4.5291 6.94092 4.16578ZM6.19092 9.1795C5.14092 9.1795 4.31592 8.38021 4.31592 7.36294C4.31592 6.34566 5.14092 5.54637 6.19092 5.54637C7.24092 5.54637 8.06592 6.34566 8.06592 7.36294C8.06592 8.38021 7.24092 9.1795 6.19092 9.1795Z" fill="black"/>
<path d="M26.4409 7.79891V0.823306C26.4409 0.38733 26.0659 0.0966797 25.6909 0.0966797C25.2409 0.0966797 24.9409 0.38733 24.9409 0.823306V7.79891C23.4409 8.16223 22.3159 9.47015 22.3159 10.9961C22.3159 12.8126 23.8159 14.2659 25.6909 14.2659C27.5659 14.2659 29.0659 12.8126 29.0659 10.9961C29.0659 9.47015 27.9409 8.16223 26.4409 7.79891ZM25.6909 12.8126C24.6409 12.8126 23.8159 12.0133 23.8159 10.9961C23.8159 9.97879 24.6409 9.1795 25.6909 9.1795C26.7409 9.1795 27.5659 9.97879 27.5659 10.9961C27.5659 12.0133 26.7409 12.8126 25.6909 12.8126Z" fill="black"/>
<path d="M25.6909 29.1615C25.2409 29.1615 24.9409 28.8709 24.9409 28.4349V16.5909C24.9409 16.1549 25.2409 15.8643 25.6909 15.8643C26.1409 15.8643 26.4409 16.1549 26.4409 16.5909V28.4349C26.4409 28.8709 26.0659 29.1615 25.6909 29.1615Z" fill="black"/>
<path d="M15.9409 18.6255C14.0659 18.6255 12.5659 20.0787 12.5659 21.8953C12.5659 23.4212 13.6909 24.7291 15.1909 25.0925V28.4349C15.1909 28.8709 15.4909 29.1616 15.9409 29.1616C16.3159 29.1616 16.6909 28.8709 16.6909 28.4349V25.0925C18.1909 24.7291 19.3159 23.4212 19.3159 21.8953C19.3159 20.0787 17.8159 18.6255 15.9409 18.6255ZM15.9409 23.7119C14.8909 23.7119 14.0659 22.9126 14.0659 21.8953C14.0659 20.878 14.8909 20.0787 15.9409 20.0787C16.9909 20.0787 17.8159 20.878 17.8159 21.8953C17.8159 22.9126 16.9909 23.7119 15.9409 23.7119Z" fill="black"/>
<path d="M15.9409 17.3177C15.4909 17.3177 15.1909 17.0271 15.1909 16.5911V0.823305C15.1909 0.38733 15.4909 0.0966797 15.9409 0.0966797C16.3909 0.0966797 16.6909 0.38733 16.6909 0.823305V16.5911C16.6909 16.9544 16.3159 17.3177 15.9409 17.3177Z" fill="black"/>
</g>
<defs>
<clipPath id="clip0">
<rect x="0.791016" y="0.0966797" width="30" height="29.065" fill="white"/>
</clipPath>
</defs>
</svg>
