<svg width="100" height="100" viewBox="0 0 100 100" fill="none" xmlns="http://www.w3.org/2000/svg">
<g clip-path="url(#clip0)">
<path d="M47.0703 7.82206C36.9531 8.57401 27.7246 12.7342 20.4785 19.8142C10.9473 29.1111 6.37698 42.2752 8.06643 55.4978C10.1758 72.031 21.836 85.8006 37.8516 90.6736C50.2344 94.4432 64.0137 92.2068 74.5117 84.7361C87.4121 75.5467 94.1211 60.3025 92.1289 44.6971C90.0195 28.1638 78.3594 14.3943 62.3438 9.52127C57.5781 8.0662 52.0215 7.45096 47.0703 7.82206ZM76.3086 22.9881C76.7871 23.2615 77.0801 23.7107 77.1777 24.3162C77.2266 24.5506 75.752 33.5935 72.6074 52.4314C68.2324 78.701 67.9688 80.2244 67.7051 80.6443C67.3633 81.201 66.7578 81.5428 66.1231 81.5428C65.7617 81.5428 63.9258 80.8396 56.6699 77.9392L47.666 74.3455L45.791 77.4803C44.7656 79.199 43.7793 80.7615 43.6133 80.9471C43.2324 81.3572 42.8027 81.5428 42.2363 81.5428C41.6309 81.5428 41.2012 81.3475 40.8301 80.8982C40.6641 80.6834 39.0137 77.8807 37.168 74.658L33.8184 68.7986L26.4551 65.8592C19.6778 63.1443 19.0625 62.8807 18.7793 62.5486C18.2031 61.8846 18.1543 60.7517 18.6817 60.1658C18.9551 59.8728 74.4629 22.8513 74.8047 22.7439C75.2148 22.6072 75.8398 22.7146 76.3086 22.9881Z" fill="white"/>
<path d="M54.2773 48.5547C44.9023 58.6133 37.2266 66.8848 37.2168 66.9434C37.2168 66.9922 38.3398 69.0039 39.7168 71.3965L42.2363 75.7617L42.4414 75.4492C42.5586 75.2832 48.8672 65.4297 56.4648 53.5644C64.0625 41.6894 70.5273 31.6015 70.8301 31.123C71.1328 30.6543 71.3672 30.2734 71.3476 30.2734C71.3379 30.2734 63.6523 38.5058 54.2773 48.5547Z" fill="white"/>
<path d="M45.3125 46.7775C33.7891 54.4533 24.3652 60.7717 24.3652 60.8107C24.3652 60.8498 26.8359 61.8849 29.8633 63.0959C32.8809 64.3068 35.4297 65.3713 35.5273 65.4494C35.6836 65.5861 36.5039 64.7267 46.6016 53.9162C52.5976 47.4904 59.4824 40.1174 61.9043 37.5197C64.3262 34.9318 66.2988 32.8127 66.289 32.8127C66.2695 32.8224 56.8359 39.1017 45.3125 46.7775Z" fill="white"/>
<path d="M59.8926 52.031L47.959 70.5564L48.418 70.6443C48.6719 70.6834 52.4121 72.1482 56.7285 73.8963C61.0449 75.6346 64.5801 77.0506 64.5899 77.0311C64.6289 76.9822 71.875 33.5545 71.8457 33.535C71.836 33.5252 66.4551 41.8455 59.8926 52.031Z" fill="white"/>
</g>
<defs>
<clipPath id="clip0">
<rect width="100" height="100" fill="white"/>
</clipPath>
</defs>
</svg>
