<svg width="32" height="36" viewBox="0 0 32 36" fill="none" xmlns="http://www.w3.org/2000/svg">
<path d="M16.032 23.0677C21.152 23.0677 25.312 18.5033 25.312 12.8856C25.312 7.26797 21.152 2.70361 16.032 2.70361C10.912 2.70361 6.75195 7.26797 6.75195 12.8856C6.75195 18.5033 10.912 23.0677 16.032 23.0677ZM16.032 4.45913C20.256 4.45913 23.712 8.25106 23.712 12.8856C23.712 17.5202 20.256 21.3121 16.032 21.3121C11.808 21.3121 8.35195 17.5202 8.35195 12.8856C8.35195 8.25106 11.808 4.45913 16.032 4.45913Z" fill="white"/>
<path d="M16.0321 23.77C10.3041 23.77 4.86413 26.1224 0.672126 30.441C0.352126 30.7921 0.320126 31.3539 0.640126 31.705C0.928126 32.021 1.44013 32.0561 1.72813 31.7401C5.63213 27.7375 10.6881 25.5255 16.0321 25.5255C21.3761 25.5255 26.4001 27.7375 30.3361 31.7401C30.6561 32.0561 31.1361 32.0561 31.4241 31.705C31.7441 31.3539 31.7441 30.7921 31.3921 30.441C27.2001 26.1575 21.7601 23.77 16.0321 23.77Z" fill="white"/>
</svg>
