<svg width="100" height="100" viewBox="0 0 100 100" fill="none" xmlns="http://www.w3.org/2000/svg">
<g clip-path="url(#clip0)">
<path d="M47.0708 7.82206C36.9536 8.57401 27.7251 12.7342 20.479 19.8142C10.9478 29.1111 6.37746 42.2752 8.06692 55.4978C10.1763 72.031 21.8364 85.8006 37.8521 90.6736C50.2349 94.4432 64.0142 92.2068 74.5122 84.7361C87.4126 75.5467 94.1216 60.3025 92.1294 44.6971C90.02 28.1638 78.3599 14.3943 62.3442 9.52127C57.5786 8.0662 52.022 7.45096 47.0708 7.82206ZM50.3032 34.0818C52.4712 34.2967 53.5552 34.6385 54.0435 35.2732C54.1704 35.449 54.3755 35.8787 54.4927 36.2303C54.7466 36.9724 54.7564 37.8221 54.6001 44.1697C54.5025 48.1346 54.561 49.3553 54.8833 50.2342C55.2642 51.24 56.104 51.699 56.8462 51.3181C57.52 50.9666 59.0923 49.2381 60.1177 47.7049C62.4907 44.1892 63.936 41.4646 65.6743 37.2556C66.0259 36.4256 66.4946 35.8787 66.9829 35.7517C67.1782 35.6931 69.9419 35.6443 73.3403 35.6346L79.3462 35.615L79.854 35.8299C80.5083 36.1228 80.7622 36.5037 80.7622 37.1971C80.7622 38.5154 79.3853 41.2205 77.022 44.531C76.6997 44.99 75.479 46.6111 74.3169 48.1443C71.7485 51.5232 71.1919 52.3142 70.8013 53.1346C70.313 54.1697 70.4302 55.0193 71.2017 56.0252C71.4263 56.3084 72.5591 57.451 73.7212 58.5642C76.9731 61.6795 78.4478 63.3201 79.6489 65.117C80.5083 66.4158 80.8403 67.3728 80.7036 68.1932C80.6353 68.6424 80.186 69.1795 79.6782 69.4432C79.0728 69.7459 78.145 69.8045 73.0376 69.8728L68.2036 69.9412L67.4224 69.6775C65.4302 69.0135 64.1021 67.9099 61.0845 64.4139C59.4146 62.4803 58.1743 61.533 57.315 61.5232C56.5239 61.5232 55.5181 62.5779 55.0884 63.8865C54.7954 64.7654 54.688 65.4392 54.6001 66.9627C54.4927 68.7596 54.2778 69.1795 53.1743 69.6385C52.7739 69.8142 47.7935 69.8728 46.4751 69.7361C43.8286 69.4432 41.3775 68.6131 38.9458 67.1775C35.4204 65.1072 33.2622 63.2517 30.9478 60.3025C26.9243 55.1658 24.1802 50.7908 20.8501 44.1892C19.5611 41.6209 18.0474 38.3006 17.8032 37.5096C17.5591 36.6892 17.9107 36.0154 18.7114 35.7615C18.9849 35.6736 20.5083 35.6248 24.0239 35.576L28.9556 35.5271L29.5318 35.742C30.44 36.0935 30.8208 36.5428 31.4361 38.0369C31.9634 39.2967 34.8052 44.9998 35.6939 46.5916C36.6021 48.2029 37.5689 49.5506 38.3989 50.3514C39.4243 51.3572 39.8833 51.6014 40.606 51.5428C41.2212 51.4842 41.3872 51.3474 41.7681 50.5174C42.6958 48.5154 42.8423 41.7478 42.0122 39.0916C41.5337 37.5779 40.8208 37.0017 38.8482 36.5818C38.5064 36.5037 38.5064 36.3865 38.8189 35.9275C39.5806 34.8338 40.938 34.3064 43.5259 34.0916C44.9419 33.9744 49.1411 33.9646 50.3032 34.0818Z" fill="white"/>
</g>
<defs>
<clipPath id="clip0">
<rect width="100" height="100" fill="white"/>
</clipPath>
</defs>
</svg>
